<mxfile host="app.diagrams.net" modified="2021-11-18T07:31:36.952Z" agent="5.0 (Macintosh; Intel Mac OS X 10_15_7) AppleWebKit/537.36 (KHTML, like Gecko) Chrome/95.0.4638.69 Safari/537.36" etag="IjCPuLKnX8Gi7NqjA__H" version="15.7.3" type="github">
  <diagram id="6a731a19-8d31-9384-78a2-239565b7b9f0" name="Page-1">
    <mxGraphModel dx="4034" dy="2086" grid="1" gridSize="10" guides="1" tooltips="1" connect="1" arrows="1" fold="1" page="1" pageScale="1" pageWidth="1169" pageHeight="827" background="none" math="0" shadow="0">
      <root>
        <mxCell id="0" />
        <mxCell id="1" parent="0" />
        <UserObject label="https://w7.pngwing.com/pngs/546/1022/png-transparent-running-free-content-runner-text-sport-logo.png" link="https://w7.pngwing.com/pngs/546/1022/png-transparent-running-free-content-runner-text-sport-logo.png" id="gwCARYgNPO8SfjRAzbcM-1548">
          <mxCell style="ellipse;whiteSpace=wrap;html=1;aspect=fixed;strokeColor=#82b366;fillColor=#d5e8d4;" parent="1" vertex="1">
            <mxGeometry x="285.5" y="1.5" width="1620" height="1620" as="geometry" />
          </mxCell>
        </UserObject>
        <mxCell id="gwCARYgNPO8SfjRAzbcM-1547" value="" style="ellipse;whiteSpace=wrap;html=1;aspect=fixed;strokeColor=none;fillColor=#dae8fc;" parent="1" vertex="1">
          <mxGeometry x="465.5" y="181.5" width="1260" height="1260" as="geometry" />
        </mxCell>
        <mxCell id="gwCARYgNPO8SfjRAzbcM-1546" value="" style="ellipse;whiteSpace=wrap;html=1;aspect=fixed;strokeColor=none;fillColor=#f5f5f5;" parent="1" vertex="1">
          <mxGeometry x="707.5" y="433" width="777" height="777" as="geometry" />
        </mxCell>
        <mxCell id="1515" value="" style="ellipse;whiteSpace=wrap;html=1;shadow=0;fontFamily=Helvetica;fontSize=30;fontColor=#2F5B7C;align=center;strokeColor=#FFFFFF;strokeWidth=6;fillColor=#FFFFFF;fontStyle=1;gradientColor=none;" parent="1" vertex="1">
          <mxGeometry x="961" y="676.5" width="270" height="270" as="geometry" />
        </mxCell>
        <mxCell id="gwCARYgNPO8SfjRAzbcM-1543" value="&lt;font style=&quot;font-size: 41px;&quot;&gt;&lt;span style=&quot;font-size: 41px;&quot;&gt;&lt;span style=&quot;color: rgb(47, 91, 124); font-size: 41px;&quot;&gt;&amp;nbsp;&lt;/span&gt;&lt;br style=&quot;color: rgb(47, 91, 124); font-size: 41px;&quot;&gt;&lt;span style=&quot;color: rgb(47, 91, 124); font-size: 41px;&quot;&gt;LetsMeet&lt;br style=&quot;font-size: 41px;&quot;&gt;&lt;/span&gt;&lt;/span&gt;&lt;/font&gt;" style="text;html=1;strokeColor=none;fillColor=none;align=center;verticalAlign=middle;whiteSpace=wrap;rounded=0;fontSize=41;fontStyle=3;fontFamily=Lucida Console;" parent="1" vertex="1">
          <mxGeometry x="956" y="780" width="280" height="141.5" as="geometry" />
        </mxCell>
        <mxCell id="gwCARYgNPO8SfjRAzbcM-1544" style="edgeStyle=orthogonalEdgeStyle;rounded=0;orthogonalLoop=1;jettySize=auto;html=1;exitX=0.5;exitY=1;exitDx=0;exitDy=0;" parent="1" source="gwCARYgNPO8SfjRAzbcM-1543" target="gwCARYgNPO8SfjRAzbcM-1543" edge="1">
          <mxGeometry relative="1" as="geometry" />
        </mxCell>
        <mxCell id="gwCARYgNPO8SfjRAzbcM-1554" value="" style="shape=image;verticalLabelPosition=bottom;labelBackgroundColor=#ffffff;verticalAlign=top;aspect=fixed;imageAspect=0;image=data:image/png,iVBORw0KGgoAAAANSUhEUgAAAU4AAAFOCAYAAADpU/RpAAAACXBIWXMAABcRAAAXEQHKJvM/AAAU6UlEQVR4nO3dTXIjRbeH8awbjJE3ABYLALXnEJbHEGH1Clo9Y2YzYog9YXq9BHlAMHzlCBi/VsD8WrABCTYgsYG8carrmOxqyaojlaTKrOcXkVGyWnaXPvz3yaysysx77wAA1f0PrxUA2BCcAGBEcAKAEcEJAEYEJwAYEZwAYERwAoARwQkARgQnABgRnABgRHACgBHBCQBGBCcAGBGcAGBEcAKAEcEJAEYEJwAYEZwAYERwAoARwQkARgQnABgRnABgRHACgBHBCQBGBCcAGBGcAGBEcAKAEcEJAEYEJwAYEZwAYERwAoDRR7xg2EaWZSfOuVcVvlUec3LAF3nhnHuq8LiZ9352gP1BgjLvPe9rC2RZVg6w8tfrgvC8hS/XZMV9s6KFHsMvvPePK74PCSI4I5RlWdc51y32PAzA8Lb8+2nbX6sjmgdBW66CNWAX3vsq1TEahuBskFL3t19sNQyl9dr+GiVMgzYM2afia4YVGobgPKAgGHXbDRrVITaZB0MGYXvy3i949Q6H4NyDYjyxW4SjBmUbxwpxWJOgYn0qhgIYd90DgnMHxVjjq6B16U6jgbRSfdRQpeu/G4KzoqKb3S9CUredKHYe+NCyCFHCdAsE5xpFUA6CkKSSROrmRZDmjSBdj+AMFGOTwyIsCUq0nQTpWBpjpe9rfXAGYTngyDaw1rII0TvmnrY4OLMsk7C8prJ0rtPpuC+++OK9+z799NO8lZ2enq68P/xZn3/++b53ubK///7bzefztQ//66+/Vv673C8tJI8r39dS8oLdFJVoK6dBtS44syy7Lt705A7sfPXVV8+3v/zyy+fb5bCTkPz4448Pvn+p+eeff9wff/zx/KzKIfz7778/35bHLZfL1F4CeUJ3RRXaqgBtTXBmWSbjlqPYuuMSclLFhZWc3udKAYk4aKBKkGrwaoUb3hcR+Wtx7b0ft+Uj2IrgzLJM/ipeNWBX3qNdZA3Fk5OT53AkEKEB++eff7rFYpFvNVgbWr3ee++HDdiPvUs+OLMskyrzzbH+fw1HHTPU7jTBiF1pkP7222/5Vr5uQKhOZVZK6l33pIPzkKGpASkVo4wpypaxRByLVKs65iq3DxyoE+99v8LjopVscGZZJtOL/rOPn60hKVWjbKV98skn+/ivgNrowSypUKU61Up1T77z3t+l+u6lHJyzug4EaRdbGyGJVMh0LQlQCVStTGuy9N4f8sr/B5VkcBaT2v9vl5/xzTff5I2gRJtokP7yyy91VKQXqZ5xlGpwylzN/7V+n4alNMYmAed+/fVX99NPP+VBuoVb7/1Nii9jqsEpb9YPVR8vY5Q///wzlSWwhlSi33//vTVAkz1IxPLAxVkd3377bf7XFcD75Pfixx9/3LbqTBLLAxdkPEeaHDHX7vrXX3/diH0DDk3CUsc6OT//Q3TVN5CDQxKiMi+TSetIlUxPkqPqWkDUNE0p2a46FecG+kFSEqTM30TMwvmcR5gcnwSC06gcpOXJ8DLns0mXVUO7yUEdCUZpekomXe/d0VXfkzBE9UIedPWxL1I56gVAwnPYjyzZrjrBeWDli37otTJlS7cf6+gFmfX8c70MXcO72Yxxoh6bKgEN0fD6m3pFJcI1TeFV6vWzoVUjV51vJirOSK27mHF4FXiuznQ84dXf9XqarnR/A7rS+0ZXPSZtCE6r8rpCq9YGCsNYta3KLS+HocohV16TiCPTKxGcMbEE53g8fm5aFWCzVQu8rSLhXA7jfdIL+m5C0NkNh0M3GAzc3d2de3ysdO2OdK/LKcGZWisWY/NVWmg8HvvhcOi73W6l76XRUm4nJyf574P8XiwWi+fflH6/X/V5P6aYL9I4OBS4vLzMm5hOp/lfVW1Uo2iDfr+fN6kse73Wr5y9FsG5hnxopF1dvVvjTYP06enpuQEx63a7eUi+evUq3xKU1RGcFWmQhiaTyXOIzmazquM+wMFJOEoLw/KQY8+pITh3cH5+nreQzLvTEJWtNAlWuvo4BAlFCUdpGpRUkvUjOGsm03eklQNVjuBqgGqFGjagCll7XwMxbFSQh0VwHoh8qDVM9QBUSCtVDVahXX8q1nbQUHRF11q+DsNR/iCjGVo/jzO25y/jqkKr1Zdu4/g09NwLt2OrFi8uLlo/j5OKMzJatZaHAtbRoBVhNavKvwCrHtNmYcAprQbXfV31vUG8qDgTXVe+bjIda91wgbXKrSucy4G1yaoQVPJzOIhSDRUnFScqeilUqLDQNqxyCQBGBCcAGBGcAGBEcAKAEcEJAEYEJwAYEZwAYERwAoARwQkARgQnABgRnABgRHACgBHBCQBGBCcAGBGcAGBEcAKAEcEJAEZcAR6InC5jEa6Sif2i4gQiJGE5GAxkfa18DSBpZ2dneXgOh0NWOt0zghOIzM3NTR6UDw8PH+z4crl09/f3eeU5Ho95a/eE4AQiIqF5e3u7cYclQF+/fl11NUoYEZxAJKT7XSU0Q9JtR/0ITiASUm1azedzNxqNeItrRnACkdh2zJKxzvoRnEAkZNxyG4vFgre4ZgQnEAGmFzULwQlEoNvt8jY1CMEJRKLX6221o5xNVD+CE4jEtlOLmJJUP4ITiMT19bW56ry6uqLi3AOCE4iIzMnsdDqVdlhCdpu5n9iM4AQiItXj09OTOz8/f3GnpdKU0y3loh+oH5eVAyIjR9glFCVApQKVrZIrJknjKPx+EZxApKT6vLu74+07ArrqAGBEcAKAEcEJAEYEJwAYEZwAYERwAoARwQkARgQnABgRnABgRHACgBHBCQBGBCcAGBGcAGBEcAKAEcEJAEYEJwAYtT44Ly4u3GQyacCeAM22XC7dd999l199vu1aH5zyIej3+3mAPjw8NGCPgGaZTqfu7du3+XIcXHH+HZbOKEiA6uJWum7L5eVlI/YNODQJS1nPaDweu9lsxutfknnvG7VDdciyTNZE/aGOnyXVqLZNKwsCsZrP58/Fg4TlYrGo45lMvPf9FD8UVJwb6IdJaYjKQlnSTk9Pm7vzwBoyrq8rZcq2pqBsDYLTqByk0rWXANUwlXGgXq8XybNB6qSSlK62hqTcDpcTxnboqu+JhqhupdHVx77ImKRUjRKQEo4alkeWbFed4DwwrVB1q6EqjW4/1pGpQFIpSjiGWw3JhiI4Y9Lk4NxEA9UV46muqF7lfmkMA6RHu9OuGAoSGogND8ZNCM6YxBycVWmV6oJgLd+mij0OrQ5V2GXWatGV7k8UR9XRLGElUvUXUCvYdV+HYazaVuWG1Z/SbnEoDEC34mukrfXBKXPWtKX+wS8H7K4Vz6qg3eVxdajynFYFITbTE0Pk7KHWv37SVU+tOeekq+6rtNB4PPbD4dB3u91K30ujpd4Gg4EfjUZ+sVg8/6b0+/2qz/sxxXyR1vqKMySnWOppljK9Q+dsMkEYbcGZctUQnGvIuJ60q6ur/AESpHqWhWxb31VB9HSesZ7AQVBWR3BWpEH65s2b52+Q09Y0RBsy4RhYKTwhQ89y63Q6vFhbIjh3IH+hy3+lw1Pc9Mg3R1xxKGFA6tQ0Ksn6EZw1k3mT0sof1vKZH4lMcMaBlc88C89AY87u4RCcByLdIg3TVdf51Eo1nCpTPosE6SufLaZTuThrrFlaf+ZQbM9fl/kIAzYMVuYoNks4hzU8nTa8Hdt4o6yWUHE8nzOH0AzhEECVK9TrVXNU+QO/avyVg1z/Ck9hVeX7Vn3NgZe0EZyJK3fvtj1QUD7/umybA2DbDkGE1ZpF+RTTEGOEsCA4UUk4RrsKR27RJq1f5RIArAhOADAiOAHAiOAEACOCEwCMCE4AMCI4AcCI4AQAI4ITAIwITgAwIjgBwIjgBAAjghMAjAhOADAiOAHAiOAEACOCEwCMCE4AMCI4AcCI4AQAI4ITAIwITiBCsqzycDjMl0rOsuy5yTLHNzc35qWaYUNwApEZjUb5uvL39/f5eveh+Xzubm9v839/aR187IbgBCIiofn27dsPArNMArTf7xOee0JwApGQ7vn19XXlnZVwle486kdwApGQsctNlWbZdDrNq1TUi+AEIjEej7fa0W2/D+sRnEAkrNWm4gh7/QhOIAIc5GkWghOIgEwvQnMQnEAkTk9Pt9pRmRSPehGcQCS2nVrElKT6EZxAJGQOp7XqvLy8zCfCo14EJxAJOS9dphZ1Op1KO9zr9ZjDuScEJxAROUj0+PiYh+JLpNKUx0nYon4f8ZoCcdELeEg1KRWozNOUr+V+ORAkY5p0z/eL4AQiJQHJgZ/joKsOAEYEJwAYEZwAYERwAoARwQkARgQnABgRnABgRHACgBHBCQBGBCcAGBGcAGBEcAKAEcEJAEYEJwAYEZwAYERwAoARwQkARgQnABi1Pjjn83kD9gKIh6xx1HatD05Z4Or29tYtl8sG7A3QXPf39+6zzz7LF4Zru8x7n9xLkGXZjXPuB+v3ycJXg8EgX1oVwLse2d3dXb6a5mw2s74iE+99ksttEpwryFrUEqDSZJnVTqezz90FGmUymeRBuWVYhgjOmOwanGXSnZcA1UaQIiUSlI+Pj3kXXLY1jmESnDGpOzjLZNF/CVAJVGnn5+fJvYZI03Q6zQNSmwTlHiUbnB81YB+iI92X0Wj03m5LmGqQSpOve71e218qHImMTcrnVIJRtnob9aDi3DMJURkzlQpVwlQDlu4+6iDdbOlaS/XYwICk4sR2dOrGqg+zhuqqLcEKVwSjKz5HGpCypXo8LoLziF4KVVd0/6UJqVjL9xGw8ZKxRglADUNXDAFJC+9DMxGcDaa/SO6FcFUarK50OwxawYGs+mkIqvC90gqxfBtxa31wSqjsOFetEcJfVks3TocJlA4VrHqdwgAu/9vp6WnjXyM5O+ylSm7V6xb+8VJtD0D5jLT9D0DrDw7J8394eHie8Nv2D8QhvBTCFnRpD0dPCNFW8Y9zsgeH8uBIrTnnJDh9lVY2Ho/99fW173a7lb6fRkuxnZyc+MFg4EejkV8sFu/9lvT7/arP+THFfJFGxfnC85e5cPKXVVsKXXpgFZ0yp+2lOcgXFxetrzhbP8b5Ehm3e/PmTd5cMEamQdr2sS7EKzzzTW7HMEbdJFScOz7/MEw5QwNNs48z2qg4qTh3JvMoZYpPeZpPeMpb+cwOoE46EyI8M41TfveL4NwT6fpIWzVvUuf9lc8GoeuPdXRubvksM+blHgfBeQRaCaz70Gu1Gk630VBlCk5aNp0dRjA2E8HZQFqtipeuRq8B60oTtcvhSiV7OOvO2gpPLJDbdKPjRnBGLAxYS2VSPkVw1djruvHY1MZp150pter+VfdxvYB2IjhbqFzt1Nkd3HRa46HFcjoo4kJwolY6ywBIWeuXBwYAK4ITAIwITgAwIjgBwIjgBAAjghMAjAhOADAiOAHAiOAEACOCEwCMCE4AMCI4AcCI4AQAI4ITAIwITgAwIjgBwIgLGQOR0zXO1y0DgvpRcQIRkrAcDAYuyzJ3cXGRt7Ozszw8h8Mh6/fvGcEJRObm5iYPyoeHhw92XNZ8ur+/zyvP8XjMW7snBCcQEQnN29vbjTssAfr69WvW4N8TghOIhHS/q4RmSLrzqB/BCURCqk2r+XzuRqMRb3HNCE4gEtuOWTLWWT+CE4iEjFtuY7FY8BbXjOAEIsD0omYhOIEIdLtd3qYGITiBSPR6va12lLOJ6kdwApGQM4K2se33YT2CE4jE9fW1ueq8urqi4twDghOIiMzJ7HQ6lXZYQnabuZ/YjOAEIiLVo5xGeX5+/uJOS6UpFwKRi36gflxWDoiMHGGXUJQmk9vD89H7/X4+pslR+P0iOIFISUhKw+HRVQcAI4ITAIwITgAwIjgBwIjgBAAjghMAjAhOADAiOAHAiOAEACOCEwCMCE4AMCI4AcCI4AQAI4ITAIwITgAwIjgBwIjgBAAjghNAZfP53M1ms9a/YK0PzrOzMzeZTBqwJ0BzLZdLd3t7my8WZwjOpwqPiVLrg1MWupJ1Wy4uLtz9/X0D9ghojoeHB/f27dt8tUxZanixWFj2zfTgmGTe+/SeVJbJClb/3eZ75QMyGAzyJoFadQ1rIAVSWerqmdKMQVn22ns/TvGDkWRwunfhKe/4zqmnKwlK27SWNRAbCUrpda1aanhHS1nJ2HufZNWZcnDeOOd+qPvnSoDKOI9uT09P6/4vgL2ZTqfPQSnbGoOy7NZ7f5PqO5lycJ445x6dc719/j/Stdcg7Xa7eaMyxbFpJalNDuhIWB7IxHuf9ILvyQanexee3eLI3sEHKiVMJVTDQJX7GDNFnaSClHFICUXZalDuODa5i6l0zFLtoqukg9P9G57jfVeeFhKmWqmG216vMbuIhtDKUUNRt1JBNnA+pUxLuU49NF0bgtP9222X8ZarBuzOizRIXRGwQitWwTBAOsLJ5NqN1nBsaDCuMy8CM8kj6Ku0IjhVMU1JAjT69AnDVCvW8v1UsYcVBqFWhkqDsXx/5OTI+Z20NlSZoVYFp0opQC3CgHWlkFVa5YbkMSnPHlh3GmF5rLAceomFoMW8+P0Zty0wVSuDU2VZJn3ia+fc4BgHkFKwKnxfYn38OtbQiqzr20TL4liBVJet/GsRanVwhrIsGxQBSogC78yLsJTK8mBzmWJAcK5QVKISoP22defRavNi7nPevPeU6GsQnBUUY6LaXlGRIhGTYp6zBOUTQVkdwbmFYm7oq6JJmMrXnHuJploGATkrQrL145S7IDhrUswV1TA9IVBxBHMNxmD71NYj3/tEcB5AMWaqVWo3aIQqrKbFdS6fiq1UkQsqyMMiOI+s6PaHTStXx4Gp1lkGV03Xo9gakDPGIJuD4IxAUbHqzHWdoR4GLNVrs4Vrs2ggLoKQpDsdGYIzMcFYqwpD1wXBG/47swQ2m5aWgpgVbdXXdJ0TR3DiA6UKN7TufqVDDk1RDreydf9OBYgXEZwAYNT6VS4BwIrgBAAjghMAjAhOADAiOAHAiOAEACOCEwCMCE4AMCI4AcCI4AQAI4ITAIwITgAwIjgBwIjgBAAjghMAjAhOADAiOAHAiOAEACOCEwCMCE4AMCI4AcCI4AQAI4ITAIwITgAwIjgBwIjgBAAjghMAjAhOADAiOAHAiOAEACOCEwCMCE4AsHDO/T8CD8vqpAqhdgAAAABJRU5ErkJggg==;" parent="1" vertex="1">
          <mxGeometry x="1300" y="1410" width="164" height="164" as="geometry" />
        </mxCell>
        <mxCell id="gwCARYgNPO8SfjRAzbcM-1564" value="" style="shape=image;verticalLabelPosition=bottom;labelBackgroundColor=#ffffff;verticalAlign=top;aspect=fixed;imageAspect=0;image=data:image/png,iVBORw0KGgoAAAANSUhEUgAAAKAAAACgCAYAAACLz2ctAAAACXBIWXMAAAsSAAALEgHS3X78AAAVx0lEQVR4nO2dv3MV1fvHz37nU0PsVUINSmgFh9CCM8QSLAhWoAXpRBtCI1gZCtCOMANacjNjbAkjY2vwR02i9ib8A/ud1+Wcy9mTs3vP/n52775ndi4JSe7ec977/H6eE8VxrAYMaAv/N6z8gDYxEHBAqxgIOKBVDAQsgSiKFrg6+wEEYHBCLERRNK+U4oJUc9Yr14mcf+6FUmpPX9vW604cxzu1fpAOYWYJqMm2oK9F/Xq4obff12TcMq9xHO819N6iMDMEjKJoThONa0kpdUTAbdnYVUqNNClnhpC9JqAm3ZK+LhT9O++88446cuQNX9977z01NzeX+Jm9vT31xx9/TL7e3d1V//zzT9G3BBuakKM+k7GXBIyiaDkv6SDZ+++/P74g2OHDh8f/5rUM9vf31e+//z5+haD8mysnOTc0EddL3YxA9IaA2qZbUUoth9hyp0+fVh9++OH4tQqi5YUh5vPnz9Uvv/wyfg0AtiMkXOuLI9N5AkZRtKiJlyntkHAQ7qOPPhq/Nk24aYCQEPGnn34avwZIyA1NxK3Wb74EOktATbxVpdSZtJ85dOiQ+uSTT8YXUq5LQDo+fvx4fL169Srrzp+xDl0lYucIGEK88+fPj0mHtOsDkIoQcXNzM+vTdJKInSGgtvHW04hnpN3nn3+u3n333eZvsAH8/fff6t69e9OkIkRc7oqNKJ6AOpSCjXfT9/8QD9J99tln4uy6uoC9eP/+/TEZM4h4S9uIokM4ogkYRRGhlDVf0HgWiecigIgEt1fiOB61eqMZEElALfXWfZ7tQLyDCCDihlbL4qShOAJqJ2Pki+XhXHzzzTe9tfHKAhvxiy++SHNWiCEuSXNSRBEwiiLU7XX3+8Twvv/++3H8bsB0EEe8evVqWizxbhzHK1KWUUQ9IB5uFEXbPvJdu3ZN/frrrwP5coC1Ys1YOw+us9Y6qtA6WpeAaSp3kHrVIEMailDJrUpAXTTw1CUftt4g9aqBkYasqQPW/Kneg9bQGgG1vffA/f6dO3fUjz/+OHi4FYK1ZE1ZWw8e6L1oBa2o4CiKCLFctr9HeOXnn3/uXM62ayDHfO7cOV+45mEcx41Lw8YloI981N+hJgby1Q/WmLVmzR1cZm90DLYxNCYB9Qfbcpt7qMcbVG7zIHh98eJFXx0izVSLTQWtG5GAaeS7dOnSWO0O5GserDlrzx44OKH3qhE0pYLXfOQjzDKgXbAHPhJqU6l21E5An803kE8WUkh4uQkS1kpA7d4P5OsAMkhYa4imNidEBzgTcb6uk4+sAshqIMKpUjoA3EWQNfnhhx/cO79SV0deLQTU6bWn9vfYGIzergAv0TQI0U5p9/yGglCH6b6T2AiVhlOnTvk+79k60naVE1Anubft9Bob0RVvl3J3iDel/6IQutKrwsNHsNohIbnjhapL/esg4Lbt8ZLhIPApuYbPFHQ+evSo7DSDIFBo8dVXX43JKBXUFn7wwQduxuRFHMeVTgOrlIC+ej4kiWR7CIlHEeeU1sdaIJ2ImB+eIoZK6wkrI6DP7iP5Tem8RPCEY3AHTiSoFdiJOGcStQSa4caNG+63K7MHKyGgznTs2HYfTw4pNoloU+qlAVMFEkq0D0nZOTYx9uB8Fem6qgg4shuIUC3YfRKdjpQwgxhQxUzfiyRgI2MPOvbxRhzHS2Vvs3QgWrdOJrrXeJIlzl7hSZZMPvDdd9+NHxJJYC898dsLeu9LoRQBtepNRMp5gqU5HSasUEdopQ7wkEgjIXvq6TFZK1u+VVYCrthN48arkwbsvSKB5DYhkYTsLXts4YjmQGEUJqAOOCfGZUhUvZBPutpNA/d9+/ZtMfeToopvlumwKyMBE7lBvF5pqpeMBjZVlwEBTQ5aAthjT2ywcJ64kBfsxvwkZjtSIvmdBOv7119/idEuKWtbKDZYVAKu2l9IHIkmLc5XBnwOPo8UsNfsuYPVIreXWwL6pJ+kp1Np1eupbes8JKU1iSwcO3astBQsIgEPSD+JjkcfIc0hqUIK5pKAXZB+pNlSZqL0An2TgnklYCLmI1H6ff311wLuoj50QArmigsGS0Ad63lpvpYo/VLKh3oHKnikNPGnSMGjoYWreSRggtnUsEmTfqjfWYCkzwkHPPWMwVIwjwTcs8ut/vzzT3Ghl7fffrszoRfOmlteXlbb29tqaytf+Ix0GNpHCogLHj9+3L6b/TiOg3LEQRJQd7glav2kkY/QS1fIt7S0NCbet99+q54+fTom4MJCeKU7ZVEMGZICuOCYPodDx76FquBE2Y3EEnJJ6ao0IPVGo5F68uRJ4vTNM2fOjEnonsCZBWmVPR5OBJVqTSWgLreZ1PvhfEis2pVQWp+FxcXFsdS7cMF/pB221NpaeA+4tAcOTsANCxdCSrVCJKB46Qckl1utrq6OVa0t9Xy4fPlysBSU+MAVkYK9IKBU9WtU7s2b3kOevMA+DIUkO1DVQUBX/ZpDnaUBL0wacCqw69JUbhryOCPE4CQBbjgFq1PV8DQJuGh/IbW/VxoBDflOnDgR8NMHfzcUEtWwhyOL/p98jVwElDpSYm9PzglUxPZ+++23mR266eFIKQImdLhUCSjFAYF8Dx4cGPyfC/Pz4dXtu7u7Fd59NfBwJNMOTCWgzv1O3Da694dRuumognxgmqdsQ6LtC0fMiDqNI1k9I1kSMGGMDIfGpGN9fb0S8imhUi0vPFxJNWyDCeiweoAG5CN+VxV2djpx0HkmPFxJJeD/Mv5QwngczvBIwsT4SKMNSMLDlVRHJEgCEtsZ7L83IFRCWm0gnx9wxYkH5lPB2micMG6Qfm9AWo0wSx5nYRbhcOZwmiOSJgETPyydgE1kBEwxQZ60WhH0wQZUfs7kImBCZEo/Ij8kDkh8LU+5kwG5WbIaFBMUyWzkRR4CSvaYPZzxquE0JySxU9IJGALidEgvNg1CsdGmEpl/c2HbQVJeuSCfZNu3iXnWReHhjPfpTyNggq19sAGNZMF2M2GTutVpEeQtz5cKD2e8EjBNBSfYKlkKhJZi9cW2ciG1FM3DGa8EnEpAx50Wh1AHpCuSBUcnDySm4wwc7uQi4MTalh5uyFOI0IU0V97KHsm9MA53vB5c4yemVw264UKRV7o0jRcvXuR+xy40Y2Wh8wTkKIgvv/zSbYjxQjoB89ipqDeGbzKXscuYSkDOeZMM3H0I+O+//443JKtoQrodGPKA8PkY3UtjusTpFDZCuDOVgEWCt22BDeFQRKY2MCHLlYpdJiDzDinB5/NJP+zQIIQ7BwgYRVGlh9G1AaQih70gFT/99NPEHRSxs5qCS0AeIKQ7DxTDwbsej/VxyycBuyPyAnDr1q3ED0mVgnjotg2IBEfNQsA+ZKLScICAdRxK3CawkWxbhBo+iXCln3T7rgjiOD5gY0y1ASV1nBWF7ZggAaX10yrnwUD19iH9GcKdqQTs2glDPrhGu0QpaJsGfem/CeFO5+OAIWBDbY+YPg5JePbsWcL+64qXWwVmgoDKmVuCtGHTpcB9IAYCKjWJVfShTVDpgeo2KK2XANbXJiDxvr44Hw53vPGvNAJOrEfJRY95QCjDPrwGKbixsdH6fa2sJMcpSx1/VwQOd7weyVQCKoFTmIqC40ZtW5Aq6TY/G2aA7RDhrffFAfGsay4CJuI10ubQFYV7xhlhApqN2gAb5M4CvHPnTgdWMQweznjzjEESUHLRY16QWbDjggSAr1y50vh9QHw7TsZ99an91cOZ4hKwTwRU+mBtNyzTJAl5LzvzQaYGAvYJHs7kkoCJwrS+qGADVDFVJT4S1m0T8h6218s9UNPYN3g44y129BJQH7M02Ym+EVDpri0qZmxADFRjHaEniH3y5MkD5ONB6GOxgcOZ/bSju7IC0RORiTvdF0/YBiEPijttSYhqpCf47t27lb0P4R4a4221a8jXx7EncMUJwaQWOmYRMFEV00cpqHTWwVXHOAfE586ePVsqY4Ik/fjjj8ferpuY7yv5lJ8rqRVWQRJQdeAgmDKACL6z1whWo5Ih4sOHD4PfAeJh6yH10gof+qhRDDxcKSQBE7/U9e6rMoCIBK3feuutsURDPSMZbRLxNd/HzoN4bn43z+znrsPDlVQCZp6WGUXRjj0nGr3e1zmB7lnD5IohXtkKakNGZglGUTT5Pg1UfUq7GfBQOg3pu3EcF5oRrVzdPUtSEInHRCwcB/6dtzkL1Q3xXr586R1k2bfYqoGHI5nFl9MImPjlPE3gXYNrt5iufkayMYD8v//+G9tzOCdp6Tu+z4GD1PZBXnd2tH0ITR8qzX3wcCRThWTNiD7wy7MiAdOkHcduuUdv0WWHmg0xTey/24dKcx88HMkkYKYEjOOYx3RSsyTtoOQqYS9cnuOykJChdnGXeqyLAG448b8NzaFUhFREJ9Tw48ePW/yI1QOjmc9kP1h1EcUmNir/6tWrvbIFPdyY2nwzswSEeLdv31bHjh0b9+Dax/03JanIwhw/fnxMxD5olloI6KphNqrLzggShw2HeBDQJp5BXUOM0v4uRKRE7Ny5c521s+GEs5ZT1a/K0ZTUeSnIxkI8JA4b7hLPDhRDlDoyFXZM0ReYRi0Ti4SIXVvjItJPhRIwjuN1uzpmc3OzM7YLxGND2ViI58IEionX2aSouneYTIkdeuH9IKTvhHSIiFmAlO4CEeECnLCwrzkzFXnaMhN/8N69e9V9ghrAxrGBEM+XxyZmBwEggonX2fG9qmfI2H/PkI4A9ZMnT8ZxQ4LdLvAoDRExF6Tmjz1cCG68zkzFJX7w9Uk3L83XVI+QwJeUmmOD7t+/rx49epTazcdGE0z2nflB2ZQhB9IQclYFcsTGBiRYff369QN/2bRo8v++QDVrTk8LKTwpNYSsOQ+IY9IcTav/cxFMQPWahOilSSSWMnIJpeSoAJ5CpJ7PqcCrhVjkd7NmXrOYtgcMYao4nMb9u0i8afcBCdOIqHT/MF1+bRMRycxlAecj85BqG3knI6zZX7DpbaoF49HiWJDcd8nHpkM6Npx02rSB60jzOtSwbU8iWUPugzNMSP8hEX0Oix3CactzZu896nfN/9N+5CKgHt02qdBkw1F5TcM4FsajdWEcCzaQjcxjJthOQVUzZHz2XyiwTzEFTLuACz6/8ZybJiJ77zz0z/KO98ulgtVrNcwqPDVfN2kLEmtC3KflUdkgbLwyB0hjh9kSBxVY9rNRR2hUKdLQzSfnAd60KRXzgVIoel3qni+TYvudzUvA3MOJ2pKCqBrsHh/57AMFy55ejnqsMhyDY2PIh0lQhnxKe852mZgLnC/WifWqE1VIP1ViOlZisg92QJ1xQaSeT9WyAdh3hDKqPDzaVpNlCWj/fl71mwVTJmZCOG76kPVynIPKYJw+B8WmPaGCi1y6zCY21/nz5+NXr15Vfm1ubsb2+3Ctrq7GOzs7cV3Y3t5OvN/e3l7hd5qbm5v8ndFoVNs9c4+si7tWrF/Ve8JeO++zVZRHuW1AAzcuqHSGpOrhOqdOnUqoXVRtE0flHz16dDI0EgegiGq344qqIntyGrARbWeFHDMdeFXBbV3QCI77uSg8oFK/YWIEPXZHlWEZ4no2+QggN0E+VZEadtVvE44a62OPfCMLVFXxCHvrsS1vFSXfGEVFp5acc3rkwkQcX7t2rTJRf/r06cnfRZWVUYV5UYUabkr9uuBe7fdmHavYD/bWUb3s/VwZDpUa0avLbRITFgkIVxGPwtC1c7gY2k2m/TDybW84b0yQPuIqvd88YJ1sD5l1LOsksqfsrYOVkJKrLJSeER3H8ciuF1QVqWLXy3IniTYBexPzErAu7zcU7nqVUcMpqndD730pVDWkfNku1yIWVTYOZUs/StnbOLfYJiBxt9Bjvghm2wT0xevqButltwCUKetiL53ijn2956VRCQG1GE485njERQPUqAvb+WhjA5XeRNujpDggBLa0RI035Ti5sCUv61lEK7GHTq0fWCqreg0qO6ZBR8ETI6Vu3LhRqNfB/Z22xugqh/xItZBNtAnYhulg4K5b3r3A7mMPHdyt8ji3Ss8JieN4xR3HT5I8rwHsptuqKIkqCuJ/JsuAUzFNCuJ82IfOtCW9lQ7J2MgzYIo9u3jxovvtF3qPK0MdB9Us2fYg+UI+SB7xb3vRbUo/A1uKTXNGbII27bn7YNuBoRKQvWLPnFzvvmtmVYHKCaiDkokbRaJ5nqYgSJgqZRMQ6ZY2qo0shN35JuEwHDtHHCoE0Fqeoo+lUgHnFNRyVJe2ERJTv00jdghsVSGBgG5cDWL5NtMmKj/fhufuIq8GYY885LtS1zG+tZ0Vp7uiEk4JFRp1lwnVBVSrkSZIQdcWZDagNOnnYpoNyN54qo7uhna4FUGthxVqgzWhr7pKQqSgLeEgmIkL8moTjp+TIP3yIIV8D6t2Og6gTB4vR8543S0TunTpUmrO0S29koSFhYVEfpr7m5+fn3yPfzeZs54Gt0TLt97shbs/7Fkj3GjiTTQJt0NJKJmAFCnYiX774vv8vyRMI2AK+bab4kWT5wUvujFCRD4eV5cGdhOTpCbRrUDma0I0bcYs84A1p9bSo3Zf6L1qBI0RkNQNGsy1CTGMiwSr2wQkwxHB7sPLxObDAWmy4qUMWOuUUAs230JVabYgNCVqp9mEhw4dip8/fy5eBXcNrgqmRJ+1bsvma1MFTxDH8bIboiHqTvl4G33GswTK6T3TI+7qPWkcrRBQvQnRHDii0pP8HlAvrtQeaslAawRUb4LVJ+3c8YDGwJqfrDPIHIJWCahek5DwzILrIQ8oDwLkKQ1VrPWCXvt20YbhmeGcrPnia4Mjkh++HmF9rYnac0k3o0m4qI93TywcGYatra2u8aBxsEZ2Zsa6WNNFcfst7YbiN+2eI98TvLS0VOtUhK6CNWFtUqTeqGz75EwR0CLiktt3bK7l5eWBiJp4rEUK8XZ0HZ/cPZZ8c/EbabiassAzS8QpxIv1momUep0ioEXEeXcgkktEaYUAdYDPOIV4rNF8Z/a1KzdqEXExi4iLi4vx+vp674jHZ+KzTSGeOCejdwQMJSKlUV2XikbapZV/dZl45io8nk0K9MjgFXt6vwv6SmjSpnJFesUKI90o9yKAbLd3+n5Ux/Rq6dVoCp0noIGeV7iiR0Zk9kIaMnK1Xb9HtgLCGdJNwb6uJFqro0OtDfSGgDaiKFrWIZwgcQcR6Z/lqmuUBgWg1Awi1XjlynEMBNJu1Hbetg70koAGURTNaSIGk9GGaWmEmHYFdFqro00opiiYLrmC541s6ADyqNEC0YbRawLa0GRc1BeElNa2tqsJt6VnLveWdDZmhoAuLEIuWK9NzdHY101aW+Z1VgjnYmYJ6IMm5YK+5qxXrrzeygtdALCnSWZet2eVbD4MBBzQKlovSB0w2xgIOKBVDAQc0CoGAg5oD0qp/wd18tH8tWLClQAAAABJRU5ErkJggg==;" parent="1" vertex="1">
          <mxGeometry x="1015.5" y="480" width="160" height="160" as="geometry" />
        </mxCell>
        <mxCell id="gwCARYgNPO8SfjRAzbcM-1565" value="" style="shape=image;verticalLabelPosition=bottom;labelBackgroundColor=#ffffff;verticalAlign=top;aspect=fixed;imageAspect=0;image=data:image/png,iVBORw0KGgoAAAANSUhEUgAAAKAAAACgCAYAAACLz2ctAAAACXBIWXMAAAsSAAALEgHS3X78AAAUc0lEQVR4nO1dv3MUxxKefeUY6eVgidhgHSmFS3JqXMW9EOwqSZllB8gRlhOkBOzIUsCPTCIAQqQqQ6qjDKSSbDlGMs4l8Q/Mq2+ZOWZHM7uzv6f35qvaOnRId7Mz33b3dPd0R5xzFhDQFv4TZj6gTQQCBrSKQMCAVhEIGNAqPgnT/xFRFI0zxnriGldecU3l/Lg9xtixuHaV113O+XGd90EJI7sLFmSbESSTr2MNff2JIONAvo4qKUeGgArhcPUZYxMeDEvFIWNsU5ByZAjZaQIK0vXFda3o55w7d45NTHzk68WLF9n4+Hjid46Pj9lff/01/Pnw8JC9e/eu6FcCW4KQm10mYycJGEXRXF7SgWSff/55fIFgY2Nj8b/xWgYnJyfszz//jF9BUPwbV05ybgkibpQajIfoDAGjKJpkjC0yxuZcbLkrV66wL774In6tgmh5IYn56tUr9scff8SvDoDtCBKucs4PGh1wTSBPwCiKZgTxUqUdJBwI9/XXX8evTRMuCyAkiPj777/Hrw4ScksQcdD64EuALAEF8ZYZY9O23zlz5gz75ptv4gtSjhIgHR8/fhxf79+/Txv5S8wDVSKSI6AL8a5evRqTDtKuC4BUBBGfP3+edjckiUiGgMLG27ART0q7H374gX366afND7AB/PPPP+zevXtZUhFEnKNiI3pPQOFKgY132/T/IB5I9/3333tn19UF2Iv379+PyZhCxBVhI3rtwvGagFEUwZWyanIajyLxdDgQEc7tRc75ZqsDTYGXBBRSb8O0sw3EOw0HIm4JteydNPSOgGKTsWny5WFz8euvv3bWxisL2Ii3bt2ybVbgQ+z7tknxioBRFEHd3tTfhw/v4cOHsf8uIBvwI3733Xc2X+Ia53zRl2n0Ih8QO9woinZN5FtYWGBv3rwJ5MsBzBXmDHNnwE3MtfAqtI7WJWAURT2RAZJQuUHqVYMUaeiFSm5VAoqkgR2dfLD1gtSrBlIaYk41YM63xRq0htYIKOy9df39X375hT19+jTscCsE5hJzirk1YF2sRStoRQVHUQQXy6z6HtwrL168IBezpQbEmL/66iuTu+YR57xxadi4BDSRD/l3UBOBfPUDc4y5xpxrmMXaCB9sY2hMAoobG+iHe5CPF1Ru84Dz+vr166Y8RBymmmnKad2kBDxFvhs3bsRqN5CveWDOMfdYAw1TYq0aQSMEFGr3FPngZgloF1gDEwnFmtWO2glosvkC+fyChYSzTZCwVgKK7X0gHwGkkLBWF01tmxDh4Ez4+QL5/AeiJk+ePNHHOV/XibxaCCjCazvqe9jtwugN8B/wExp2x1/WEbarnIAiyL2rhtfgcwq7XTqAiwYkVA/ai9hxr+pU/zoIuKvueBHhgOMz5PDRAnILL1++rEdM9jjnvSpvpNJNiDBYE+4WSL5APnrAmhlMpqmqNyWVSUCRybytvofgN1LnqQMpTUBa9YIqy3n4BKT6//TTT/qIKrMHKyGgCLMdqHYf0n8QYqMGqB5ZnaBADZcYMDtARKRCYR6ox7gRstPS/GEPTlYRrquKgJvqASIkk8LuoyQJcNYWT7tmeFcCzMe3335L9iAVNiWwB7WHcYtz3i/72aUJKI5OPlPfw9NCJZkUxMNBnozyF5VhaWmJJBGhEQxJrf8re+Sz1CZEqN6EUYpzCBTIB1ULVwPG2xT5gLt378bSRNqVVIA1NZwxWS2bvlVKAkZRtKxWLKCielOSMhvFgwcP4nIiVGBRxSuc8+Wit1CYgMLh/FZ9j4Lq9YV8EtRIaFHF54s6qMuo4ERsEIPynXx4gptWuVmA/YmHggrkzl5D4ThxIQmo+/yoRDssgfbWAR/i69evvRuXDZYoSSHfYFEJmND5FEqiwcXiI/kAuH6wOaECrDXWXEMhOzC3BDRJv7///tvrjYfFbvEOiLRQcVrDnPnss89KS8EiEvCU9POZfJgoqF4KMIS8vAXWvAopmIuAQvoNK5RC+vke64XqLdmvozFAAsIxTgVYe3BAwbTgiDPySsBEVSUK0g818yjhzp07ZEZrkYK5Km85E1D4/YbxXirSzyeXiwsgrSlFSQxS8Fqeylt5JGCC2XCe+h7xoCb9JPDgUAE4YHCkO0tB511wFEXHarrV/v6+164XpFQZTnmRASQhlYQF+AUvXLigvnXCOXeKETtJQHHCLZHr57vfDwSkDErjBxc0N9eYa9k3VxWcyPuiELukTkBq2TIGTjjlCmaqYJFucyR/hsH577//FhtlQ0BsFcdAKQOZRXDwU8LZs2f1Td9/s7KmXSQgOennktU8OTnJlpeX49cmgT7Di4uLrN9PFxCwAeFGooQiUrCTBIRRnIa5uTm2u7vLbt++zd6+fcs2NjYyCVEWvV6Pra6usoODA/bbb7+xZ8+exT/rja9VUMqSYQUJmKqCdfVLRS1YTvbHiw2yXbtm7uyKLueDwYBtbm7Gr+iCXgYzMzMxsfE6NTVl/U78Dh4IHRRPFSI+rEWeUtXwJxmflwirUC4aDhKAWGmuDbTln52djS9gb28vJgakFl4lIfEzLhAakk39Dvne9LS1meep79zZ2WErKyuxSaCCmgpmgiNa1pFsPGRELgJSaX+qLhwIgYW9efNUC5JMQGrZJFfVgDkgpaUkOjUVzARH8hAwywZM6HAqElDdhMDgL0K+NgCyqxKVogQ0CKlUO9BKQGH/DbtUwq0RigsFuEBzgU2kxYbTJCBZ+w+bpYD2YOCKtaBRGgETf0TJsQvDXsK0uwyoFwauFCJgQgJSrW9S1pUSkB8GrliTVJ0kIFQaJftPbcISCNg8wBXNDMonAcUGZMg4atJPjS4EFdwONM6M2TYiNgmYYGxooRWQFwbOFCegoa+Y19CNYIS7qEA1GShHngycMaphGwETEXLq/j+EzaigKyaDgTPGrItOquDgMG8fBs6MjgTUb56KVNFDb9RMHxVlJeDwl7sQVaDiitEfFOqSXONOLgIOU0DUqAIlUPQF6uOkOvcS2viNaUWNd0xvCqr0oKKC9XGOQn+VkSAgFagScFQSKjIJSNUQVjciSK+nAFUCUle/zJE7mQRMOzTjM3QJSCG5U/VXUt4BS7hwp7MqWF9A3+1APCAqAbsgAXWINr4JdJaA+gL6Hg3RH5AuSEAXdJaA+g6SGgG7mADCOT+lhjIJSDmfTk1K8H0joo6PWv6lDS7cySRgHc37moIqBX23AdXxUc6CUeHCnc6qYKYtJJ5GX9OycABeNRG6QkAXjAwBmcdqWB9XICBje/IflJI5dUAFqxEFlObwEahXI4Hdb1dCcBp39ky/YyPg0Hqk0uLABvWkPgjo2wP18uXLhP1HqXFhFjTuGHckmQRkREtESOhtBFCazSfoBYmo1N/JgoEzuQiY2DJSLJIjAXWmFiuHvfXo0aO2hxVja2srYf9hnF1RvwbOGN0QnZeAwM8//5zoZYGCRdh5tgnMqS6NMc6uoFIJSNkXyIQUVBcXLhmUQWuThCjFpjpql5aWOpX/Z+BMLgnYGRUsgUqjaiuBNkk4Pz+fUL3Y+YKAXYKBM8ZYqJGAoqTqUIZ2gYDAw4cPT6Xqg4SwxZoA1BLIp7pdYBo8ffq0jemoFRpnTmwt/dMc0UMpSLFiuwmIr7548eIUCaEOQYw67xHuH5BdJx/G07XUe8yj5oKxxkHTCJhwz3dFCkoS6tUTQAy0bECt5qqJuLa2Flc+Vf19knxdzHoxcMUagnKSgEz0su0KJAl1uwvSUPYO+fHHH0s7reHuOX/+fLzrVjccXSYfM3PFKgGtbRr0Fg2QGJi0rgEtsdCp3LbTh+SS7RZcKt8jsoGICySqLR0JJsDr1687N5cShjYZ1lYNWX1CDtQ60ZQ6OOYF2vpr1d2NgHRUL6a0bbAlO+BsBC4144VaH2NXwHzRTvQdcs6tNaKz2jQgej8sMQ9p0ZVQkQ41hR9kAblMOYSSbC6QbblwQSLiteswNFlMzQDJSsdKPNLUO1CmQZ04qF00jwEB0U4LKtgVIB3UNQh3dHQU9/+A1lDbL7AObep0GDiSmgOXJQETf0ythWhRyOOEslGN7DMiE0elZMS/YeeBXHk7JHXBrWWCgSPFCQjDMYoieGnj5mqwAfHkdnH3phrNurSSkIS09ZpLg/6ZWQ0VKQLc0Px/W1W0a03o8MePH3du4nTUcRhf37x1kYAGbmRmAI88AfHU3rp1K/GeTQKWhdqbGLYS5rJLqrgWAgoROgyWwn1AfTMiSYfWovBvPnjwIPH/2K3Cn1cVQDI4ttXdM/yOCwsLscvi+vXr5MkITmiupUz1y1xa9rMP/kAkrq3Ln5FVQi2ADtJhkTFRrscMQERERsr4PpHogM9xdd1gbuHqwkXJ54qH6Pnz5+pb85zzDftffIATAdkHEh6rvUP29/e9D6LnIR1cJ1CRcLuowHtwqbjubiVkwql+EArqHRfezzq4DTLijIjvvlfYsxcuXFDfQvaLkyGd51hmgs337t3L8afNwaRebeST/joQAS300UofLhbVBoTkgh8QKtRVRULqgbgq+bCxAbnhX1xfX499hPh/kNS26YFEQZr+2bNn40iNr6aPgQuZkk8ijwSEBf1W/oyAOtr3+6Am8ko6eaWN3dTBPEsa2qSeTMNKq3gF0uLvsiQj5l2qaB8kI+4ZD7tm/5235f+dAgjoeoldDZfX0tISf//+fSvXq1ev+MLCAj937hxXx2S6+v0+39jY4MfHxzwPdnd3+czMzKnPxOfpn7W5ucnHx8cTv4efV1dXc32n/Ky5ublTn6dfZ86c4Tdu3OBPnjxpbR3AAW1cm3k45SwB2QcpiJjUtvy5aSlYh6RzAfL5IA1VyQS1CakGdQ2ppyciuEg9F/gsGS3S70vOuXsJijxsFWQdNCkF9/f3a5d0Ljg4ODBKQ/2C1MIY6kBeyYi5a1j6DXLzqQABZ/SbfffuXVM32CjpTIBKtRHApJrrAu4Z35c1P3UJCKw51l77vpnaCdiEFMTNXb161RvS6YA07PV6CVsP0qkNYA6yyHjlypXKhUQV0i+3DShhsgXfvHlTmV/QkFEb21Swtaqw6aqAukvG2La3t+v+ykzAJpPZ2LpNWmUWNvx+ly9fLmf7CRQqzya+aBirwkD0eGpR3L17N0E+GPuYVCzw7OxsaESYAswN5ghzBQKq/kWE/qpaI3yORr6XRcjHStYHTNSVgNO0bL4gniwQUAITiIkskv5UNbADpdRKFb5KnYRwypdNhMUaayE3pnMhDwoTUDgaV9T34K0vE1C/c+dO4mdIPuTftQ15gB0XJRJi7nSn+P379wt/HtYWa6xhxdnpbEDZCqkInA7PLsI3p5PIFbg59VCQ6ym0JoBkApnRgnFRAuZQLYKEOS4qJLC2mv/1UHCgMEoRUKTbJE7aQMwXUcX63/hUxw8xXNhXiBX7WmU1DfphqCIxZayPnraGj3ZJuUpD6RrR8I+q+YKsoCrWz+X6YPdJSFsUV13JqnVCN2PyZmNbVO+WWPtSqKpI+ZxazAhi2jDgVKjGcZ5TaE1BHjqiCnVO825EsJaa6j0ps/FQkXUqzgni8FJf9Q1ipwSDF2XRXEAtGxgmglxUag0d88w11tCw6+2XVb0SlRCQCd9gFEVr6kF2lLxATl4XT9EhyaCLDQVVQFJiDTWsFfX5mVBpnxDO+aJejh9RjS6eAOs6sGZYOw17Yo0rQx2NavqqPQiPOc4LdPUgdheBtcKaadGOE7G2laJyAgqnZGIXgR0ubiiABrBWhmph/TIOZxtqadUl2nLOq+8hvpt3ZxzQPLBGhvp+81XafSpq6xUnjuStqe/BCz+KJIyiqNTVlFvKUqJuzeV4ZVHU2qxQGKyJrjCjSkLfYSHfo6o3HToqc8PYwDmfw1PMGJuVvyJvFFXrRwkI6eVxZiPxoYmaginkqz0eWjsB2UcSYuaHMaFRJGGe8m1NwUK+vSbIxxruFzyj+whx4/A1BRdN88CcY+5N5NO9GHWiMQIidMM57+k2IXZcgYTNQpLPsNuF2u1VFWZzQSMqWIXJJqTei44aLPPdiM2no5WW/eJG1xx+NaAZrLVBPtYWAdlHF828w68G1Iv5ul0taWiNgOyjs/qSGjtmoqk0jj0GVAPMpaGHyYk4Slmbk9kFrRKQfQzb9fQdMs7cXrp0qfXG0m2i7AEozB3mUK/yJea6V1d4LQ9aJyATCQxih5ywC2WtPurSUPr+8p4nkVKrSCY25kxvkCiwJna6lScWFEKRcgp1XsIHdayXl5icnOSDwaCV8hdlsb6+Pizh4VpOBKXh5L1vb287jwBzhLkylOg4LlK7pfb19m1AgoTjei1CtS4MarNQw8TERDx+1JTJGj/IJwsgTU9PO90pPjOlPgzmctzLtfZxUAoR+6LV+6lJRZkySkTc2dnhY2NjQ0mI8aOgESSWvFBkCO/Le5yamuJHR0epn4s5UP9Guw5EHp+/a+zz4PhHabhsq/xEiYggIUiVVVJNSr408mUQj4s581LqqVeh6lhtQNSohsvAGM3HKTVkjvhQyiMLqF5lq3iKOtTqiTsd2Nkiq0Zt/a8BRaPmvNlkZMH3J8QgEWf0+oTqhSqmdVUobRO4p4wKrQMfNxmZ60ltwK5ElHYWDHqqwNgdSvKSJJ68yKhgG0SxzEXZ0dMEqDUUFYJa86nkhwkoSg7/H1R0RncllENZ9cGZXAbkCSghbMRFUTIitYqlJCOutm1G2HSy7oyDo/pE2MGrZGy8DHSGgCpEb7t+mlRUASLKFlqQlnVlLaMBomx4jcsQn7VhS/TfaDVuWwc6SUCJKIrGBRGdyahC7kRlR3QJ2w5VJZRaUTUH0VRsCQfyZpMJok2j0wRUIcg4Iy4Q0rfCLoeCcANRcb6zpFMxMgTUoRCyp7w2VQEdthzE40C+jgrhdIwsAU0QG5lJQcZx5XVcPdHniD2RAHAsSCZfd0eVbCYEAga0Ci/yAQNGF4GAAa0iEDCgVQQCBrQHxtj/AStWR/Bx79HOAAAAAElFTkSuQmCC;" parent="1" vertex="1">
          <mxGeometry x="770" y="731.5" width="160" height="160" as="geometry" />
        </mxCell>
        <mxCell id="eKBScVQRaozHuu1WeRgE-1517" value="" style="shape=image;verticalLabelPosition=bottom;labelBackgroundColor=#ffffff;verticalAlign=top;aspect=fixed;imageAspect=0;image=https://upload.wikimedia.org/wikipedia/commons/thumb/6/6c/Government_icon_%28black%29.svg/1071px-Government_icon_%28black%29.svg.png;" parent="1" vertex="1">
          <mxGeometry x="340" y="910" width="118.75" height="113.5" as="geometry" />
        </mxCell>
        <mxCell id="C1i1qq4cqB7PHMFyISUX-1517" value="" style="shape=image;verticalLabelPosition=bottom;labelBackgroundColor=#ffffff;verticalAlign=top;aspect=fixed;imageAspect=0;image=https://mpng.subpng.com/20180326/age/kisspng-logo-graphic-design-teamwork-industrial-worker-5ab8c426afc121.1016697615220582787199.jpg;" parent="1" vertex="1">
          <mxGeometry x="1036" y="720" width="120" height="120" as="geometry" />
        </mxCell>
        <mxCell id="C1i1qq4cqB7PHMFyISUX-1518" style="edgeStyle=orthogonalEdgeStyle;rounded=0;orthogonalLoop=1;jettySize=auto;html=1;exitX=0.25;exitY=1;exitDx=0;exitDy=0;fontFamily=Comic Sans MS;fontSize=14;" parent="1" source="gwCARYgNPO8SfjRAzbcM-1543" target="gwCARYgNPO8SfjRAzbcM-1543" edge="1">
          <mxGeometry relative="1" as="geometry" />
        </mxCell>
        <mxCell id="C1i1qq4cqB7PHMFyISUX-1519" value="" style="shape=image;verticalLabelPosition=bottom;labelBackgroundColor=#ffffff;verticalAlign=top;aspect=fixed;imageAspect=0;image=data:image/png,iVBORw0KGgoAAAANSUhEUgAAAKAAAACgCAYAAACLz2ctAAAACXBIWXMAAAsSAAALEgHS3X78AAAUc0lEQVR4nO1dv3MUxxKefeUY6eVgidhgHSmFS3JqXMW9EOwqSZllB8gRlhOkBOzIUsCPTCIAQqQqQ6qjDKSSbDlGMs4l8Q/Mq2+ZOWZHM7uzv6f35qvaOnRId7Mz33b3dPd0R5xzFhDQFv4TZj6gTQQCBrSKQMCAVhEIGNAqPgnT/xFRFI0zxnriGldecU3l/Lg9xtixuHaV113O+XGd90EJI7sLFmSbESSTr2MNff2JIONAvo4qKUeGgArhcPUZYxMeDEvFIWNsU5ByZAjZaQIK0vXFda3o55w7d45NTHzk68WLF9n4+Hjid46Pj9lff/01/Pnw8JC9e/eu6FcCW4KQm10mYycJGEXRXF7SgWSff/55fIFgY2Nj8b/xWgYnJyfszz//jF9BUPwbV05ybgkibpQajIfoDAGjKJpkjC0yxuZcbLkrV66wL774In6tgmh5IYn56tUr9scff8SvDoDtCBKucs4PGh1wTSBPwCiKZgTxUqUdJBwI9/XXX8evTRMuCyAkiPj777/Hrw4ScksQcdD64EuALAEF8ZYZY9O23zlz5gz75ptv4gtSjhIgHR8/fhxf79+/Txv5S8wDVSKSI6AL8a5evRqTDtKuC4BUBBGfP3+edjckiUiGgMLG27ART0q7H374gX366afND7AB/PPPP+zevXtZUhFEnKNiI3pPQOFKgY132/T/IB5I9/3333tn19UF2Iv379+PyZhCxBVhI3rtwvGagFEUwZWyanIajyLxdDgQEc7tRc75ZqsDTYGXBBRSb8O0sw3EOw0HIm4JteydNPSOgGKTsWny5WFz8euvv3bWxisL2Ii3bt2ybVbgQ+z7tknxioBRFEHd3tTfhw/v4cOHsf8uIBvwI3733Xc2X+Ia53zRl2n0Ih8QO9woinZN5FtYWGBv3rwJ5MsBzBXmDHNnwE3MtfAqtI7WJWAURT2RAZJQuUHqVYMUaeiFSm5VAoqkgR2dfLD1gtSrBlIaYk41YM63xRq0htYIKOy9df39X375hT19+jTscCsE5hJzirk1YF2sRStoRQVHUQQXy6z6HtwrL168IBezpQbEmL/66iuTu+YR57xxadi4BDSRD/l3UBOBfPUDc4y5xpxrmMXaCB9sY2hMAoobG+iHe5CPF1Ru84Dz+vr166Y8RBymmmnKad2kBDxFvhs3bsRqN5CveWDOMfdYAw1TYq0aQSMEFGr3FPngZgloF1gDEwnFmtWO2glosvkC+fyChYSzTZCwVgKK7X0gHwGkkLBWF01tmxDh4Ez4+QL5/AeiJk+ePNHHOV/XibxaCCjCazvqe9jtwugN8B/wExp2x1/WEbarnIAiyL2rhtfgcwq7XTqAiwYkVA/ai9hxr+pU/zoIuKvueBHhgOMz5PDRAnILL1++rEdM9jjnvSpvpNJNiDBYE+4WSL5APnrAmhlMpqmqNyWVSUCRybytvofgN1LnqQMpTUBa9YIqy3n4BKT6//TTT/qIKrMHKyGgCLMdqHYf0n8QYqMGqB5ZnaBADZcYMDtARKRCYR6ox7gRstPS/GEPTlYRrquKgJvqASIkk8LuoyQJcNYWT7tmeFcCzMe3335L9iAVNiWwB7WHcYtz3i/72aUJKI5OPlPfw9NCJZkUxMNBnozyF5VhaWmJJBGhEQxJrf8re+Sz1CZEqN6EUYpzCBTIB1ULVwPG2xT5gLt378bSRNqVVIA1NZwxWS2bvlVKAkZRtKxWLKCielOSMhvFgwcP4nIiVGBRxSuc8+Wit1CYgMLh/FZ9j4Lq9YV8EtRIaFHF54s6qMuo4ERsEIPynXx4gptWuVmA/YmHggrkzl5D4ThxIQmo+/yoRDssgfbWAR/i69evvRuXDZYoSSHfYFEJmND5FEqiwcXiI/kAuH6wOaECrDXWXEMhOzC3BDRJv7///tvrjYfFbvEOiLRQcVrDnPnss89KS8EiEvCU9POZfJgoqF4KMIS8vAXWvAopmIuAQvoNK5RC+vke64XqLdmvozFAAsIxTgVYe3BAwbTgiDPySsBEVSUK0g818yjhzp07ZEZrkYK5Km85E1D4/YbxXirSzyeXiwsgrSlFSQxS8Fqeylt5JGCC2XCe+h7xoCb9JPDgUAE4YHCkO0tB511wFEXHarrV/v6+164XpFQZTnmRASQhlYQF+AUvXLigvnXCOXeKETtJQHHCLZHr57vfDwSkDErjBxc0N9eYa9k3VxWcyPuiELukTkBq2TIGTjjlCmaqYJFucyR/hsH577//FhtlQ0BsFcdAKQOZRXDwU8LZs2f1Td9/s7KmXSQgOennktU8OTnJlpeX49cmgT7Di4uLrN9PFxCwAeFGooQiUrCTBIRRnIa5uTm2u7vLbt++zd6+fcs2NjYyCVEWvV6Pra6usoODA/bbb7+xZ8+exT/rja9VUMqSYQUJmKqCdfVLRS1YTvbHiw2yXbtm7uyKLueDwYBtbm7Gr+iCXgYzMzMxsfE6NTVl/U78Dh4IHRRPFSI+rEWeUtXwJxmflwirUC4aDhKAWGmuDbTln52djS9gb28vJgakFl4lIfEzLhAakk39Dvne9LS1meep79zZ2WErKyuxSaCCmgpmgiNa1pFsPGRELgJSaX+qLhwIgYW9efNUC5JMQGrZJFfVgDkgpaUkOjUVzARH8hAwywZM6HAqElDdhMDgL0K+NgCyqxKVogQ0CKlUO9BKQGH/DbtUwq0RigsFuEBzgU2kxYbTJCBZ+w+bpYD2YOCKtaBRGgETf0TJsQvDXsK0uwyoFwauFCJgQgJSrW9S1pUSkB8GrliTVJ0kIFQaJftPbcISCNg8wBXNDMonAcUGZMg4atJPjS4EFdwONM6M2TYiNgmYYGxooRWQFwbOFCegoa+Y19CNYIS7qEA1GShHngycMaphGwETEXLq/j+EzaigKyaDgTPGrItOquDgMG8fBs6MjgTUb56KVNFDb9RMHxVlJeDwl7sQVaDiitEfFOqSXONOLgIOU0DUqAIlUPQF6uOkOvcS2viNaUWNd0xvCqr0oKKC9XGOQn+VkSAgFagScFQSKjIJSNUQVjciSK+nAFUCUle/zJE7mQRMOzTjM3QJSCG5U/VXUt4BS7hwp7MqWF9A3+1APCAqAbsgAXWINr4JdJaA+gL6Hg3RH5AuSEAXdJaA+g6SGgG7mADCOT+lhjIJSDmfTk1K8H0joo6PWv6lDS7cySRgHc37moIqBX23AdXxUc6CUeHCnc6qYKYtJJ5GX9OycABeNRG6QkAXjAwBmcdqWB9XICBje/IflJI5dUAFqxEFlObwEahXI4Hdb1dCcBp39ky/YyPg0Hqk0uLABvWkPgjo2wP18uXLhP1HqXFhFjTuGHckmQRkREtESOhtBFCazSfoBYmo1N/JgoEzuQiY2DJSLJIjAXWmFiuHvfXo0aO2hxVja2srYf9hnF1RvwbOGN0QnZeAwM8//5zoZYGCRdh5tgnMqS6NMc6uoFIJSNkXyIQUVBcXLhmUQWuThCjFpjpql5aWOpX/Z+BMLgnYGRUsgUqjaiuBNkk4Pz+fUL3Y+YKAXYKBM8ZYqJGAoqTqUIZ2gYDAw4cPT6Xqg4SwxZoA1BLIp7pdYBo8ffq0jemoFRpnTmwt/dMc0UMpSLFiuwmIr7548eIUCaEOQYw67xHuH5BdJx/G07XUe8yj5oKxxkHTCJhwz3dFCkoS6tUTQAy0bECt5qqJuLa2Flc+Vf19knxdzHoxcMUagnKSgEz0su0KJAl1uwvSUPYO+fHHH0s7reHuOX/+fLzrVjccXSYfM3PFKgGtbRr0Fg2QGJi0rgEtsdCp3LbTh+SS7RZcKt8jsoGICySqLR0JJsDr1687N5cShjYZ1lYNWX1CDtQ60ZQ6OOYF2vpr1d2NgHRUL6a0bbAlO+BsBC4144VaH2NXwHzRTvQdcs6tNaKz2jQgej8sMQ9p0ZVQkQ41hR9kAblMOYSSbC6QbblwQSLiteswNFlMzQDJSsdKPNLUO1CmQZ04qF00jwEB0U4LKtgVIB3UNQh3dHQU9/+A1lDbL7AObep0GDiSmgOXJQETf0ythWhRyOOEslGN7DMiE0elZMS/YeeBXHk7JHXBrWWCgSPFCQjDMYoieGnj5mqwAfHkdnH3phrNurSSkIS09ZpLg/6ZWQ0VKQLc0Px/W1W0a03o8MePH3du4nTUcRhf37x1kYAGbmRmAI88AfHU3rp1K/GeTQKWhdqbGLYS5rJLqrgWAgoROgyWwn1AfTMiSYfWovBvPnjwIPH/2K3Cn1cVQDI4ttXdM/yOCwsLscvi+vXr5MkITmiupUz1y1xa9rMP/kAkrq3Ln5FVQi2ADtJhkTFRrscMQERERsr4PpHogM9xdd1gbuHqwkXJ54qH6Pnz5+pb85zzDftffIATAdkHEh6rvUP29/e9D6LnIR1cJ1CRcLuowHtwqbjubiVkwql+EArqHRfezzq4DTLijIjvvlfYsxcuXFDfQvaLkyGd51hmgs337t3L8afNwaRebeST/joQAS300UofLhbVBoTkgh8QKtRVRULqgbgq+bCxAbnhX1xfX499hPh/kNS26YFEQZr+2bNn40iNr6aPgQuZkk8ijwSEBf1W/oyAOtr3+6Am8ko6eaWN3dTBPEsa2qSeTMNKq3gF0uLvsiQj5l2qaB8kI+4ZD7tm/5235f+dAgjoeoldDZfX0tISf//+fSvXq1ev+MLCAj937hxXx2S6+v0+39jY4MfHxzwPdnd3+czMzKnPxOfpn7W5ucnHx8cTv4efV1dXc32n/Ky5ublTn6dfZ86c4Tdu3OBPnjxpbR3AAW1cm3k45SwB2QcpiJjUtvy5aSlYh6RzAfL5IA1VyQS1CakGdQ2ppyciuEg9F/gsGS3S70vOuXsJijxsFWQdNCkF9/f3a5d0Ljg4ODBKQ/2C1MIY6kBeyYi5a1j6DXLzqQABZ/SbfffuXVM32CjpTIBKtRHApJrrAu4Z35c1P3UJCKw51l77vpnaCdiEFMTNXb161RvS6YA07PV6CVsP0qkNYA6yyHjlypXKhUQV0i+3DShhsgXfvHlTmV/QkFEb21Swtaqw6aqAukvG2La3t+v+ykzAJpPZ2LpNWmUWNvx+ly9fLmf7CRQqzya+aBirwkD0eGpR3L17N0E+GPuYVCzw7OxsaESYAswN5ghzBQKq/kWE/qpaI3yORr6XRcjHStYHTNSVgNO0bL4gniwQUAITiIkskv5UNbADpdRKFb5KnYRwypdNhMUaayE3pnMhDwoTUDgaV9T34K0vE1C/c+dO4mdIPuTftQ15gB0XJRJi7nSn+P379wt/HtYWa6xhxdnpbEDZCqkInA7PLsI3p5PIFbg59VCQ6ym0JoBkApnRgnFRAuZQLYKEOS4qJLC2mv/1UHCgMEoRUKTbJE7aQMwXUcX63/hUxw8xXNhXiBX7WmU1DfphqCIxZayPnraGj3ZJuUpD6RrR8I+q+YKsoCrWz+X6YPdJSFsUV13JqnVCN2PyZmNbVO+WWPtSqKpI+ZxazAhi2jDgVKjGcZ5TaE1BHjqiCnVO825EsJaa6j0ps/FQkXUqzgni8FJf9Q1ipwSDF2XRXEAtGxgmglxUag0d88w11tCw6+2XVb0SlRCQCd9gFEVr6kF2lLxATl4XT9EhyaCLDQVVQFJiDTWsFfX5mVBpnxDO+aJejh9RjS6eAOs6sGZYOw17Yo0rQx2NavqqPQiPOc4LdPUgdheBtcKaadGOE7G2laJyAgqnZGIXgR0ubiiABrBWhmph/TIOZxtqadUl2nLOq+8hvpt3ZxzQPLBGhvp+81XafSpq6xUnjuStqe/BCz+KJIyiqNTVlFvKUqJuzeV4ZVHU2qxQGKyJrjCjSkLfYSHfo6o3HToqc8PYwDmfw1PMGJuVvyJvFFXrRwkI6eVxZiPxoYmaginkqz0eWjsB2UcSYuaHMaFRJGGe8m1NwUK+vSbIxxruFzyj+whx4/A1BRdN88CcY+5N5NO9GHWiMQIidMM57+k2IXZcgYTNQpLPsNuF2u1VFWZzQSMqWIXJJqTei44aLPPdiM2no5WW/eJG1xx+NaAZrLVBPtYWAdlHF828w68G1Iv5ul0taWiNgOyjs/qSGjtmoqk0jj0GVAPMpaGHyYk4Slmbk9kFrRKQfQzb9fQdMs7cXrp0qfXG0m2i7AEozB3mUK/yJea6V1d4LQ9aJyATCQxih5ywC2WtPurSUPr+8p4nkVKrSCY25kxvkCiwJna6lScWFEKRcgp1XsIHdayXl5icnOSDwaCV8hdlsb6+Pizh4VpOBKXh5L1vb287jwBzhLkylOg4LlK7pfb19m1AgoTjei1CtS4MarNQw8TERDx+1JTJGj/IJwsgTU9PO90pPjOlPgzmctzLtfZxUAoR+6LV+6lJRZkySkTc2dnhY2NjQ0mI8aOgESSWvFBkCO/Le5yamuJHR0epn4s5UP9Guw5EHp+/a+zz4PhHabhsq/xEiYggIUiVVVJNSr408mUQj4s581LqqVeh6lhtQNSohsvAGM3HKTVkjvhQyiMLqF5lq3iKOtTqiTsd2Nkiq0Zt/a8BRaPmvNlkZMH3J8QgEWf0+oTqhSqmdVUobRO4p4wKrQMfNxmZ60ltwK5ElHYWDHqqwNgdSvKSJJ68yKhgG0SxzEXZ0dMEqDUUFYJa86nkhwkoSg7/H1R0RncllENZ9cGZXAbkCSghbMRFUTIitYqlJCOutm1G2HSy7oyDo/pE2MGrZGy8DHSGgCpEb7t+mlRUASLKFlqQlnVlLaMBomx4jcsQn7VhS/TfaDVuWwc6SUCJKIrGBRGdyahC7kRlR3QJ2w5VJZRaUTUH0VRsCQfyZpMJok2j0wRUIcg4Iy4Q0rfCLoeCcANRcb6zpFMxMgTUoRCyp7w2VQEdthzE40C+jgrhdIwsAU0QG5lJQcZx5XVcPdHniD2RAHAsSCZfd0eVbCYEAga0Ci/yAQNGF4GAAa0iEDCgVQQCBrQHxtj/AStWR/Bx79HOAAAAAElFTkSuQmCC;" parent="1" vertex="1">
          <mxGeometry x="1300" y="741.5" width="160" height="160" as="geometry" />
        </mxCell>
        <mxCell id="C1i1qq4cqB7PHMFyISUX-1520" value="" style="shape=image;verticalLabelPosition=bottom;labelBackgroundColor=#ffffff;verticalAlign=top;aspect=fixed;imageAspect=0;image=data:image/png,iVBORw0KGgoAAAANSUhEUgAAAKAAAACgCAYAAACLz2ctAAAACXBIWXMAAAsSAAALEgHS3X78AAAVx0lEQVR4nO2dv3MV1fvHz37nU0PsVUINSmgFh9CCM8QSLAhWoAXpRBtCI1gZCtCOMANacjNjbAkjY2vwR02i9ib8A/ud1+Wcy9mTs3vP/n52775ndi4JSe7ec977/H6eE8VxrAYMaAv/N6z8gDYxEHBAqxgIOKBVDAQsgSiKFrg6+wEEYHBCLERRNK+U4oJUc9Yr14mcf+6FUmpPX9vW604cxzu1fpAOYWYJqMm2oK9F/Xq4obff12TcMq9xHO819N6iMDMEjKJoThONa0kpdUTAbdnYVUqNNClnhpC9JqAm3ZK+LhT9O++88446cuQNX9977z01NzeX+Jm9vT31xx9/TL7e3d1V//zzT9G3BBuakKM+k7GXBIyiaDkv6SDZ+++/P74g2OHDh8f/5rUM9vf31e+//z5+haD8mysnOTc0EddL3YxA9IaA2qZbUUoth9hyp0+fVh9++OH4tQqi5YUh5vPnz9Uvv/wyfg0AtiMkXOuLI9N5AkZRtKiJlyntkHAQ7qOPPhq/Nk24aYCQEPGnn34avwZIyA1NxK3Wb74EOktATbxVpdSZtJ85dOiQ+uSTT8YXUq5LQDo+fvx4fL169Srrzp+xDl0lYucIGEK88+fPj0mHtOsDkIoQcXNzM+vTdJKInSGgtvHW04hnpN3nn3+u3n333eZvsAH8/fff6t69e9OkIkRc7oqNKJ6AOpSCjXfT9/8QD9J99tln4uy6uoC9eP/+/TEZM4h4S9uIokM4ogkYRRGhlDVf0HgWiecigIgEt1fiOB61eqMZEElALfXWfZ7tQLyDCCDihlbL4qShOAJqJ2Pki+XhXHzzzTe9tfHKAhvxiy++SHNWiCEuSXNSRBEwiiLU7XX3+8Twvv/++3H8bsB0EEe8evVqWizxbhzHK1KWUUQ9IB5uFEXbPvJdu3ZN/frrrwP5coC1Ys1YOw+us9Y6qtA6WpeAaSp3kHrVIEMailDJrUpAXTTw1CUftt4g9aqBkYasqQPW/Kneg9bQGgG1vffA/f6dO3fUjz/+OHi4FYK1ZE1ZWw8e6L1oBa2o4CiKCLFctr9HeOXnn3/uXM62ayDHfO7cOV+45mEcx41Lw8YloI981N+hJgby1Q/WmLVmzR1cZm90DLYxNCYB9Qfbcpt7qMcbVG7zIHh98eJFXx0izVSLTQWtG5GAaeS7dOnSWO0O5GserDlrzx44OKH3qhE0pYLXfOQjzDKgXbAHPhJqU6l21E5An803kE8WUkh4uQkS1kpA7d4P5OsAMkhYa4imNidEBzgTcb6uk4+sAshqIMKpUjoA3EWQNfnhhx/cO79SV0deLQTU6bWn9vfYGIzergAv0TQI0U5p9/yGglCH6b6T2AiVhlOnTvk+79k60naVE1Anubft9Bob0RVvl3J3iDel/6IQutKrwsNHsNohIbnjhapL/esg4Lbt8ZLhIPApuYbPFHQ+evSo7DSDIFBo8dVXX43JKBXUFn7wwQduxuRFHMeVTgOrlIC+ej4kiWR7CIlHEeeU1sdaIJ2ImB+eIoZK6wkrI6DP7iP5Tem8RPCEY3AHTiSoFdiJOGcStQSa4caNG+63K7MHKyGgznTs2HYfTw4pNoloU+qlAVMFEkq0D0nZOTYx9uB8Fem6qgg4shuIUC3YfRKdjpQwgxhQxUzfiyRgI2MPOvbxRhzHS2Vvs3QgWrdOJrrXeJIlzl7hSZZMPvDdd9+NHxJJYC898dsLeu9LoRQBtepNRMp5gqU5HSasUEdopQ7wkEgjIXvq6TFZK1u+VVYCrthN48arkwbsvSKB5DYhkYTsLXts4YjmQGEUJqAOOCfGZUhUvZBPutpNA/d9+/ZtMfeToopvlumwKyMBE7lBvF5pqpeMBjZVlwEBTQ5aAthjT2ywcJ64kBfsxvwkZjtSIvmdBOv7119/idEuKWtbKDZYVAKu2l9IHIkmLc5XBnwOPo8UsNfsuYPVIreXWwL6pJ+kp1Np1eupbes8JKU1iSwcO3astBQsIgEPSD+JjkcfIc0hqUIK5pKAXZB+pNlSZqL0An2TgnklYCLmI1H6ff311wLuoj50QArmigsGS0Ad63lpvpYo/VLKh3oHKnikNPGnSMGjoYWreSRggtnUsEmTfqjfWYCkzwkHPPWMwVIwjwTcs8ut/vzzT3Ghl7fffrszoRfOmlteXlbb29tqaytf+Ix0GNpHCogLHj9+3L6b/TiOg3LEQRJQd7glav2kkY/QS1fIt7S0NCbet99+q54+fTom4MJCeKU7ZVEMGZICuOCYPodDx76FquBE2Y3EEnJJ6ao0IPVGo5F68uRJ4vTNM2fOjEnonsCZBWmVPR5OBJVqTSWgLreZ1PvhfEis2pVQWp+FxcXFsdS7cMF/pB221NpaeA+4tAcOTsANCxdCSrVCJKB46Qckl1utrq6OVa0t9Xy4fPlysBSU+MAVkYK9IKBU9WtU7s2b3kOevMA+DIUkO1DVQUBX/ZpDnaUBL0wacCqw69JUbhryOCPE4CQBbjgFq1PV8DQJuGh/IbW/VxoBDflOnDgR8NMHfzcUEtWwhyOL/p98jVwElDpSYm9PzglUxPZ+++23mR266eFIKQImdLhUCSjFAYF8Dx4cGPyfC/Pz4dXtu7u7Fd59NfBwJNMOTCWgzv1O3Da694dRuumognxgmqdsQ6LtC0fMiDqNI1k9I1kSMGGMDIfGpGN9fb0S8imhUi0vPFxJNWyDCeiweoAG5CN+VxV2djpx0HkmPFxJJeD/Mv5QwngczvBIwsT4SKMNSMLDlVRHJEgCEtsZ7L83IFRCWm0gnx9wxYkH5lPB2micMG6Qfm9AWo0wSx5nYRbhcOZwmiOSJgETPyydgE1kBEwxQZ60WhH0wQZUfs7kImBCZEo/Ij8kDkh8LU+5kwG5WbIaFBMUyWzkRR4CSvaYPZzxquE0JySxU9IJGALidEgvNg1CsdGmEpl/c2HbQVJeuSCfZNu3iXnWReHhjPfpTyNggq19sAGNZMF2M2GTutVpEeQtz5cKD2e8EjBNBSfYKlkKhJZi9cW2ciG1FM3DGa8EnEpAx50Wh1AHpCuSBUcnDySm4wwc7uQi4MTalh5uyFOI0IU0V97KHsm9MA53vB5c4yemVw264UKRV7o0jRcvXuR+xy40Y2Wh8wTkKIgvv/zSbYjxQjoB89ipqDeGbzKXscuYSkDOeZMM3H0I+O+//443JKtoQrodGPKA8PkY3UtjusTpFDZCuDOVgEWCt22BDeFQRKY2MCHLlYpdJiDzDinB5/NJP+zQIIQ7BwgYRVGlh9G1AaQih70gFT/99NPEHRSxs5qCS0AeIKQ7DxTDwbsej/VxyycBuyPyAnDr1q3ED0mVgnjotg2IBEfNQsA+ZKLScICAdRxK3CawkWxbhBo+iXCln3T7rgjiOD5gY0y1ASV1nBWF7ZggAaX10yrnwUD19iH9GcKdqQTs2glDPrhGu0QpaJsGfem/CeFO5+OAIWBDbY+YPg5JePbsWcL+64qXWwVmgoDKmVuCtGHTpcB9IAYCKjWJVfShTVDpgeo2KK2XANbXJiDxvr44Hw53vPGvNAJOrEfJRY95QCjDPrwGKbixsdH6fa2sJMcpSx1/VwQOd7weyVQCKoFTmIqC40ZtW5Aq6TY/G2aA7RDhrffFAfGsay4CJuI10ubQFYV7xhlhApqN2gAb5M4CvHPnTgdWMQweznjzjEESUHLRY16QWbDjggSAr1y50vh9QHw7TsZ99an91cOZ4hKwTwRU+mBtNyzTJAl5LzvzQaYGAvYJHs7kkoCJwrS+qGADVDFVJT4S1m0T8h6218s9UNPYN3g44y129BJQH7M02Ym+EVDpri0qZmxADFRjHaEniH3y5MkD5ONB6GOxgcOZ/bSju7IC0RORiTvdF0/YBiEPijttSYhqpCf47t27lb0P4R4a4221a8jXx7EncMUJwaQWOmYRMFEV00cpqHTWwVXHOAfE586ePVsqY4Ik/fjjj8ferpuY7yv5lJ8rqRVWQRJQdeAgmDKACL6z1whWo5Ih4sOHD4PfAeJh6yH10gof+qhRDDxcKSQBE7/U9e6rMoCIBK3feuutsURDPSMZbRLxNd/HzoN4bn43z+znrsPDlVQCZp6WGUXRjj0nGr3e1zmB7lnD5IohXtkKakNGZglGUTT5Pg1UfUq7GfBQOg3pu3EcF5oRrVzdPUtSEInHRCwcB/6dtzkL1Q3xXr586R1k2bfYqoGHI5nFl9MImPjlPE3gXYNrt5iufkayMYD8v//+G9tzOCdp6Tu+z4GD1PZBXnd2tH0ITR8qzX3wcCRThWTNiD7wy7MiAdOkHcduuUdv0WWHmg0xTey/24dKcx88HMkkYKYEjOOYx3RSsyTtoOQqYS9cnuOykJChdnGXeqyLAG448b8NzaFUhFREJ9Tw48ePW/yI1QOjmc9kP1h1EcUmNir/6tWrvbIFPdyY2nwzswSEeLdv31bHjh0b9+Dax/03JanIwhw/fnxMxD5olloI6KphNqrLzggShw2HeBDQJp5BXUOM0v4uRKRE7Ny5c521s+GEs5ZT1a/K0ZTUeSnIxkI8JA4b7hLPDhRDlDoyFXZM0ReYRi0Ti4SIXVvjItJPhRIwjuN1uzpmc3OzM7YLxGND2ViI58IEionX2aSouneYTIkdeuH9IKTvhHSIiFmAlO4CEeECnLCwrzkzFXnaMhN/8N69e9V9ghrAxrGBEM+XxyZmBwEggonX2fG9qmfI2H/PkI4A9ZMnT8ZxQ4LdLvAoDRExF6Tmjz1cCG68zkzFJX7w9Uk3L83XVI+QwJeUmmOD7t+/rx49epTazcdGE0z2nflB2ZQhB9IQclYFcsTGBiRYff369QN/2bRo8v++QDVrTk8LKTwpNYSsOQ+IY9IcTav/cxFMQPWahOilSSSWMnIJpeSoAJ5CpJ7PqcCrhVjkd7NmXrOYtgcMYao4nMb9u0i8afcBCdOIqHT/MF1+bRMRycxlAecj85BqG3knI6zZX7DpbaoF49HiWJDcd8nHpkM6Npx02rSB60jzOtSwbU8iWUPugzNMSP8hEX0Oix3CactzZu896nfN/9N+5CKgHt02qdBkw1F5TcM4FsajdWEcCzaQjcxjJthOQVUzZHz2XyiwTzEFTLuACz6/8ZybJiJ77zz0z/KO98ulgtVrNcwqPDVfN2kLEmtC3KflUdkgbLwyB0hjh9kSBxVY9rNRR2hUKdLQzSfnAd60KRXzgVIoel3qni+TYvudzUvA3MOJ2pKCqBrsHh/57AMFy55ejnqsMhyDY2PIh0lQhnxKe852mZgLnC/WifWqE1VIP1ViOlZisg92QJ1xQaSeT9WyAdh3hDKqPDzaVpNlCWj/fl71mwVTJmZCOG76kPVynIPKYJw+B8WmPaGCi1y6zCY21/nz5+NXr15Vfm1ubsb2+3Ctrq7GOzs7cV3Y3t5OvN/e3l7hd5qbm5v8ndFoVNs9c4+si7tWrF/Ve8JeO++zVZRHuW1AAzcuqHSGpOrhOqdOnUqoXVRtE0flHz16dDI0EgegiGq344qqIntyGrARbWeFHDMdeFXBbV3QCI77uSg8oFK/YWIEPXZHlWEZ4no2+QggN0E+VZEadtVvE44a62OPfCMLVFXxCHvrsS1vFSXfGEVFp5acc3rkwkQcX7t2rTJRf/r06cnfRZWVUYV5UYUabkr9uuBe7fdmHavYD/bWUb3s/VwZDpUa0avLbRITFgkIVxGPwtC1c7gY2k2m/TDybW84b0yQPuIqvd88YJ1sD5l1LOsksqfsrYOVkJKrLJSeER3H8ciuF1QVqWLXy3IniTYBexPzErAu7zcU7nqVUcMpqndD730pVDWkfNku1yIWVTYOZUs/StnbOLfYJiBxt9Bjvghm2wT0xevqButltwCUKetiL53ijn2956VRCQG1GE485njERQPUqAvb+WhjA5XeRNujpDggBLa0RI035Ti5sCUv61lEK7GHTq0fWCqreg0qO6ZBR8ETI6Vu3LhRqNfB/Z22xugqh/xItZBNtAnYhulg4K5b3r3A7mMPHdyt8ji3Ss8JieN4xR3HT5I8rwHsptuqKIkqCuJ/JsuAUzFNCuJ82IfOtCW9lQ7J2MgzYIo9u3jxovvtF3qPK0MdB9Us2fYg+UI+SB7xb3vRbUo/A1uKTXNGbII27bn7YNuBoRKQvWLPnFzvvmtmVYHKCaiDkokbRaJ5nqYgSJgqZRMQ6ZY2qo0shN35JuEwHDtHHCoE0Fqeoo+lUgHnFNRyVJe2ERJTv00jdghsVSGBgG5cDWL5NtMmKj/fhufuIq8GYY885LtS1zG+tZ0Vp7uiEk4JFRp1lwnVBVSrkSZIQdcWZDagNOnnYpoNyN54qo7uhna4FUGthxVqgzWhr7pKQqSgLeEgmIkL8moTjp+TIP3yIIV8D6t2Og6gTB4vR8543S0TunTpUmrO0S29koSFhYVEfpr7m5+fn3yPfzeZs54Gt0TLt97shbs/7Fkj3GjiTTQJt0NJKJmAFCnYiX774vv8vyRMI2AK+bab4kWT5wUvujFCRD4eV5cGdhOTpCbRrUDma0I0bcYs84A1p9bSo3Zf6L1qBI0RkNQNGsy1CTGMiwSr2wQkwxHB7sPLxObDAWmy4qUMWOuUUAs230JVabYgNCVqp9mEhw4dip8/fy5eBXcNrgqmRJ+1bsvma1MFTxDH8bIboiHqTvl4G33GswTK6T3TI+7qPWkcrRBQvQnRHDii0pP8HlAvrtQeaslAawRUb4LVJ+3c8YDGwJqfrDPIHIJWCahek5DwzILrIQ8oDwLkKQ1VrPWCXvt20YbhmeGcrPnia4Mjkh++HmF9rYnac0k3o0m4qI93TywcGYatra2u8aBxsEZ2Zsa6WNNFcfst7YbiN+2eI98TvLS0VOtUhK6CNWFtUqTeqGz75EwR0CLiktt3bK7l5eWBiJp4rEUK8XZ0HZ/cPZZ8c/EbabiassAzS8QpxIv1momUep0ioEXEeXcgkktEaYUAdYDPOIV4rNF8Z/a1KzdqEXExi4iLi4vx+vp674jHZ+KzTSGeOCejdwQMJSKlUV2XikbapZV/dZl45io8nk0K9MjgFXt6vwv6SmjSpnJFesUKI90o9yKAbLd3+n5Ux/Rq6dVoCp0noIGeV7iiR0Zk9kIaMnK1Xb9HtgLCGdJNwb6uJFqro0OtDfSGgDaiKFrWIZwgcQcR6Z/lqmuUBgWg1Awi1XjlynEMBNJu1Hbetg70koAGURTNaSIGk9GGaWmEmHYFdFqro00opiiYLrmC541s6ADyqNEC0YbRawLa0GRc1BeElNa2tqsJt6VnLveWdDZmhoAuLEIuWK9NzdHY101aW+Z1VgjnYmYJ6IMm5YK+5qxXrrzeygtdALCnSWZet2eVbD4MBBzQKlovSB0w2xgIOKBVDAQc0CoGAg5oD0qp/wd18tH8tWLClQAAAABJRU5ErkJggg==;" parent="1" vertex="1">
          <mxGeometry x="1015.5" y="1023.5" width="160" height="160" as="geometry" />
        </mxCell>
        <mxCell id="C1i1qq4cqB7PHMFyISUX-1526" style="edgeStyle=orthogonalEdgeStyle;rounded=0;orthogonalLoop=1;jettySize=auto;html=1;exitX=0.5;exitY=1;exitDx=0;exitDy=0;fontFamily=Lucida Console;fontSize=41;" parent="1" edge="1">
          <mxGeometry relative="1" as="geometry">
            <mxPoint x="881.1999999999998" y="399.9999999999998" as="sourcePoint" />
            <mxPoint x="881.1428571428573" y="399.9999999999998" as="targetPoint" />
          </mxGeometry>
        </mxCell>
        <mxCell id="bewlppvLgTkB77JRoysf-1515" value="" style="shape=image;verticalLabelPosition=bottom;labelBackgroundColor=#ffffff;verticalAlign=top;aspect=fixed;imageAspect=0;image=data:image/png,iVBORw0KGgoAAAANSUhEUgAAAKAAAACgCAYAAACLz2ctAAAEpUlEQVR4nO3azXGzSBRGYTIQGYgMFII6DxZKobdadYdCCKy0hQwIgRCgnMCdxYxdXzHWz2iqeWl0TtVd+6p5yi5aLoxIWKFegD47AJI0AJI0AJK07AEWRfHRk3tZfwL1w9/K5FyW26sf+FYnx7Lb+tEDqKrKnHPmvbcY467Ge2/OOauqalcIs9r43qE756zve/V6q9X3vTnndoEwq21/O+ymadRryWqaBoBrBb7fyx1hNpsuDzjGqF5pM8UYAZiy5eGWZWnzPKvX2kzzPFtZllkizGLL5cF679UrbS7vPQBTtTzYtm1X+9njOFrXdW/NOI6r7dm2LQBTtTzYNa9cQghvXwyHEFbbs+97AKYKgM8DYMIA+DwAJkwJsOs6CyG8NV3XrbYnABOmBJhLAEwYAJ8HwIQB8HkATBgAnwfAhAHweQBM2COA/+ctNfcZhuHnHACYsHsAx3F8+45uL/P9dR8AE3YPYNd1cgDq+b5rBGDCAAhAaa8CrOvabrfbrqeuawCu3asAr9erfX197Xqu1ysA1w6AAJQGQABKAyAApQEQgNIACEBpAASgNAACUBoAASgNgACUBkAASgMgAKUBEIDSAAhAaQAEoDQAAlAaAAEoDYAAlAZAAEoDIAClARCA0gAIQGkABKA0AAJQGgABKA2AAJQGQABKAyAApQEQgNIACEBpAASgNAACUBoAASgNgACUBkAASgMgAKUBEIDSAAhAaQAEoDQAAlAaAAEoDYAAlAZAAEoDIAClARCA0gAIQGkABKA0AAJQGgABKA2AAJQGQABKAyAApQEQgNIACEBpAASgNAACUBoAASgNgACUBkAASgMgAKUBEIDSAAhAaQAEoDQAAlAaAAEoDYAAlAZAAEoDIAClARCA0gAIQGkABKA0AAJQGgABKA2AAJQGQABKAyAApQEQgNIACEBpAASgNAACUBoAASgNgACUBkAASgMgAKUBEIDSAAhAaQAEoDQAAlAaAAEoDYAAlAZAAEoDIAClARCA0gAIQGkABKA0AAJQGgABKA2AAJQGQABKAyAApb0KsK5ru91uu566rgG4dq8C/MQB4AoBEIDS7gEcx1EOQD3jOJoZAJN2D6CZ2TAMFkL4yBmG4eccAJiwRwDp7wCYsC0CHMfRuq6zrut+/gwqA2DCtgRwmiY7n8//2ul8Pts0TbK9AJiwrQCcpskOh8PdF4LD4SBDCMCEbQXg5XJ5+lZ6uVwkuwEwYVsB+OrViCIAJmwLAP/Lpff35fCaATBhWwA4DMPLAP+8n1srACZsCwDN7OELyJ8vIooAmLDlwbZtK9kjhPAUYAhBslvbtgBM1fJgvfeyXU6n0118p9NJtpf3HoCpWh5sWZY2z7NsnxCCHY/Hn32Ox6PsN5+Z2TzPVpYlAFO2PNwYo3qlzRRjzBKfWcYAi6KwpmnUa8lrmmYzd5HvlM+mBsJlueMz2wHAoijMObeJ/5BZq77vzTl39zxyKq9t7fHXYVVVmXPOvPcWY9zVeO/NOWdVVT08g9zKb2N7/TvZT5scy3Prf1I/8K1MzuW9vYEw9/L/BL+kRgG219vnp6JsAiBJAyBJAyBJ+wu/3jKL/46AcwAAAABJRU5ErkJggg==;" parent="1" vertex="1">
          <mxGeometry x="840" y="530" width="160" height="160" as="geometry" />
        </mxCell>
        <mxCell id="bewlppvLgTkB77JRoysf-1516" value="" style="shape=image;verticalLabelPosition=bottom;labelBackgroundColor=#ffffff;verticalAlign=top;aspect=fixed;imageAspect=0;image=data:image/png,iVBORw0KGgoAAAANSUhEUgAAAKAAAACgCAYAAACLz2ctAAAEC0lEQVR4nO3dy23yQBSGYXcw6cTuYNKJKcHbrGglHcwqa9OBS3BKsNLA/CsiRAyM7fPr84H3lb5VIOHyiFskU2UiYZX6AtBrB0CSBkCSBkCSBkCSBkCSBkCSBkCSBkCSBkCSBkCSBkCSBkCSBkCSBkCSBkCSBkCSBkCSBkCSBkCSBkCSBkCSBkCSBkCSBkCSBkCSBkCSBkCSBkCStgpgVVWM/dl/B6i+gszHzAGqrxDzOROA9/5ACCHHGNkLL4SwCeHdU9z6pTHGnFIqEk7PX0opxxhXIVwEMIQAPLpZSmn2EfFeN386h28Yhs0X8nQ6MYebpqno/h2GYRHCYoB93y/Gdt3hcJC/MGbr1jRN/v7+Lrqf+77fBvD6zG3brgJ3Wdd18huRbdvb21vx/d22bRHCIoDjOK5Cd9n7+7v8BmTbV9o4jjYA67peJ+6qS4AfHx/55+eHOdjX19cqgDnnXNf1doDH43ExtrkA6HNbAB6PRwAyAOacAeh1AGQAtAiAPgdABkCLAOhzAGQAtAiAPgdABkCLAOhzAGQAtAiAPgdABkCLAOhzAGQAtAiAPgdABkCLAOhzAGQAtAiAPgdABkCLAOhzAGQAtAiAPgdABkCLAOhzAGQAtAiAPgdABkCLAOhzAGQAtAiAPrdrgNM0/R5F/VEA9LldApymafag413X3TycPwB9bncAp2nKTdP8wXde0zSzCAHoc7sDWPJdH13XAfBJtiuA0zQ9xFdV898nAUCf2xXA0+lUBLCqqj9vTADocyUAPz8/8+FwACB7coA8Bb/edvUUnDNvQl5tuwPIxzCvtd0BPCPkg+jX2C4BXkLkX3HPvV0DXBIAfQ6ADIAWAdDnAMgAaBEAfQ6ADIAWAdDnAMgAaBEAfQ6ADIAWAdDnAMgAaBEAfQ6ADIAWAdDnAMgAaBEAfQ6ADIAWAdDnAMgAaBEAfQ6ADIAWAdDnAMgAaBEAfQ6ADIAWAdDnAMgAaBEAfQ6ADIAWAdDnAMgAaBEAfU4OsK7r5dpmAqDPbQFY1/V2gFVV5XEcF4O77hIg87vSxnEsOm8RwLZtV6G7bO6g5szXmqYpvr/btl0PMOe/CPu+X4zuupLvGGH73K2v35ir7/sifDkvABhCyMMwLFd31fmo+szXSvENw5BDCNsB5jyPMKW0TBy9TCmlRfhyXgjwvBgjEOm3lFKOMd70cq+Hb2vuvS4IIeQYI3vhzT3ileIrAvgIIWO3VmSr6FRAZAu2yNSiUwOR3dkqS6vORWQUAEkaAEkaAEkaAEkaAEkaAEkaAEkaAEkaAEkaAEkaAEkaAEkaAEkaAEkaAEkaAEkaAEkaAEkaAEkaAEkaAEkaAEkaAEkaAEkaAEkaAEkaAEkaAEkaAEnaP+EzgQRP/7l+AAAAAElFTkSuQmCC;" parent="1" vertex="1">
          <mxGeometry x="796" y="910" width="160" height="160" as="geometry" />
        </mxCell>
        <mxCell id="bewlppvLgTkB77JRoysf-1517" value="" style="shape=image;verticalLabelPosition=bottom;labelBackgroundColor=#ffffff;verticalAlign=top;aspect=fixed;imageAspect=0;image=data:image/png,iVBORw0KGgoAAAANSUhEUgAAAKAAAACgCAYAAACLz2ctAAADmElEQVR4nO3dwVHiYACG4XSgFdhCKmCgI7lyytkTJaQFT1xjB9ABdgBjA/+elll3ZFaW4JeQ5535DqAHkEcGJEJVpGBV+gJo2gGoaAAqGoCKBqCiAahoACoagIoGoKIBqGgAKhqAigagogGoaAAqGoCKBqCiAahoACoagIoGoKIBqGgAKhqAigagogGoaAAqGoCKdhZgVVVmve0igOkLa/c5AC2+iwHWdV3m87nZxavr+nqAXdd9edcp/auu624DcL/f931ZdYfdBGDbtqWqqtK27em85XJZdrvd6fRutyvL5bKfa6HR1jvAw+FQHh4eTo8NSynl7e2tVFVVFovF6fsWi0V5fHws7+/vPV8ljamb3ANut9syn8/L4XA4nff6+lqOx+Pp9PF4/HSPqGl2s8eA0nfqBeB6vS5d15ldvPV6fT1Asz4HoEUHoEV3MUAvxdn/zktxitZ1/gyjYAAqGoCKBqCi3Qzg8/Nz/BnWkPfnkUJT7mYA5/N5/O9JQ17TNH3flqMMQACjAThAgF3XlaZp7mrnjpD/MYAfHx+T3maz+TbApmnivyB979wTVQABBHAKAxDA0QD0GBDAKMApBSCA0QAEMBqAAEYDEMBoAAIYDUAAowEIYDQABwhwv99f/Y4DQ9uf7xME4MABeikOQAABvK8BCOBoALZtG/+flb633W4BHAvAKQUggNEABDAagABGAxDAaAACGA1AAKMBCGA0AAcI0MEIAEYBeikOQAABvK8BCOBoADoYAcAowCkFIIDRAAQwGoAARgMQwGgAAhgNQACjAThAgH//7O5h564vgAACOIUBCOBoAc5ms9Ht6ekJwCHtGoDpy/4/W61WAA5pAAIIIIDTHYAAAgjgdAcggAACON0BCCCAAE53AAIIIIDTHYAAjhbgarUa3WazGYBDmsOxAAQQwOkOQABHA3C73ZZuAO/p1+f2+z2AYwE4pQAEMBqAAEYDEMBoAAIYDUAAo/0YwM1mM+m9vLx8G6CPabgBQPs8b1IOYHQAAhgdgDcG2LZtaZrGzuzcDfL7Z3fu4w7Guh//mAbpOwGoaAAqGoCKBqCi9QKwruv4sywb5+q6vh6gWZ8D0GL70tqX50JoPe+ss7NfkX4gABUNQEUDUNEAVDQAFQ1ARQNQ0QBUNAAVDUBFA1DRAFQ0ABUNQEUDUNEAVDQAFQ1ARQNQ0QBUNAAVDUBFA1DRAFQ0ABUNQEUDUNEAVLRf3r++aSyysjkAAAAASUVORK5CYII=;" parent="1" vertex="1">
          <mxGeometry x="1210" y="560" width="160" height="160" as="geometry" />
        </mxCell>
        <mxCell id="bewlppvLgTkB77JRoysf-1518" value="" style="shape=image;verticalLabelPosition=bottom;labelBackgroundColor=#ffffff;verticalAlign=top;aspect=fixed;imageAspect=0;image=data:image/png,iVBORw0KGgoAAAANSUhEUgAAAKAAAACgCAYAAACLz2ctAAAJvUlEQVR4nO2dL5KrTBDAc4PkBFROQO0FqOIAiHjM6qhY3FhcZOQ6LAqNwa/Br+AAVC7Qn3gfeXlsQwj/unvoX1WrV/u2m/ntMAMzww4UhZAddQLKtlEBFVJUQIUUFVAhZbMC7nY7klD+xeorQiWZCjocKyumlkglHI511VLLoyK+h1VVTmls3/fB9324XC5gjAFjDHx9fUGe54MiTdPHzxljHv/f4XBQCXuwpsKuBjwcDuD7Pnx+fj7kaKT5+flZLb+6rh+/93q9gjEGLpcL+L4Px+NRBZQO1njGGOq0BpOmaWdvaTNWVCddvoY0TVVAiWCNVtc1dVqj+Pj4UAGlgU0opGKMUQGloQLKxYrqsJmvVE6nkwooDZsG7r7vW1PLEKyoziYBdRIiEEzAPM+p0xqFTX9MQ7CiOhVQLtZUpwLKxJrqVECZWFOdCigTa6pTAWViRXU6CZGLFdVhjfb9/U2d1ihUQIHY1Gj6JkQg+i5YLlZUp6th5GJFde0Gk7gauiHPc6uGFK8QXxnWWGmaUqc1mrquVUBJYI215m63JcB2ydmK+MpsmoA0bGkiIr6ydkOdTifqlCazpYmI+MpsmoA0bGkiIroqrJGu1+vg4zS4xpb2B4uuCmskm8NGRFdFLYQKOB2xVVHLoCLOg7hqqBufS9iCqEpeNYrjOBBFEWRZBvf7XWQURQFxHIPneZuQUEwVfQ3huq5o6bqiLEsIgsBqCcVU0NUAcRyTi7J0ZFkG+/3eSglFZI9d9P1+D0VRkMuxZm/ouq4KuDYq39+oqso6Cdlnjl3s2+1GLgNVFEXReTuWCOussYscBAG5BNQRx7EKuAbYRS7LklwADuE4jgq4NO0LHIYhecNzidvtZkUvyDZj7OImSULe8FyiqioVcEmwi0vd6NwCe1siDbYZty+s53nkDc4tzuezCrgUXAVMkgSiKHq8c86yDKqqIskliiIVcCnaF/Z8PpPLh/U4TTiOA2EYwu12W01IbCIiDbYZty9sFEXkAva9j8WeVy69QCLLMhVwKTgKGIbhYAGfe8alZu+YgNKEZJshRwGrqoI4jiGKIvA8DzzP63w3i41h536IPkRA7iKyzYyjgK9kOJ/P6BuKJvb7/azLx/rGpCrgRLgKWJbly9lvURS9t+swDCdPVIqieGsowBW2mXEUsOv1l+d5EEXRryVifSuaXdedJOHQW78KOBKOAg6ZBbuu+2u5WJIk6M+OlbDrD6E5F1HS0R5sM+Mo4JCNQk20Z79di0nHSNg1zlQBZ4SjgFVVQRAE4Hle72TjOYIgeAhWVRU6NnxnjWNX76cCzgxHAbEoigJut1vv7jXHcf4ZH2ISDp0d9/0eFXBGpAj4HGVZds5+2/tYsNvxkH0ufeNQFXBGJAr4LCI2XnyWsKqqXzK9WnDRtQZQBVwAyQI2gT0odhznMSbE3mT0bbh69eZDBZyRKQKWZcnmiA5s0vA86WiP6RzHUQE5MFbAsiz/ubVxWMaP9YRNXmVZDu4FX739UAFnZKyA7cbmcutujwmfb8XtiUvfWFAFXImxArYH9lw2sbd75t3u76MXrBfsWjnT9wpOBZyRMQK2x0j7/Z5cvOdoL6F/Hu+1xep6Lti3AkYFnJExArYbmNs+YuwxSvNYpn3aQdfbEay3VAEXYIyA7XEWl9vvc7THe81el/YEo6/37nrYrQLOyBgBh46jKCNJkn9ydF23M/+uNyPYeHK328HxeARjjKhvDrPN7F0BsVsTtWxYYLfh5t/aPXjfc0xsS2ZfcIVtZu8K2J6APPcs3KK9kqYRrf1Q+lXN7yxK5QrbzKYKyGUjOxZdPV27V3tVc/t2rgLOiAr4fs0q4IyogOMElAbbjFVAFZAUnYSogKS8K+DWHsN0CShNSLYZvivg/b6dB9HvCMhdQrbZjRFwK6/i3hWQs4RsMxsj4BYWI6iAKzFGwDG9yJoxx3IsFXAlxgh4v/+eYXK5Dc+1IFUFXImxArYXbHJ5HjjXknwVcCXGCoj1JtS74+balKQCrshYAbEepW+r49Ix57ZMFXBFpgiI9SoUu+Pm3piuAq7IVIGwxl/rG8NLHc2hAq7IVAGrqvo1I97v973H6jZChGE46i3K0MOJus4KfPcPRAVckDluoVgDdR0IifVYrutCHMe9Yqx9PJsKuBJzjeGwvROYhH0CPfdizecZqA6oVAFXYi4Bu3qc9nl9XeO2sbHkEb0q4ArMKWCXhNitL8uySSKucUi5CrgCcwvYJ6Hrur8eVpdlCXEcQxAEL0/Hp/hMgwq4MEsIeL/376f1PK/3OLfmAzUcPlSjAi7MUgL23RKfx2/n8xmSJBksCsWnulTABVlSwPu9e0baJWQz+w2CAMIwfHs2rB8rxGGb2dICPjfinLNfTF7Kz7WqgCNZS8AmmnHbOx+l7guqD1ZLkg9AkIDN3ok1IkkSOJ/Pb5294jgOhGEIt9ttlgnGkOj7apIE+QAECUi5sLSZ9TYfq27i1Wx46cBm9NJgmzEnAbkGtuJHGmwzxm4n1A3OLbDJkzTYZowJyOGbH1yi67Nd0mCdcfvictvnSxldExBpsM4Yu8Acj9ugCOwBuERYZ931fI268amjfYqCCrgg2IXmstmcIp63DqiAK4Bd6PZi0q1E16JWqfIBCBAQQCW83/+sLbRNPgAhAgLgEu524zbzSIssy3rfUUtGTPZ97zuxFc02RN+KahvkAxAkIEC/hLvdnwUBXL6UPjaKooA4jgctEbMBcVW8apSthC2IrYRaAJVvHkRXQy2Cijcd0VVRC6ECTkd0VVgjXa9XyPNcdKRpqgJKod1IxhjqlCaT57kKKIV2I51OJ+qUJmOM2YR8ABYKeDgcqFOazOl0UgGlgN2qfn5+qNOaxPF4VAGlgAmYpil1WqOp63oz4z8ACwQEsGsisqUJCIClAvq+T53SaLY0AQGwVEDJE5EtTUAALBVQcqP5vm9NLUOwojpMwO/vb+q0RmHTH9MQrKgOa7Q8z6nTGoUKKBQVUCbWVKcCysSa6lRAmVhTnQooEyuq00mIXKyoTgWUixXV2dRoHx8f1tQyBCuqs0lAfRMiEH0XLBcrqtPVMHKxojoVUC5WVIeNAeu6pk5rFDoJEQgmoMRV0VvaD9xgTXXSJUzTFA6HgwooFazhmhmx7/twOp3AGAPGmMcJBGvunqvr+vF7r9crGGPg8/MTfN9Hd8FtQT4AiwQEmHZWjO/74Ps+XC6Xh6hfX19vHafR/Jwx5vH/dfVqQ8N2rKtwSmNziy1gZZXU4qh4w7G6WmqRVL7XbK/i/1HBeKBX5E1UpHnRK6mQogIqpKiACikqoELKf/5Xtt77L7p3AAAAAElFTkSuQmCC;" parent="1" vertex="1">
          <mxGeometry x="1210" y="950" width="160" height="160" as="geometry" />
        </mxCell>
        <mxCell id="bewlppvLgTkB77JRoysf-1521" value="" style="shape=image;verticalLabelPosition=bottom;labelBackgroundColor=#ffffff;verticalAlign=top;aspect=fixed;imageAspect=0;image=data:image/png,iVBORw0KGgoAAAANSUhEUgAAAgAAAAIACAYAAAD0eNT6AAAgAElEQVR4nO3d3XNT97nocf9FZzeWcruLe3nOdq4L+/Zg9/rQ6x13piEE/EKSksRKQ7vTxCRpSLsr8kKwscFvgGUINgRkIGADBpEGHCUbe0Z75jkXsmy9rCWt99/L+j4zz03CTLVEJ5+vltZa6urq6pKw+7/+tO6yD1v3uNs+8Lj3q/te+/2X99a87x9XPe49b/vuPfmXd+/62O/ab65+7/jY28476ry/GL3lY1ca951OW/S5N+UXb/vZG973rRvyi7e+9bnXve2x3X3h2LUAu+y+f3DbpQB7tXXf7LTfBNwr1X3D714OtN2vLwbcgr89Wr8LIfaStx1x2osR7AX3Hfay86E2MzzXukNBdjaCnanuYBQ7HW6P1O/5lo3C7q7o0Qd/8Ad/8Ad/8Af/uPCPMAaihh/8wR/8wR/8wR/8k8A/ZAhECT/4gz/4gz/4gz/4J41/wBAAf/AHf/AHf/AHfxvw9xkB4A/+4A/+4A/+4G8L/j4iAPzBH/zBH/zBH/xtwj9z5JxkjpwLFgDgD/7gD/7gD/7gby7+HiIA/MEf/MEf/MEf/G3Ev0MEgD/4gz/4gz/4g7+t+LeJAPAHf/AHf/AHf/C3GX+XCOAhP+AP/uAP/uAP/rbj7xoA4A/+4A/+4A/+4G8v/g4R4DUAwB/8wR/8wR/8wd9k/FsCAPzBH/zBH/zBH/ztxz9zuLoeAwD8wR/8wR/8wR/8bcHfYwCAP/iDP/iDP/iDv0347wQA+IM/+IM/+IM/+KcH/50IAH/wB3/wB3/wB/904e8SAOAP/uAP/uAP/uBvM/6Zw1PNAQD+4A/+4A/+4A/+tuPfFADgD/7gD/7gD/7gnwb86wIA/MEf/MEf/MEf/NOC/3YAgD/4gz/4gz/4g3+a8HcOAPAHf/AHf/AHf/C3Gv/WAAB/8Ad/8Ad/8Ad/6/FvDADwB3/wB3/wB3/wTwX+uwEA/uAP/uAP/uAP/qnBvxoA4A/+4A/+4A/+4J8q/NsEAPiDP/iDP/iDP/jbir9LAIA/+IM/+IM/+IO/zfg7BAD4gz/4gz/4gz/4245/UwCAP/iDP/iDP/iDfxrwrwsA8Ad/8Ad/8Ad/8E8L/tsBAP7gD/7gD/7gD/5pwt9HAIA/+IM/+IM/+IO/Lfh7DADwB3/wB3/wB3/wtwl/DwEA/uAP/uAP/uAP/rbh3yEAwB/8wR/8wR/8wd9G/NsEAPiDP/iDP/iDP/jbir9LAIA/+IM/+IM/+IO/zfhnD082BwD4gz/4gz/4gz/4245/UwCAP/iDP/iDP/iDfxrwrwsA8Ad/8Ad/8Ad/8E8L/tsBAP7gD/7gD/7gD/5pwn83AMAf/MEf/MEf/ME/NfhXAwD8wR/8wR/8wR/8U4V/xwAAf/AHf/AHf/AHf/vwbxsA4A/+4A/+4A/+4G8n/q4BAP7gD/7gD/7gD/724u8YAOAP/uAP/uAP/uBvN/4tAQD+4A/+4A/+4A/+9uPfEADgD/7gD/7gD/7gnw78s69tBwD4gz/4gz/4gz/4pwf/7GuT0gX+4A/+4A/+4A/+6cLfXwCAP/iDP/iDP/iDvxX4ew8A8Ad/8Ad/8Ad/8LcGf28BAP7gD/7gD/7gD/5W4d85AMAf/MEf/MEf/MHfOvzbBwD4gz/4gz/4gz/4W4m/ewCAP/iDP/iDP/iDv7X4OwcA+IM/+IM/+IM/+FuNf2sAgD/4gz/4gz/4g7/1+GdfO1sXAOAP/uAP/uAP/uCfCvx3AwD8wR/8wR/8wR/8U4N/NQDAH/zBH/zBH/zBP1X4+wgA8Ad/8Ad/8Ad/8LcFf48BAP7gD/7gD/7gD/424e8hAMAf/MEf/MEf/MHfNvw7BAD4gz/4gz/4gz/424h/mwAAf/AHf/AHf/AHf1vxdwkA8Ad/8Ad/8Ad/8LcZf4cAAH/wB3/wB3/wB3/b8W8KAPAHf/AHf/AHf/BPA/51AQD+4A/+4A/+4A/+acF/OwDAH/zBH/zBH/zBP034ew8A8Ad/8Ad/8Ad/8LcGf28BAP7gD/7gD/7gD/5W4d85AMAf/MEf/MEf/MHfOvzbBwD4gz/4gz/4gz/4W4m/ewCAP/iDP/iDP/iDv7X4OwcA+IM/+IM/+IM/+FuNf2sAgD/4gz/4gz/4g7/1+DcGAPiDP/iDP/iDP/inAv/dAAB/8Ad/8Ad/8Af/1OBfDQDwB3/wB3/wB3/wTxX+2wEA/uAP/uAP/uAP/mnCP/vahJ8AAH/wB3/wB3/wB38b8PcRAOAP/uAP/uAP/uBvC/4eAwD8wR/8wR/8wR/8bcLfQwCAP/iDP/iDP/iDv234dwgA8Ad/8Ad/8Ad/8LcR/zYBAP7gD/7gD/7gD/624u8SAOAP/uAP/uAP/uBvM/4OAQD+4A/+4A/+4A/+tuOfPdQQAOAP/uAP/uAP/uCfBvzrAgD8wR/8wR/8wR/804L/dgCAP/iDP/iDP/iDf5rw7xwA4A/+4A/+4A/+4G8d/u0DAPzBH/zBH/zBH/ytxN89AMAf/MEf/MEf/MHfWvydAwD8wR/8wR/8wR/8rca/NQDAH/zBH/zBH/zB33r8GwMA/MEf/MEf/MEf/FOB/24AgD/4gz/4gz/4g39q8K8GAPiDP/iDP/iDP/inCv+mAAB/8Ad/8Ad/8Af/NOBfFwDgD/7gD/7gD/7gnxb8twMA/MEf/MEf/MEf/NOEv88AAH/wB3/wB3/wB38b8PcRAOAP/uAP/uAP/uBvC/4eAwD8wR/8wR/8wR/8bcI/e2i8UwCAP/iDP/iDP/iDv234dwgA8Ad/8Ad/8Ad/8LcR/zYBAP7gD/7gD/7gD/624u8SAOAP/uAP/uAP/uBvM/4OAQD+4A/+4A/+4A/+tuPfFADgD/7gD/7gD/7gnwb86wIA/MEf/MEf/MEf/NOC/3YAgD/4gz/4gz/4g3+a8HcPAPAHf/AHf/AHf/C3Fn/nAAB/8Ad/8Ad/8Ad/q/FvDQDwB3/wB3/wB3/wtx7/xgAAf/AHf/AHf/AH/1TgvxsA4A/+4A/+4A/+4J8a/KsBAP7gD/7gD/7gD/6pwt81AMAf/MEf/MEf/MHfXvwdAwD8wR/8wR/8wR/87ca/JQDAH/zBH/zBH/zB3378GwIA/MEf/MEf/MEf/NOB/04AgD/4gz/4gz/4g3968M8eGpcu8Ad/8Ad/8Ad/8E8X/j4DAPzBH/zBH/zBH/xtwN9HAIA/+IM/+IM/+IO/Lfh7DADwB3/wB3/wB3/wtwl/DwEA/uAP/uAP/uAP/rbh3yEAwB/8wR/8wR/8wd9G/NsEAPiDP/iDP/iDP/jbir9LAIA/+IM/+IM/+IO/zfhnD51pDgDwB3/wB3/wB3/wtx3/pgAAf/AHf/AHf/AH/zTgXxcA4A/+4A/+4A/+4J8W/LcDAPzBH/zBH/zBH/zThH/21eYAAH/wB3/wB3/wB3/r8W8MAPAHf/AHf/AHf/BPBf67AQD+4A/+4A/+4A/+qcG/GgDgD/7gD/7gD/7gnyr8PQQA+IM/+IM/+IM/+NuGf4cAAH/wB3/wB3/wB38b8W8TAOAP/uAP/uAP/uBvK/4uAQD+4A/+4A/+4A/+NuPvEADgD/7gD/7gD/7gbzv+TQEA/uAP/uAP/uAP/mnAvy4AwB/8wR/8wR/8wT8t+G8HAPiDP/iDP/iDP/inCf8AAQD+4A/+4A/+4A/+puPvMwDAH/zBH/zBH/zB3wb8fQQA+IM/+IM/+IM/+NuCv8cAAH/wB3/wB3/wB3+b8PcQAOAP/uAP/uAP/uBvG/4dAgD8wR/8wR/8wR/8bcS/TQCAP/iDP/iDP/iDv634uwQA+IM/+IM/+IM/+NuMv0MAgD/4gz/4gz/4g7/t+DcFAPiDP/iDP/iDP/inAf+6AAB/8Ad/8Ad/8Af/tOC/HQDgD/7gD/7gD/7gnyb8qwEA/uAP/uAP/uAP/qnCP/vq134CAPzBH/zBH/zBH/xtwN9HAIA/+IM/+IM/+IO/Lfh7DADwB3/wB3/wB3/wtwl/DwEA/uAP/uAP/uAP/rbh3yEAwB/8wR/8wR/8wd9G/NsEAPiDP/iDP/iDP/jbir9LAIA/+IM/+IM/+IO/zfg7BAD4gz/4gz/4gz/4245/UwCAP/iDP/iDP/iDfxrwrwsA8Ad/8Ad/8Ad/8E8L/tsBAP7gD/7gD/7gD/5pwt9fAIA/+IM/+IM/+IO/Ffh7DwDwB3/wB3/wB3/wtwZ/bwEA/uAP/uAP/uAP/lbh3zkAwB/8wR/8wR/8wd86/NsHAPiDP/iDP/iDP/hbib97AIA/+IM/+IM/+IO/tfg7BwD4gz/4gz/4gz/4W41/awCAP/iDP/iDP/iDv/X4NwYA+IM/+IM/+IM/+KcC/90AAH/wB3/wB3/wB//U4F8NAPAHf/AHf/AHf/BPFf7bAQD+4A/+4A/+4A/+acI/QACAP/iDP/iDP/iDv+n4+wwA8Ad/8Ad/8Ad/8LcBfx8BAP7gD/7gD/7gD/624O8xAMAf/MEf/MEf/MHfJvw9BAD4gz/4gz/4gz/424Z/hwAAf/AHf/AHf/AHfxvxbxMA4A/+4A/+4A/+4G8r/tmDjgEA/uAP/uAP/uAP/jbjnz14ujkAwB/8wR/8wR/8wd92/JsCAPzBH/zBH/zBH/zTgH9dAIA/+IM/+IM/+IN/WvDfDgDwB3/wB3/wB3978e8ZmZL+sUUZGi9KbuY7mVp5IoXVp1JYfSrlrYq4TXmrsvPn8kvrkpu+IwOnrkv/hwXj8XcMgP/9lxV5Z+HJ7l4Ku6WE9nHrXoxrH8Wy/+fP1+Q/ztxr/XcX1mVUyT5s2f2f3owV//1/vSGj8w8U7/2dffmr29I9PN/wzwLvnN9d87y97xZixX/gyxUZnVsNv7PRbN9HV6Xvo6t1/+ye1jvwxU3pO/GN9J+4srPgHx/++45flKHxokytPJH1jU1X4MNOsVSW/NK6DJy6Lr1vzRiFv2MA/N+/34vtzWLaz/6TK1J48JPql9F2Ri88jPWT/+j8A9WH2DCF+z9K9/C86pfRcfo+uRbrJ//C2obqQ2yYGvw2zPrGphTWnkl++ZHkZu9K/4kr0vvOPPj73AMnr0p+ab3tJ/ok/i7HFlblwMlvtMefANBs7AiAcKf9CYBg4xwA0Z32JwCSn/JWRaZWvpfcTDUKwL91+8cWlaPvNuWtiowtrMq+4/Na4k8AaDbmB0D47/wJgGDTGgDRfuevXwBUT62naWpBMPD5Dek5Op1a/HtGpmRovBjrqf2op1gqy8Cpa1rhTwBoNmYHQDQX/BEAwaYxAKK/4I8A0G+qMfBtavDvGZmS3Mx3Wn7a9zrrG8/jDwGP+BMAmo25ARDd1f4EQLDZDYB4rvYnAPSd6qnm+9L7zpyV+NsAf/PEFgI+8G8NgGMEgMoxMwCivdWPAAg21QCI71Y/AsCMyS8/kv4Tl63Bf+Dz61bB3zzrG8+l/8MFJfg3BsCxWgDcVf2epHbMC4Do7/MnAIJN3yfLsd7nTwCYNYW1ZwHOCOiDf+/bM1JYfar6bUxsplZK0jNyNlH8dwPgGAGgw5gVANHjTwAEn76Pl2PDnwAwd/LLj6Tn6Hmj8B8aL6p+25RMeauyfftgMvhXA6DpCX/7CQBlY04AxIM/ARB8ogkA96f3EQDmTnmrIkMTK9rj3zMylapP/W6TX3ro/WxACPwbAqD2yF4CQN1YFQABH+9LAASb8AHQ/vG9BID54/y1gB74948tWv1dv98plsqdnx8QEv+dAKh/Zj8BoG6sCYAQz/YnAIJNuADo/Px+AsCOKW9V5MBnS1rhP/D5ddVvi5ZT3qq4XyAYAf7Zg6elq/lHewgAdWNFAIT8YR8CINgEDwBvP+BDANg1YwtrWuCfX1pX/VZoPy23C0aEPwGg2RgfABH8qp+OAZAZnlP9MjpOsADw/gt+BIB9Uyz9JD1Hz4G/AbMTARHiTwBoNkYHQEQ/6UsABBv/AeDvJ3wJADunWPpJ9v3pIvgbMPmlh5HiTwBoNsYGQET4EwDBx18A+MOfALB7yluVagSAv/aTm75NANg6RgZAhPgTAMHHewD4x58AsH/KWxXZdzxsBIB/EjOQXyYAbBzjAiBi/AmA4OMtAILhTwCkY8JFQGf8czPfqT5EayaqCCAANBqjAiAG/LUNgCEbAiA4/gRAemZ9Y1N6Rs5Fjj+3+kU75c2K7HtvjgCwaYwIgPmHseHfPXKBAAg47QMgHP6ZIwRAmqZY+slHBHTGf9/xizzkJ4ZZ33guPcMTBIAtUw2AsuqX0XacAyAa/AmA4OMeAOHxJwDSN1MrTyLBv2dkStY3NlUfjrVTWH0adQDwPY2q2X+yaGAARIc/ARB8nAMgGvwJgHTO0PhKKPyzh8ZlauWJ6sOwfobO3IwqAJYJAIVjXgBEiz8BEHxaAyA6/DNHzhMAKR3niwK94X/g5FXVLz81E/R6gK56/AkAtWNWAESPPwEQfBoDIFr8CYD0TutFgd7w7xmZ4nv/BKf4uBwmAJYJAA3GnACIB38CIPjsBkD0+BMA6Z6xhTVf+HO/v5oJ8lVAVz3+BIDaMSMAHsSGPwEQfPo+XooNfwKA6R9b9Ix//9ii6pebyilvVnzfFUAAaDTpCAB3/LuHCYCgEzoA2uBPADDFUtlzABRWn6p+uakdv78X0BoAfyMAVI39AdAefwIg+IQKgA74EwCMiMjA59d54I8B03vsPAFg4tgdAJ3xJwCCT+AA8IA/AcCIVC8I7BQA3POvfvycBWgMgD8QACrH3gDwhj8BEHwCBYBH/AkApjbtzgLw6V+f8XoWoKsefwJA7dgZAN7xJwCCj+8A8IE/AcDUpt1ZAL7712e8ngXoqsefAFA79gWAP/z1DYBZ1S+j4/gKAJ/4EwBM/TidBdh3/KLql8XUjZc7Al48+JV01eNPAKid/Z8WpXDflgDwjz8BEHw8B0AA/AkApn4Kq0+579+AafdcgBcPfkUA6Db2BEAw/KsBcF/1ITaMVQEQEH8CgGme6iOCeeqfzuP2dMAa/i4BcEf1607t2BEAwfEnAIJPxwAIgT8BwDRP9emAXPyn+zT/RkA9/g4BsEQAKBzzAyAc/t3D8wRAwGkbACHxJwCCTWHtmWRfO9uw/Scuy4HPliQ3c1eKpZ9Uv8TAU38xIL/4p++MXbrnin9TACzJC39Ykn9997rs/9udYPtZp73dsEfOP1T9/nSc/SdXfG7R+37auL98+7LBARAefwIg+LgGQAT4EwDBxikAmrfn6HkZmlgx8v75fccvSs/IlOqXwbSZ9Y3nrvjXBcBSgL3aum922m8adv9nt1W/Px2n+/VFH1vwt0frd0G6jy4YGgDR4E8ABB/HAIgIfwIg2HgJgPod+Pxbo75Lz818Z81P/pa3KlJYfdqwJv1dtJuXjp1rFwBq8LcvAMLjb2YARIc/ARB8WgIgQvwJgGDjNwCqZwTOGXNKvVgqG331f7FUlqHxm9L71rRkX/3acfcdn5eh8ZuyvvFc9csNPENnbkQZANHgb1cARIO/eQEQLf4EQPBpCICI8ScAgo3/AJjY2fyyGbCa+NVFsVSW/g8XXNF324FT14wMgaliKaoAiA5/ewIgOvzNCoDo8ScAgs9OAMSAPwEQbPwFwETLmhIBJk1u+o5v+Ou3Z+SsTK2UVB+GrylvVqIIgGjxtyMAosXfnACIB38CIPj0fbwUG/6ZI+cIgADjPQBa8a9tYe2Z6sOwZgZOXQuFf/3mps26W87tOgCPARA9/uYHQPT4Gx8AIfEnAIJP30dLseFPAAQbbwHgjn/2tQnpfXvWmovRVE6U+Nd26MxN1YfleX776eWgARAP/mYHQDz4Gx0AEeBPAASf3QCIHn8CINh0DoD2+GcPVTc3w9NZw8zQ+M3I8c8e/FqyB09Lfkn/W9lFRHLTt4MEQHz4mxsA8eFvbABEhD8BEHyqARAP/gRAsGkfAN7wzx6akJ6Rc5wFCDiF1aex4Z89eFp6hieMuDDQ7ULANgEQL/5mBkC8+BsZABHiTwAEn76PrsaGv54BcFdGZ++qfhltxz0AvOPPWYBw0+4Wv7D41/bAp1dUH2bHWVz9wU8AxI+/eQEQP/7GBUDE+BMAwSe6AGjFX8cAyM3elZyRAeAf/+yh6rUAjL/JLz2MHf/aFh/r/d9tEfEaAMngXw2AW6rfk46TJP5GBUAM+BMAwSeaAHDGnwAINq0BEAz/2pp4z73K2Xd8PhH8swdPy0B+WfXhdhwPAZAc/i+8ecWQAEgOf2MCICb89Q2AGdUvo+OEDwB3/AmAYNMYAOHwzx6akLGFNdWHZMwUS+XE8K9dC6D7ON0K2KUKfysDICT+9gRAMPz1DICNFARAe/wJgGCzGwDh8c8empCh8RXVh2TMjC2sJoZ/bQurT1Ufdtv5zQeX3AIgefxfeOOK7D9pUQBEgL8dARAcfy0DYG1DMoM2B0Bn/AmAYFMNgGjwzx6akP6xy6oPyZg5cPKbRPHPHjwtuWm9r2lzCQA1+FsVABHh3330kuEBEA7/zPAcARBwggWAN/wJgGDTMQB84E8A+JvQ3//7xN+EuwG8BUBC+FsTABHib3YAhMefAAg+/gPAO/4EQLBpGwA+8a89D4DxNknjnz14Wvo/WFB92G2ncwAkiL8VARAx/uYGQDT4EwDBx18A+MOfAAg2rgEQAH8CwN8kjb/5AZAw/sYHQAz4mxkA0eFPAAQf7wHgH38CINg4BkBA/PkKwN8kjb/ZAaAAf6MDICb8zQuAaPHPDM/J6BwBEGS8BUAw/DOHCYAg0xIAIfAnAPxNz8jZRPE3NwAU4W9sAMSIvwkB8OHlR7HhnxkiAIJO5wAIjn/m8DntHkKTm70ruZm7ql9G22kIgJD4cxugv+n/cCFR/LMHT2v/64ABAiA+/I0MgJjxNyEACvd/jA1/AiD4tA+AcPhnDuv33XNuxqAAiAD/7KFxyS+tqz4kY8bzLwBGhH/2oP6/DPir4XE/ARAv/sYFQAL4pyEA2uGfGZqTyVs/qD7EhjElAAbP3okNfx0DYGjilv4BsPosMvyzh8a1Owuj80ytlBLFP3vwtPa/Cuj8KGBF+BsVAAnhb0IAFJ/8d2z4Z4bmpHD/R9WH2DCmBMDo7Gps+O95Xb/fQug/cSUlAVDFf9/xi6oPx7hpex1AxPjve29O9eF2HI8BkAz+xgRAgvibEAAiEhv+maE5Wf9xS/XhNYwpAZC/9jgW/DOHz0nfiauqD69l0hEA4zvL6X//M3DqWiL4m3D63/3ngBXhXw0A/S9qSRL/7pFL8uHlx6oPueP8+i9LseCfGdKvok0JgGLp51jwzxw+JwNf6Hdxk/0BsIt/79v6//9Px1nfeJ4I/r3Hzqs+1I4zVSx1CoBk8X/hjcsGBUAy+HePXJLReb1LUkRkcPJeLPj3fXJN9aG1zOjcmhEBICKy5425yPHPHD4n+eVHqg+tZewOgHHh0380k5u+Eyv+2YOnZapYUn2YHSc3fbs1AF7ZCYDk8TcnAJLD35QAmLz9NHL8dbwDQGQ3AHT7asJpBr68GTn+mcNTWl58Zm8ANOLfP7ao+jCMnvJWpfq7ADHhr/vz/2vz208vt+C/HQBq8Lc/APzjb0oAiIj88thCpPjr+P2/yG4A6PYgHKeZvPXPyPHf++eC6sNynJ6j0xYGQCP+PSNTUt6qqD4M46f4uCw9w2cjx3/fe3NS3jTj7+elY+da8A8RAOHxtzsAguHfPXJJXj79nepD9jSj8/cjxV/H0/8iIgNfrhgTACIivbmLkeGfOTyl5el/EZHsa5OWBUAr/sWS/hcEmzLVCJhIJf7lzYoj/gEDIBr87Q2A4Ph3j1yU/X+9ofqQPU15638czwIEwV/H2/9q0/fxsmQGZyR/Tf/v+UR8nAXwgH/v6AXVh+M6dgWAufjr+PWQ2xQfl6X32PlU4S9SdwHgK6EDIDr87QyAcPh3j1yUX3+wrPqQPU/ztQBB8R+cvKv6UFxn7/tXJDM4LaNzq6pfiufpeC2AB/wzh6eksPZM9aE4TvUJe7YEQOt3/qac9i+WysZdoFjerMjQmZuB4O8ZnpDc9G3Vh+B7hs7ccMTfZwBEi799ARAe/9qaNP+4/iQU/nvf1+8e8/rJDE5LZnBaBs/eUf1SPE95qyJ7/3MxFP66nvoXqQXAWQsCoPFWP9MwzU3fkQMnv1H9MgLN+sZzGcgve4Z/6MxN7Z/05zYvHTsXNgCix9+uAIgO/+6Ri1Le+h/Vh+1rJm//IHuOXbLqk79IFdJaAPR9vKT65fiewbO3feO/5/UZmVz5XvVLbzu5mbsWBMDuJ37T4K/NvuMXpGdkUvXLCDXlzYpMFUuSm74t/R8s7OyBT69Ibvq2FFafqn6JoWZ947kr/h4DIB787QmAaPHvHrloxNMAm6e8VZHR+fvS+8fFjvAPfHVL2+/866f6EKBqAPTm9P6pT7cprG1UvxLogH/v6AUZnb1nxOnngc+/NTIAekbOSf/YZRkaX5H80roR77XbrG9sSvbVM5J99YxMrTxR/XIYlzlx6V6YAIgPfzsCIHr8u0cuyoeX9T396mWKT36WyVs/yOjc/Z0dW1w3Av36GVt8uBMAmcFp1S8n9BTWNiS//FhGZ+/t7OTK91Is/aT6pfma/hOXjQgAm2dsYXUnAAZOXVf9chiX+fc/zgYNgHjxNz8A4sG/e+SivHzanO+bbZ7qLYC7AWDKrYC2T/a1swSA4tl3/MJOAPSMTBp9NsPWKT4ut8X/xVe+dAuA+PE3OwDiw9+0OwFsnr3vX24IgLFFMx7SZPMUSz8RAIqnWCrv4F9b3X8MJ40z9LX71f8vvvKlWwAkg7+5ARAv/ibeCWDj1F8AWNsDf/9W9ctK/Ywt3CcAFM/AqetNAfC17Ds+r/plMXVT3qzIr4bG2+LvEADJ4W9mACSDv6kXAto0k7f+2RIAe97kP3Kq58BnSwSAwilvVVrwr63pV8zbNPmrDzri34aUDtAAABZPSURBVBQAyeLf/fqiYQGQHP7dIxdlcMqcB8/YOINn77QEQGZwWoqln1W/tFRPz9HzBIDCqf66Xiv+2Ve/loFTej7OO43z0h+c7v3/0i0AksffrABIFn+uA1A/vbkFxwDgOgB1U//9PwGQ/JS3KtIzMumIf21NfViOTeP86b8V/+0AUIO/OQGQPP61fajhr+OlYYqlnx3xzwxOy973L6t+eamdoYkVAkDh7H76d8Y/++rXxj4Z0KZp/fTvjP9uACjA36oAiAF/G54HYOq4nf6vrY4/W5yG6X1njgBQNLsP/nHHn2sB1E/rp393/KsBoAh/awIgJvy7Ry7Iv713RfXhp3LcTv9nBqclc2RaRme5PiPpaT79TwAkOwdOfuMJ/+yrX0v/h2Y+NdP0ab3yvz3+AQIgOvytCIAY8a+taU/PM33qH//rhH/myLT05i6pfpmpm9rjfwmA5Gdq5Yln/GvLcwGSn8b7/jvj7zMAosXf+ABIAP/ukQvy//5RVP0WpGoO/P3btvhX97zkrz1W/VJTM+WtSgv+BEAyU73w76zvAOgZOcvTAROcxqf+ecPfRwBEj7/RAZAQ/rXlYsBkZv3HLU/4Z46cl76P9P4ZY5um9ut/BEDy4+fUPxcEqpvdZ/57x99jAMSDv7EBkDD+3SMX5OWv+G2AJKb52f9u+NeW3waIf8pblYZ7/wmA5Kb6gz/B8K/t1EpJ9WFYP7un/v3h7yEA4sPfyABQgH/3cHWLT/5b9Vth9Th++m+Df+bIedn7n4uqX7b14/bpnwCId6rP+w+Hf+2rAJ4NEN8srv4QGP8OARAv/sYFgEL8u4cvyP5PeA59nNP38ZIv/GvLtQDxzfrGpuunfwIgvgn6vb/b7js+z/UAMcz6xvPtq/6D4d8mAOLH36gAUIx/bf9x/Ynqt8PKaXnuv0f8M0fOy5435viPW0xT/9x/AiCZKW9VZN/x+cjwry2PCY52ypuV7e/9g+PvEgDJ4G9MAGiCf/fwBfnlsQUuCIx4ylsV2fPmfCD8a3vgb9dVH4Z1M7XyfVv8CYDoJy78a5ub5lqmqOZ3+eXQ+DsEQHL4VwNA/1vcdMGfrwLimYbb/gLgX9uxwgPVh2LNdDr1TwBEP3HjX1ueDxB+osK/KQCSxb/79YKBAaAW/+rOy+DkPdVvixUztvgwEvxryy8FRjP7/nSpI/4EQHSTFP5EQPjJnb8VGf51AZA8/uYFgB7415brAcJNwxP/IsCf6wGiGacn/rkHwHeqX67xkzT+REDwqT7nPzr8twNADf5mBYBe+Nd28jY/uhFkiqWfd7/3jwj/+lsDiYBg0/xrf+13ggAIOcVSWXrfmk4c/+zBryV78DQR4GOiPO0fOgCiwN+cANAT/+7hefnlsQWeD+Bz4sSfCAg++eVHvvAnAMJNfulhpLf6+cW/tkRA54kL/0ABEBX+6QmAePDn6wD/kwT+mSPnJHPkHBHgY/x+8icAgk95qyJD4zeTh98B/9oO5JdVvy1aTnmzIr/54FJs+PsOgCjxT0cAxI8/EeBt8tdKieFf297cRSmWflJ96FqPn+/86/EnAPxPsVRW8n1/O/xr2//BgpQ3CebaFB+XI7nPP7IAiBp/+wMgOfxr+/JXt1W/XVrO6Nxq5Bf8dcK/tnvemJXJW/9U/RZoN+sbm56v9nfCnwDwPuWtiuSm76iB3wP+te0ZnpDCKtc15a8+CP2Ev0gDIA787Q6A5PGv7a//siTFJ9yOJlJ9vn/DI34Txr9+B8/e5iuB7Zla+d7Tff7t8CcAvE1+aV3NhX4+8a/foTM3Vb9tSqa8WZHf/vWyhHm2f+QBEBf+9gaAOvy7h+clMzwne45dkrHL66rfOqUztvgw9BP+osK//iuBNP+CYHmr0vHxvl7xJwDaT2H1qfR/WJDsq2eMwr+2vcfOp+pswFSxtP2pPzn8OwZAnPjbGQDq8a/fvX+5KoX7P6p+CxOdYunnwD/sEyf+9Tvwxc3UnQ3ILz/y+am/Pf4EgPM0wm8m/s0XCNp8bcD6xvPtC/2+Shz/tgEQN/72BYBe+GeG5yQzVN2Br27JuuW/IbD+45YMfLni+yd9k8Y/c7i6e16fldHZe9aHQGHtmfS+M+cT/s74Zw8RALUpb1W2T/XP1MFvPv711wbkpm9bFQLrG8+3b+/7Shn+rgGQBP7drxdk/6e2BIC++NevjSHgCr/G+NevrSGQX34k/ScuB4DfG/4EQPXT/sCp69IzMtkEvz342xYCzvCrwd8xAJLCv/uoLQFgBv712/fJNZm89YPqtzbU5K+VWk/1G4b/7k7JntdnZHDitqxvbKp+awNPeasiYwv3A37i94d/WgNgauWJDJy67vBp3278m0Ng6MxNWd94rvqvw/Msrv7gAr86/FsCIEn87QgA8/Cv3953F2Vw8q4xdw0USz/L4Nk7jRf3WYB/8+79c0Hyy4+MOCtQ3qpIfvlRgIv7wuGfhgAob1WksPpUctN3mr7Xb7d249+8/R8sSH7poZZnBcqbFTlx6d72/fxO8KvFvyEAksa/GgD63+5hK/67OyuZoVnpfbcgg5PfaXVmoLxVkclb/5SBL1ekN7fQHn1L8G/evhPfyFjhvlYPFCqWfpKxhfsRoR8Mf5sCoAb91MoTyU3fkQMnv5F9xy94BD+9+DfvgU+vKI+B9Y3ncuLSvbrb+dqtWvx3AkAF/t1HF+Tfji/J6IWH8ey82z7wtWnA32n7Prm2EwRJXTdQLP0s+WslGTx7R/a+f9kb+Bbj37x7Xp+RA3+7JqOz96Sw9iyRMwTlrYoU1p5JbuauHPhsKcCV/PHgnz00If1jlyU3851me6dxp6s7NF6U/g8LDev83X3QTTf+9fviwa/k39+blaEzN2SqWIr1q4Li47Lklx7I7/LL8tKxcx7Q1wf/F1/5UrpU4R98L3nbEacN+1z/dODfLgoO/NcNGZ1bk7HFdSnc35DC2oane9vXf9za+bOTt36Q0bk1GZ1bk76Pl2Xv+1f8Y58y/NtFQd+Jb2Ro4pbkZu9KfvmRFNaeSWHtmaezBsXSTzt/Pr/8SHIzd2Xg8xvSf+KK9BydjgH7aPD3t+MJ7pnGjQx48PeKv9P+anhcfvPBJRk6c0Ny07dlqliSxdUfZHH1h7ZnDMqblZ0/l196ILnp2/K7/HL11r3m/x3D8A8RAOCfNvxbd6a6g1Es+IfZ7OFJf/ua1wV/8Dcf/0TWQPwDBgD4gz/4gz/4g78+C/6JBAD4gz/4gz/4g78+C/6JBAD4gz/4gz/4g78+C/6JBAD4gz/4gz/4g78+C/6JBAD4gz/4gz/4g78+C/6JBAD4gz/4gz/4g78+C/6JBAD4gz/4gz/4g78+C/6JBAD4gz/4gz/4g78+C/6JBAD4gz/4gz/4g78+C/6JBAD4gz/4gz/4g78+C/6JBAD4gz/4gz/4g78+C/6JBAD4gz/4gz/4g78+C/6JBAD4gz/4gz/4g78+C/46BgD4gz/4gz/4gz/4W7HeAwD8wR/8wR/8wR/8LdkvPAYA+IM/+IM/+IM/+FuyX3gMAPAHf/AHf/AHf/C3ZL/wGADgD/7gD/7gD/7gb8l+Id4CAPzBH/zBH/zBH/wt2S9a1jkAwB/8wR/8wR/8wd+SbcXfOQDAH/zBH/zBH/zB35J1xr81AMAf/MEf/MEf/MHfknXHvzEAwB/8wR/8wR/8wd+SbY//bgCAP/iDP/iDP/iDvyXbGf9qAIA/+IM/+IM/+IO/JesN/6YAAH/wB3/wB3/wB39z1zv+dQEA/uAP/uAP/uAP/uauP/y3AwD8wR/8wR/8wR/8zV3/+IcMAPAHf/AHf/AHf/A3Ef8QAQD+4A/+4A/+4A/+puIfMADAH/zBH/zBH/zB32T8AwQA+IM/+IM/+IM/+JuOv88AAH/wB3/wB3/wB38b8PcRAOAP/uAP/uAP/uBvC/4eAwD8wR/8wR/8wR/8bcLfQwCAP/iDP/iDP/iDv234dwgA8Ad/8Ad/8Ad/8LcR/zYBAP7gD/7gD/7gD/624u8SAOAP/uAP/uAP/uBvM/4OAQD+4A/+4A/+4A/+tuPfFADgD/7gD/7gD/7gnwb86wIA/MEf/MEf/MEf/NOC/3YAgD/4gz/4gz/4g3+a8PceAOAP/uAP/uAP/uBvDf7eAgD8wR/8wR/8wR/8rcK/cwCAP/iDP/iDP/iDv3X4tw8A8Ad/8Ad/8Ad/8LcSf/cAAH/wB3/wB3/wB39r8XcOAPAHf/AHf/AHf/C3Gv/WAAB/8Ad/8Ad/8Ad/6/FvDADwB3/wB3/wB3/wTwX+uwEA/uAP/uAP/uAP/qnBvxoA4A/+4A/+4A/+4J8q/F0CAPzBH/zBH/zBH/xtxv/F37cEAPiDP/iDP/iDP/jbjn9TAIA/+IM/+IM/+IN/GvCvCwDwB3/wB3/wB3/wTwv+2wEA/uAP/uAP/uAP/mnCP6IAAH/wB3/wB3/wB39t1wH/CAIA/MEf/MEf/MEf/LVdF/xDBgD4gz/4gz/4gz/4a7tt8A8RAOAP/uAP/uAP/uCv7XbAP2AAgD/4gz/4gz/4g7+26wH/AAEA/uAP/uAP/uAP/tquR/x9BgD4gz/4gz/4gz/4a7s+8PcRAOAP/uAP/uAP/uCv7frE32MAgD/4gz/4gz/4g7+2GwB/DwEA/uAP/uAP/uAP/tpuQPw7BAD4gz/4gz/4gz/4a7sh8G8TAOAP/uAP/uAP/uCv7YbE3yUAwB/8wR/8wR/8wV/bjQB/hwAAf/AHf/AHf/AHf203IvybAgD8wR/8wR/8wR/8td0I8a8LAPAHf/AHf/AHf/DXdiPGfzsAwB/8wR/8wR/8wV/bjQH/9gEA/uAP/uAP/uAP/lbi7x4A4A/+4A/+4A/+4G8t/s4BAP7gD/7gD/7gD/5W498aAOAP/uAP/uAP/uBvPf6NAQD+4A/+4A/+4A/+qcB/NwDAH/zBH/zBH/zBPzX4VwMA/MEf/MEf/MEf/FOFv8cAAH/wB3/wB3/wN301QF4j/D0EAPiDP/iDP/iDv+mrAfKa4d8hAMAf/MEf/MEf/E1fDZDXEP82AQD+4A/+4A/+4G/6aoC8pvi7BAD4gz/4gz/4g7/pqwHyGuPvEADgD/7gD/7gD/6mrwbIa45/UwCAP/iDP/iDP/ibvhogbwD+L/7+81oAgD/4gz/4gz/4m74aIG8I/tsBAP7gD/7gD/7gb/pqgLxB+IcOAPAHf/AHf/AHf/WrAfKG4R8qAMAf/MEf/MEf/NWvBsgbiH/gAAB/8Ad/8Ad/8Fe/GiBvKP6BAgD8wR/8wR/8wV/9aoC8wfj7DgDwB3/wB3/wB3/1qwHyhuPvKwDAH/zBH/zBH/zVrwbIW4C/5wAAf/AHf/AHf/BXvxogbwn+ngIA/MEf/MEf/MFf/WqAvEX4dwwA8Ad/8Ad/8Ad/9asB8pbh3zYAwB/8wR/8wR/81a8GyFuIv2sAgD/4gz/4gz/4q18NkLcUf8cAAH/wB3/wB3/wV78aIG8x/i0BAP7gD/7gD/7gr341QN5y/BsCAPzBH/zBH/zBX/1qgHwK8N8JAPAHf/AHf/AHf/WrAfIpwf/F338uXeAP/uAP/uAP/upXA+RThL9zAIA/+IM/+IM/+IO/1fi3BgD4gz/4gz/4gz/4W49/YwCAP/iDP/iDP/iDfyrw3w0A8Ad/8Ad/8Ad/8E8N/tUAAH/wB3/wB3/wB/9U4R8wAMAf/MEf/MEf/MHfZPwDBAD4gz/4gz/4gz/4m46/zwAAf/AHf/AHf/AHfxvw9xEA4A/+4A/+4A/+4G8L/h4DAPzBH/zBH/zBH/xtwt9DAIA/+IM/+IM/+IO/bfh3CADwB3/wB3/wB3/wtxH/NgEA/uAP/uAP/uAP/rbi7xIA4A/+4A/+4A/+4G8z/g4BAP7gD/7gD/7gD/62498UAOAP/uAP/uAP/uCfBvzrAgD8wR/8wR/8wR/804L/dgCAP/iDP/iDP/iDf5rwjygAwB/8wR/89VnwB3/wTyQAwB/8wR/89VnwB3/wTyQAwB/8wR/89VnwB3/wTyQAwB/8wR/89VnwB3/wTyQAwB/8wR/89VnwB3/wTyQAwB/8wR/89VnwB3/wTyQAwB/8wR/89VnwB3/wTyQAwB/8wR/89VnwB3/wTyQAwB/8wR/89VnwB3/wTyQAwB/8wR/89VnwB3/wTyQAwB/8wR/89VnwB3/wTyQAwB/8wR/89VnwB3/wTyQAwB/8wR/89VnwB3/wTyQAwB/8wR/89VnwB3/wTyQAwB/8wR/89VnwB3/wTyQAwB/8wR/89VnwB3/wTyQAwB/8wR/89VnwB3/wTzIAwB/8wR/8NVjwB3/wTzIAwB/8wR/8NVjwB3/wNy4AwB/8wR/8wd+c1QB58NdiQwYA+IM/+IM/+JuzGiAP/tpsiAAAf/AHf/AHf3NWA+TBX6sNGADgD/7gD/7gb85qgDz4a7cBAgD8wR/8wR/8zVkNkAd/LddnAIA/+IM/+IO/OasB8uCv7foIAPAHf/AHf/A3ZzVAHvy1Xo8BAP7gD/7gD/7mrAbIg7/26yEAwB/8wR/8wd+c1QB58DdiOwQA+IM/+IM/+JuzGiAP/sZsmwAAf/AHf/AHf3NWA+TB36h1CQDwB3/wB3/wN2c1QB78jVuHAAB/8Ad/8Ad/c1YD5MHfyO0Cf/AHf/AHf1NXA+TB39jtAn/wB3/wB38TVwPkwd/o7QJ/8Ad/8Ad/01YD5MHf+O0Cf/AHf/AHf5NWA+TB34oNFwDgD/7gD/7gD/7gb+QGDwDwB3/wB3/wB3/wN3aDBQD4gz/4gz/4gz/4G73+AwD8wR/8wR/8wR/8jV9/AQD+4A/+4A/+4A/+Vqz3AAB/8Ad/8Ad/8Ad/a9ZbAIA/+IM/+IM/+IO/Vds5AMAf/MEf/MEf/MHfum0fAOAP/uAP/uAP/uBv5boHAPiDP/iDP/iDP/hbu84BAP7gD/7gD/7gD/5Wb2sAgD/4gz/4gz/4g7/12wX+4A/+4A/+4A/+6dsu8Ad/8Ad/8Ad/8E/fdoE/+IM/+IM/+IN/+rYL/MEf/MEf/MEf/NO3XeAP/uAP/uAP/urBB39FAQD+4A/+4A/+4K/DqocxLdsF/uAP/uAP/uCvx6pHMU0bYQCAP/iDP/iDP/iDvykbUQCAP/iDP/iDP/iDv0kbQQCAP/iDP/iDP/iDv2kbMgDAH/zBH/zBH/zB38Tt6urqAn/wB3/wB3/wT3jVA5jm7erqChoA4A/+4A/+4A/+4G/qBgwA8Ad/8Ad/8Ad/8Dd5dwLAewSAP/iDP/iDP/iDv8lbc99HAIA/+IM/+IM/+IO/6dsSAO0jAPzBH/zBH/zBH/xN33rzPQQA+IM/+IM/+IM/+NuwrgHQGgHgD/7gD/7gD/7gb8M2e98SALsRAP7gD/7gD/7gD/42rJP1jgFQjQDwB3/wB3/wB3/wN33dnHcNAN8RAP7gD/7gD/7grwF4rCf82weA5wgAf/AHf/AHf/DXADzWM/6dA6BjBIA/+IM/+IM/+GsAHusLf28B4BoB4A/+4A/+4A/+GoDH+sbfewC0hAD4gz/4gz/4g78G4LG+4Q8WADshAP7gD/7gD/7gzyrfoI4HDgDnGAB/8Ad/8Dd9NUAe/Nn40N/Z/w9kYPeMSZPRVQAAAABJRU5ErkJggg==;" parent="1" vertex="1">
          <mxGeometry x="980" y="210" width="212" height="212" as="geometry" />
        </mxCell>
        <mxCell id="bewlppvLgTkB77JRoysf-1524" value="" style="shape=image;verticalLabelPosition=bottom;labelBackgroundColor=#ffffff;verticalAlign=top;aspect=fixed;imageAspect=0;image=data:image/png,iVBORw0KGgoAAAANSUhEUgAAAPAAAADwCAYAAAA+VemSAAAPCklEQVR4nO3d+VdU5wHG8ftn9E/oj/2tzMKAtNXGHcOsgJFlVNAsrnFpYve0SdPTNE233FkQBkZFFDQa447GIKhRjJHEDSIqhrgAyrANT38AGgNYaavzvvd9n+ecz8k58RzOeOV77gx3mGsYhoHxdh1qAQAUb6xDzvKtmFkcQ0YggszcCFyBCBzeEBE9Za5ABC5/GNPyophXEse8pVVY+cY+AMCug19M6HTUd/9H4fpaLFy9A3mrazC9oBzp/jCcPvF/OSKdOH1hpPvCeK6oAnmrtyNvVQ0K19X+54D9K6rhe6UazxWNnHFF/yWIaOTMPL80jvw1O+B5edvkAc9bUonZwRicvpH6RT9oIvpWum/kmfDcJZWYszj23YCzFpYhsLIaTj/DJZKZyx9GzrI4ZgdHIy5aX4tNfzqC54piPPMSSc7pC2FGQTnKqs+gcN1OGN+f8S7yV9fwNS+RRWQEIvC/Ug27OwRj2abdmFFQLvxBEdHUzQ5WYuVv98HwvLQVLr72JbIUlz+MBcu2wJg1+pNn0Q+IiKbO6QthVjAGIzOXr32JrGhGYTmMzNyo8AdCRP+9aXlRGPzpM5E1uQIRGKIfBBH97xgwkYUxYCILY8BEFsaAiSyMARNZGAMmsjAGTGRhDJjIwhgwkYUxYCILY8BEFsaAiSyMARNZGAMmsjAGTGRhDJjIwhgwkYUxYCILY8BEFsaAiSyMARNZGAMmqdg9Idg8JmxuE2nukf/aPCYc3tG71vvDcAUi3+UPw+Uf+bN0fxjO0Xvpfvs1R7/O6Nccb+zP7J4x4o/DVDFgEsrm+TYilz+C6QXlyC6N44W1O7DqjX14O3QC0Zqz2L7vc3xYfwmHG66hvqkNx0+14dipNtQ3teFoYyuONrbicMM17P/4CvbWX8LuQ19gx/6L2LrnAipqmxHadgbvVTTiD+bH+Pm7R7D6dx+h5PXdKFy3E7mrtsP90lbMW1qFmcUxTF9Ujqz8KFyjn5k+FrjoYzUZBkwpZfeE/n22m5YXxfySOJb/Yg/C1Z+ivrEVF6904ubXPejq6UNf/yCSyWE8zSWTwxgcTKKvfwi9iQH0POjH3a4Evr7zADdud+Pq9Xv4/HInzly4iWOn2rD36CXE6pqx9vcfIV3C+2czYEqJkWhDmL5oMwrX1+If8dM4ea4dNzq60ZsYxPDT7fSpr7G5HZl58t2GiAHTMzN2ts0IRJC7cjv+GT+N5pbbuNedQFL2Yset6fwNBkx6sHtHws3KL8PLv9qLAyeu4us7D5760+FUjgGTFmzukde2K377IU58eh09D/tFt/dUxoBJaXaPCacvjOINdTjUcE2ZcMfGgElZNreJWcEYojVn0Xn3oejWnskYMCnH7hl5vbv09d04e7EDQ0NJ0Z09szFgUordYyIzL4o/hk8oe9Z9dAyYlGHzmPhpYTm27b2ARN+g6LZSMgZMSrB5TMxdUoWDJ64q/ZR5/BgwWZ7NY2J+SRwfn/4KwxZ7I8b/OwZMlmb3mJizuBLHT7VJ/7bHZzEGTJZl95iYXlCOfccua3fmHRsDJkuye0PICEQQ/+AzrV7zjh8DJkuye0J485/H0ZsYEN2Q0DFgshyb20RwQx06OntE9yN8DJgsxe4x8dPCCpw81y66HSnGgMlS7N4Q/l7ZhEGNX/c+OgZMlmFzm8hbtR23vuZT57ExYLKMjEAEe45cEt2MVGPAZAk2t4nSTR/gXldCdDNSjQGTJWTmRnHwk6uie5FuDJikZ3ObCG6sw12efSeMAZP00v1h1B5oEd2KlGPAJDWbx8Tzy7agvaNLdCtSjgGT1GxuE2+HTmDIwh/9+izHgElqWflRNDXfEN2JtGPAJC2b20Tuyu34RoPPtvpfx4BJWja3iXeiDZa73Ukqx4BJWpm5ERw/1Sa6EanHgElK9tEPqWu7cV90I1Kv6fwNTGPAJJuxt05a/VYoyeQw+vqH0POwH/e6E7hzvxff3Hs67nUlcOiTq8jMZcAkGZvHxHsVjZb7rKuBgSHc6uxBw9l2mFvPYNM7h/HiL/egeEMdFq6pQWBFNXyvPCUrqjG/NA6nT/y/13gMWHMufxj7P74iuscpr6unDwdPXMXaN/fj+eVbkJVfBrvHRFrO+yPcJmzPgN1jCv+3mgwD1pjdE8JPFm3G+S9ui+7yiRsYGMLhhmtY8touTMuLIi3nfdgkjSqVGLDGbB4T2aVx6d8+2fOgH3/efBI/WbQZaW4TdgmOnSwYsMZsbhOLXt2J+93y/vZRb2IAv/vHMaT7wtI+jRWJAWsszW1ize8/Ql+/nDcoSyaHEa4+g3R/GHaP+OMlIwasMZvbxB9CJ5CU9BcYLl7pxNwllbC5eeZ9HAasMbsnhIraZtGdTrrBwSR+9d5RxvsEDFhjTm8Ie458KbrVSffVzS4sKI3zJ81PwIA15gpEcOTkNdGtTrraAy1w+cPCj5HsGLDGMnOj+OTT66JbnbChoSRef+cw0nLeF36MZMeANZaVH8Wp8zdF9zphPQ/7UbS+Fml8/ftEDFhTdm8IP1pYhrOf3xLd64R1dPYg58WtfP07BQxYU2MBn2vpEN3rhF356i5mBWN848YUMGBNjQXcLOH7oJtbOjB90Wa+eWMKGLCmZA745Ll2ZOWXCT9GVsCANSVzwMdPfyXlL8/LiAFrSuaA65vakBGICD9GVsCANSV1wI0MeKoYsKakDphn4CljwJpiwGpgwJpiwGpgwJpiwGpgwJpiwGpgwJpiwGpgwJpiwGpgwJpiwGpgwJpiwGpgwJpiwGpgwJpiwGpgwJpiwGpgwJpiwGpgwJpiwGpgwJpiwGpgwJpiwGpgwJpiwGpgwJpiwGpgwJpiwGpgwJpiwGpgwILZvSM32k5LtZz3MS0vimYJ78xwtLEV6b5w6o/JJGxuU+oPmGfAAo2dBfNX1+CFtTuwMJXW7EDwZ7vwZesd0b1O2OnPbqJwXS0WrknxMXnMcXquqAJ2Cb5fJsOABUpzmyhcX4uOzgfo6ukTYmgoKbrXCRscTAo7HuPdvZ/Aq2/uR1qOnPdpYsACpeWYCG7chYeJAdHNcI9Zom8Qy37+gbT3KmbAAjFg+XevK4H8NTWwSXqvYgYsEAOWfzdud2PBsi3S3quYAQvEgOVfy9VvRn6IJelPohmwQAxY/tU3tWFavrx3SmTAAjFg+Rf/4DM4feK/Vx6HAQvEgOXeMIA/hj+R9gdYDi8DFooBy73BwSRefeuAtJeQHF4GLBQDlnsPewew9LXdSOMZmCbDgOXenfu9yF25nU+haXIMWO5dv9WF+SVVsEt6DdjhZcBCMWC5d/7L25hRUC7tNWCHlwELxYDl3uGGa8jMlfv3khmwQAxY7m3ecU7498iTMGCBGLC8Gx4GfvO3eqkvITm8DFgoBizvBgaTWPXGPgZMj8eA5d2Dh/0o2lAr9TVgh5cBC8WA5V3n3YfwvrxN6mvADi8DFooBy7vW9nuYs7hS6mvADi8DFooBy7vmlg78+IXN0n6Y3RgGLBADlnd7jl5Cuj8s/HvkSRiwQAxY3v2lvFH6178OLwMWigHLuWRyGK/96RB+KPklJIeXAQvFgOVcX/8Qlv9ij/TXgB1eBiwUA5ZzXT19eGHtDumvATu8DFgoBiznbnX24Pnl8n6U7KMYsEAMWM5dar2DmcUxqX+NcAwDFogBy7mGs+3Iyi8T/v0xFQxYIAYs57btvQCnT/5rwA4vAxaKAcu5d8oaLHEN2OFlwEIxYPk2NJTEhrcPWuISksPLgIViwPKtNzGA0k3y3k50PAYsEAOWb3e7EshbLe/tRMdjwAIxYPnW3tGN7NK4Ja4BO7wMWKg0t4lFa3fiUusdXL/VlXLtHd3oHxgS3cyE9SYGhRyPGx3dOHaqTfqPkn0UAxYsIzeCOUsqMXdJVYpVwvPSNly83Cm61wlrONuOBaVbUn9MllZhZnGFZS4hObwMWAp2j5lyNreJrPwyNLfcFt3rhNU3tsLlD8Mm4LjI/gkc4zFgTdm9IfxoYRmav5Aw4KY2ZATk/kB1WTBgTTFgNTBgTTFgNTBgTTFgNTBgTTFgNTBgTTFgNTBgTTFgNTBgTTFgNTBgTTFgNTBgTTFgNTBgTTFgNTBgTTFgNTBgTTFgNTBgTTFgNTBgTTFgNTBgTTFgNTBgTTFgNTBgTTFgNTBgTTFgNTBgTTFgNTBgTTFgNTBgTTFgNTBgTTFgNTBgTTFgNTBgTTFgNTBgTTFgNTBgTTFgNTBgTTFgNTBgTTFgNTBgTTFgNTBgTTFgNTBgTTFgNTBgTTFgNTBgTTFgNTBgTTFgNTBgTTFgNTBgTTFgNTBgTTFgNTBgTTFgNTBgTTFgNTBgTTFgNTBgTTFgNTBgTTFgNTBgTTFgNTBgTTFgNTBgTTFgNTBgTTFgNTBgTTFgNTBgTTFgNTBgTTFgNTBgTTFgNTBgTTFgNTBgTTFgNTBgTTFgNTBgTTFgNTBgTTFgNTBgTTFgNTBgTTFgNTBgTTFgNTBgTTFgNTBgTTFgNTBgTTFgNTBgTTFgNTBgTTFgNTBgTTFgNTBgTTFgNTBgTTFgNTBgTTFgNTBgTTFgNTBgTTFgNTBgTTFgNTBgTTFgNTBgTTFgNTBgTTFgNTBgTTFgNTBgTTFgNTBgTTFgNTBgTTFgNRg8UHpiwNbnCkRguAJh4Q+EUo8BW58rEIGRlRcV/kAo9Riw9c0sjsHILo3D6eNZWDcM2NqcvhDmLa2CkV0SRzoD1g4DtrZ0XxizF1fC2PDWAcwsjgl/QJRaDNjaskvj+PV7x2B8z/YW8lfX8IBphgFbV0YgAv8r1fjBnL/BKF5fhzf+ehx8Kq0XBmxNTl8Ys4MxhKpOo2hdLQzDMJCZF0XBup1w+hmwLhiwNaX7wwis2IY5i2MwDGMkYMMwML+kCnOXVsLlD8PpE/9A6dliwNbi9IWR7g9jfkkV5iypHIv324ANw8CC0jgWlG7BjIJyHkDFMWDrcAUimBWsRM6L25BdEn803u8GbBgGghvrENxYB/+KaswKxpDOM7KSGLDcnL4w0n1hZJfG4V9R/e8ux/c6IWDDMHDhcicA4KVf70X2sjhmBWOYUVCOzLwoXJofWFUwYPm4AhG4AhHMLKrA3KVVmBWMYdO7RwAAZy93ThYv/gWEbeOdqzNaIgAAAABJRU5ErkJggg==;" parent="1" vertex="1">
          <mxGeometry x="1484.5" y="505" width="210" height="210" as="geometry" />
        </mxCell>
        <mxCell id="bewlppvLgTkB77JRoysf-1525" value="" style="shape=image;verticalLabelPosition=bottom;labelBackgroundColor=#ffffff;verticalAlign=top;aspect=fixed;imageAspect=0;image=data:image/png,iVBORw0KGgoAAAANSUhEUgAAAUwAAACYCAYAAACPttDSAAAaoElEQVR4nO2dP0/jSheH/XXyMZC2oUbamo6KigrdhnolSgraNJR0bhKJSC7sJRFaDCRSIBE4Eg6KjCwFrNjEPrewHQIESDxn7BlzHmn0ru4r7dqO5+cz568ChJQ4LwHUHkew2TWhYhqgGHVQjDpUTAO2+23QXAfG4bToyySIUqEUfQHEaozDKVRtKxZJTQVFry1emgoV04Cj+zvwwrDoyyaIUkCCKRHDwIed64vPRXLRMuqwe9sla5MgECDBlIj1q9ZqYqnXQDHi/924bBZ9+QQhPSSYkrDdb399BP9uaSrs9TtF3wZBSA0JpgTUHkfZhXJuVU5PoDV2i74dgpAWEkwJWNlv+cX6Q1YmQWSGBFNwOt4TrJ3raIK5cdmEgT8p+rYIQkpIMAXn2HmIcyyRBFNpNkBznaJviyCkhARTcI7u7/DEMlkkmASRDRJMwTm6v2OLji+Ilqsju+jbIggpIcEUHHQL0yALkyCyQoIpOOrIBqXZQBNL8mESRHZIMAWn5z3Dr38UJScIESDBlADKwyQIMSDBlADNdVDEsnJ6Am3vqejbIQhpIcGUhL1+h7mW/MC2ir4NgpAaEkyJ2Oyar8GbFYM92/120ZdPENJDgikRzksQW5qrVP4Yddi3bqiJMEEgQIIpGV4YwrHz8LHj+nurU1Nh7VwHzXVgEkVFXzZBlAISTEkJoghaYxe2+21YO9ehcnoCldMTWDvXYfe2C23vCQISSoJAhQSTIIhMeGEIzksAA38CPe8ZOt7TUqvnPcMw8KUcm0KCSRDEUozDKbTGLqgjG47u72Cv34HNrhm3H2w24jXvX9fUV7eREfvTlWYDKqYB61ct2Lm+gMNBD47u76D2OJKioIIEkyCITxmHU6g9jmCv34Gt9hlUTk9i4VuU4rZM9sYCX7uixyW7G5dN2Lm+gKptCZsvTIJJEMQHZjPvU4FcNZVt1TX/9xv1mT/+wLZgGPhFP44ZJJgEQcAw8EFznXjY3mcWZBErOdZXTAOO7u9g4E8KDWaSYBLED2YY+KCObNi4bK52tC5IPCumAfvWTWHD/EgwCeIHMokiqNpWLJSYI1ByWpXTE9jrd6CTs6+TBJMgfhia68SRbQmFcpFw7ls3uRVnkGASxA+h4z3FPkpR/JNYS1NnjbF5lwALKZgDfwId7wlaYxc014Ha4wjUkb1w1R5HoLkOdLwncF6Coi+dIIQjSI7fldOT8onlu7VzfQE975nbsxRCMAf+BGqPIziwLfivewG/zb+zcr+FybDpn436LBl27VyHrfYZ/Ne9gAPbgtrjSKh0BIIogoE/iRu2CCBmea21cx1qjyMuz7Mwwaw9jmD3tgvrV63XXK9FDyBrxC7J5Vq/asFevyNsIixB8KI1dmNfpQAilvtKunRhk5tgemEIA38C+9bNa55XXseD9N9qNmCv34Ge9yxlHStBLMvhoFe8aBUqmPG+x55hxV0w3bnSKqXZKN6Hkvz72/12Lk5igsgTLwxjsSx6nwm0Ni6baOlH3AQziCI4dh5gq30mVuXA/Go2YOf6gpu/gyDyZBxO4xNc0ftKwPXrn47iluMimD3vOR6nIHqeV+IfrZyewO5tl6LshLR4YRhPFzVq4lbqFLwqpyfMliaqYI7DKezedsW0Jr8TTk0FxahD1bbAlcC/OQx82LduXltrJddfMY2Zn5YnXhhCz3uG3dtu3P1dr838xOtXLTh2Hkr5AfLCENSRHRsEcy6mimnA7m0XOt5T7v7xIIriih3Z9l1BoslSVokimEEUQe1xFG9emX+0OUdx3iVXyxJEEagje7E/OLUsEvE8ur/jUgExDPz4w5j+W4uepabC+lWLu3Dnyezk9MU9K5oK2/12br0dJ1EUH8NF2Hdv+l/Wv04JLHBtXDYzv5fMgumF4eqDuSRYa+c6qCOb9fGgEkQRHN3fxWlYy9yHUYfDQQ9VNJ2X4HV65ZLPsQyiOfAnsH7VWvq+N7tmLnnAVdsqZo/MZZ6sneuw3W9DNcl/TotJ0pX+N3Vkw16/AxuXzdeZVAWJ6MZlM9NJgEkwh4H/tstJ2RanXK6stMbu6h8mo44a1MqyQfMSD16Mw+lKH4l0HQ56XFuRqSM7X0NlrtXa7m0XNNeBYeCD8xIsLT5eGIIbTmEY+NDznuHAtuIPUeoW02u5+WA3u+bKzzyzYGqus7ylI/NKjpZFDxSbRNGrr3DV1WygCJbzEmR+hlXbQngKxVC1rWyWkFHnZl1n+nhmXUZ9NlyP52kh7Z6Um65oKuzedle6xkyCeew8xP6JosUsr8UhAXZVao+j7McXJME6yCoceg2UZkPaYoHM77qmwuGgh349bjjN/vFcZRl12GqfQdW2cv3tWmMX9vqdV+HkaHFWTk9Wcr2tLJhV2yqdv3LZxeIsZiXLkXB+rZ3rzNewig/vw9JU4XzCy8D0odJrsH7VQr+mvX6Hr+8vOVXVHkeFZjq0xi78ySE+soqffSXBzN1nIuBaO9cLsZSYLIpkYl+h16Bn8xkVzXa/zfbONBuo13N0f8d9D+5bN8KkhAVRFLv/0iARp3ve7JpLud2WFsza4+hnHcO/WBXTyN2nyezX0VTma2AahoUk2nnz6x978wosWmOXj38v+U1FTqcDgDiVjdfHYkm31VKCWXjXk882aVEVDZoKm10zV0tTGMFkfHYib8j3DPyJEM8dII4u/9e94LS/6rDX70hRsHHsPPDRouSD/l1w9FvBHIdTNt8Vw4s2P7O4YhqzAfBr53psoqfJ2wXlcvFOG5knboFX7MbFOGEcOw8ITyMfao8jlI+ESNfyUSjqXAJTPGl7T9wMuJ3riy//7W8Fk9mHs8KGThNht/ttOHYeoOc9z9bAn8DAn8Aw8Gd/Tv8/dWS/lujlKKCsZVarIIKlgxGZ3et3EJ5GPhwOemwiZdTQfJhcouJJKbCMDPwJvoswsTK/ylv+UjCPnQf+4pM0+t297aI1+a3aVm5DniqmkUu6kQiCiXHS2GqfITyNfMDoVF4xDebr4FL6mJTOysww8Ll8SL4qtPhUMAf+hK/f0qjDb/MvVG2LW09KzXXiDi48g1VJjiZvRDiSY5w2fv3ThYnAfoUbTuPWhIz3y/puuOEUN9CTvEOyWpbv6XnP+Dr1hZW5UDCDKErqw/kJjDqyc3Eyp41BZn05OYkm756aIliYGJZOnm4MFjoYfrIMlSTv4dE5XaRyXwx4ZA9sds2FhtxCwWx7T3zSFzS1sByvcdL5nVfZ1a9/Otd6aREEkzWJW9FroBh1KQI/musk3XbYnjnLvaL3atBU+K97UcopA+rIRt/Tiz7sHwRzEkXxMRb5H6+YhhCWxTicvr6EyBY0zy+3CEdyLwxRfGkyRGWxNiBLZdjR/R3q+1m2dnvvwZ65vqhK64NgdrwndLEUMSGWR0s6nsdNESxMLwxRnOw71xdC15XPWhayuh8YAoKrttH7ciXR+rKPYplEEa4/U1M/nBo/CCbaj5T8g+tXrUKbVnzGrPEqS/XKgrVv3XDJzRRBMCdRhPJ+iN4jcxj4KBkBm10zs/up4z2xuwTmfnuZ0rlYmLlSEPfzPG8Ecxj4eGIpwcaYBbcQ71lpNrj4aEU4kgMwtDqbX0ZdCPfMZwz8Cfvpg7FTEerkR6MutEWPyQR5T29cNt8YQG8EE/MfqpgGWl4lb74cO5Bho7BGRhchgoUJkPZhZH9GIqe1oOQfG/XM3ZkClt6nC561jF2iWEDJcNBroBixm23elTETTOclQGk0kL4ssvlLsMs/sRFFMLHy3vKuxV8FLLdDViu67T2hfcDXr1rCPmeeYI4b/jPnzpgJ5rHzgBYEkdFfgvZVSsQJ+6suypF8HE5xsigEbiiM4QPbap9lvj/MfpcypHDxoOc9o8UnttpnMzfbTDD/YB3HOfnw8gCzOTJ270dRLEwApMFbmiqky2bgT1DEiiXFDOvDLXoMgTdYAex596ICEL8kKAmyjIm6RTMOp/Db/IvzkBGGxs8jkmDOeqMyWrw8fL2sMI3hSBdDcv6sFBLBMvoj4UkPE0zXhuY6AJAIZmvsohxDMMYgFA1aGy3kTjAiCSZaBQpyN3IMMKy7yulJ5rJfFNdYEqxIN/lPBiV4llQoBlEUC6Y6slGUWLZAz2dglaNhfuFFEkwAwPFjaqpQBQ2dtCSY0bpjccdgZapsXDZR59HLClZ6Vho8U4I0gZvxL12/akk9e3oelJpp/a2zmBXRBPPYeUDZ2CI1gmDuf5k8Zxa3FFZZsoyBVx60vSecE2MSm1He1FYzLBnqg1cBw0WBWSopSpQ8xQtDlI392/yLel0sYFnNWSu9XCwfuqYKXRiQJ2htKjU1FkznJWAWhzL6S7Cc/1huCtEsTACcKKQo7d6wxh6wjNXFHL1AxMz6AiAIpuY6oGCUQ/42/5bmOJ7S855RHjJWPqaIgoni+xZkTEI8QrrY33vWfpDxOsoQfMUEpeuTpsZGVGvsMr/03w0OkhEUUz6JrmE430U7kgPEaVgYDSKK7l6EZoU0G0yNZrCKR0RM1yoSdWSjuNi2+21QMJopHAhgIWCDtYm2+20UMRDRwgyiCGdIXrNR6LG85z2jbChW4T+6v0MJOolgsYuE5joojcM3uyYou7ddtr9IwrrxZTm6v2P+mKyd43RiF9HCBEhyeFkFM+nsk9fI4vdgdWBi9eNjHR1FStUSgZ73jNInY/2qBQqr4x67okUkYr8W2xe/Yhp4gsm4kXgw8CcojUsqplFYSS1GcjNGN3MswSxbPIEVrEKLimmAwvSyJxUFojZRYAWlGSmjXytFVMEEQOoMk8MguUVg+PAVHSfvkQSTD2OkCaBKswEK09c1EcyijlK8QZlGZ9RLL5iz2nLGF5IlJScrzKlRC3omZgXDBUSCuRgUwTTqoGDkYJaVjvfE7vvQVJSOMSILJgDSC5nzZp91VmeM8mPNpUcRTL0mbbcwnvzXRRrsyOyjK7FgojiLf4hgorR80/NNicFyJWBFpelIzg+sHq4K019Q8iM5SlNhg23UaorogumGU5QcwsrpSS49HAf+BG3CAFaTCyzB/Mk9MD8D4wRUMQ0cwSxr0AelVA3ThylgWtE8KDmZej59CbCah2A2ikZJXKc68g94YSiIYOrlTiuiKPlqDAMfxQfHu1M41hhdRa+hjpBGqUiRvIk3D7DSitavWuyCWebEdeHyMAW3MAHwxgIc3d9xu0Z1ZKNc4871BXhhiHZdWJ3sqbXbW7Cammx2TRzBLGspFoZPaf2qhRK1lMHCBEiscgQx4jntEGcEK3tlz3tQ0th0vKh9WUD5EOlxri27YOrlbFaKVUuO1VhCFsF0XgK0jvU8Ti6a6wjXHDoFa7ZWxTRQr0t2sHzDx84DjmD+Nv+WLvAz8CfsJXOIKSeyCCYAjitD0WvoM3+CKEKx4FiGnH0HVj5rWTNXsoAypkJT47xdDMEUpQksJq2xizK5r8z9MD8DzcpM2uNhcWBbKL8pT3cBVtd3rPdOdlACPkYNFKMed1zHEExF5+ukL4Ld2y77V6nZQPNzySSYAHiJ7FhZGCg5tclz5BmFPpCwAEBksFr3pc1h0ASTh0+nSLBK5rDSTmQTTLTjr87uI58N+sN41zmPBtZcB8WdQYGfmNrjCOV3373txnOssART0WulOZajzPNB2OjzyCaYAImzHeE5Ks0GUwAodq8g+FRzynFkb/jC/szKAla+bfosUQUTs+qhKMbhFC0wgFmxIqNgAuD0mlT02GLKcoIZh1O0TbN+1ULNu/wMrCyDPyXMXlkFrEKK+RgNqmAqRg3aklf9HA56KM8COxAmS+L6e7CSxLMmZO9bNzhWrlHPLZCCdcLBaGosM3v9DspznHet4QqmLrfvBHPMKXZvR1ktTOclQKv+UfTaSkG0mT8QITK+1T4DN6fUuYE/wRF5vfZjyyRdrJOi/tZSRxdMWX+kcTjFSelIxAn7GcgqmAB4lRaKHteZLyNcWPXDRfgDgyhC+3AXOfqjSDCDfPMnCy6Cybt5Ag+w0mDShY3MgjmJIryPkR5XT32VmB1EEc7Y3GRttc9yfFoxaAGzHzhFsuc9o31wfv3T3+TcchHM9CWTpfqnNXZRcrXSF5RHDpzMggkwVyeNYGV+V2mDVmmk19D6ma4KVv5g+rx+ipU5Qf5YvvebcxNMRZcjeRazkWxaEcCj3Z3sggmAVAyQrM8S2nveM5rvitfHbxmwXUQy7EUMsI2f93nUXAVT0VQ4EPg4MPAn8Nv8i3rPe/0OWgfuecogmJMowrP89BoozcabNJ8JYrJ8+vcXaZnhWsr86t9FwQtDtDQ2RV/cxISvYOqvoslDRFjoeE9o+W6zB8yxpr4MggmA1+k8vaf1qxZMoggmUYQajVd0vD4AWXFeAtQPuoyxhVXAPMEo+uKMDP6CmRxT9/qd3NIyvkNznfgYjvhwFT22Lnl1iSmLYI7DKbqw7fU7cVQU0XoVpdQXOxi5c30hnPGCQe1xhOMfT9bGZXNhkQJ/wUyXUYfNrlnoRLtxOIUD28I9tiVr7Vznem+yJq4vQnMd3N/AqKOKpUjdt9DdDLocsYVVwGq8/Po+fX66yE8w517GInwpmuugpRosEiPe91QWCzMFLU+Ow8JsKYcBVuXP/LsgcmxhFdreE6rfUtFj6/Iz4yd3wUx/sI3LJrTGLlerzAtD6HnP8TRD5OP3+wfMmzJZmADxb4PtQ8ZYa+d60Y9mIagf++Q9qtqW1I2GOxzE8rsS2GIE853YHDsPqKk443AKtcdRnI+FlWLwxQbDnBz4GWWzMAGSFJCC3783q9kQthcCZpnn/P3KmtTORSz174siChfMeeHZub6Aqm1lemndRCQPbCtu889ZKNMXLq+SuTIKJgBicwyElcc89KxgJ2TPv8OiuSC+ozV28d1ryYfouxOvMIL5euF1qJyeQOX0BNavWrDZNWHfuoGqbcGx8wCa68Cx8wAHtgV7/Q5sdk1YO9eTI+uc4x/zSyzABivbkTwFuzlH1oU1rI4naF3jP+y5Gmz321Icz1Fmt3+yP5axtsUTzOQHfH8zn64iri9pNZbnC1ZWCxOAoxAsuWTKT0SZgPjJ+7F2rguTHfAe5yVAz7OcX5tdc6n9LKZgirySgFXeuWxlFkwA5KqWFZdsncmx+jwuXM0GHA56hab/zTOJIqg9juIm0JzueZUPJgnmKisRyzyCPO/ByDMTHa5C8MnvKZv/DiAOavK2yH+bf0Ed2YUe0zXXievpecYjVmwMTYK5wub69U/n0lhjGZg3COfhXVjkdjTXVKmrXtreE//AplGHtXM997zptvcU+7VzOHGsmsRPgrnk2mqfFXpMqbIkL2cc71AEmDN4vlqbXVOI0kcWZo2Zeb//mjqLpne8J/TnNg6nMAx8OLq/i1OF0vecc+A2ywwyEswllggR1GHgZ//icmo5xwvMBrCL1q9/8gR5vgO71vzLpamgGHXYuGzC0f0daK4DA3+SaTCc8xJAa+yCOrLjYE6zkas7ZuOymWlPswtm8gBFyaVDXUYd9q2bwsUyJZOPT9KjJ3p9cLqaDak+Ht8xm7me9/5LrM6NyybsXF/An6QByuGgN0sBVEc2HDsPULUtqNoWHNgW/Ol34L/uBWy1z/AaSq+4Ni6bmT+YbIJpxLXhPe+ZT1JtkevdLA8RGPiT1T5OSaqIrALRGru4QlCCqaaLCNLWdiIYLWkjlEWr6GvT2RuroAhmaoFV5zsBFfDlwPrBNy6bwrSie88w8OPI4XcvoBH7XYuI6GOC1kG72RA2xxCDSRTFR1uZ9x7ntXauM38wUQRzXlza3tNyG1qklbxgv/7pUjQkmEQRVG0LNi6brxVOmjqbcLhx2YR96yaTb0lEWNvBVU5PpMu1zMI4nArdBarIhZXhgi6YAHEnmjfJpiJ/8ZLr27dupAsEDPwJtMYuaK4DtccRaK4DrbErvVW5CM11sjVbyHlEbtF4YciWUVHCxeKzfA8XwUwZh9PXKJ5oP2ByPZtdE3res/BWJRG7I96knXz3+5YswLMKh4Ne8Xus6JUUmmCmA3IVzJRJEsn79U8v/qieJOPu3naFKf8iVmPfuvnYbGXu962cnsBev1Mal0RWuHT1kWUZdS5NknMRzBQvDOHYeYCd64v4h8zrqJ5YG1vtM6jaFgllCRgGPhw7D7Bv3cCffmeW1lK1rVK6JLIy8Cfly2D5Zv36py8cYIZBroKZMokiaHtPoI5s2O63X31TWMf25O+pmAZs99twdH8HrbErTD4lQeRJGiRc2p0h8drrd7jGIgoRzHnSsqie9wzHzsOrgKaR32WWXgOl2YD1qxbs3nahalvQ855hGPgkkgSRkMe4lkJWcoJsjV3ubpjCBfMrvDCEtvcEtcfRrGLgYK6RcM97/vF+KoJYlZlvs+h4AsKqnJ7A4aCXW9BWaMEkCIIPafrRb/OvlMK5dq4XkgpIgkkQP5hh4IM6st+W3IqaN62pUDENOBz0CitxJcEkCAKclwA014l9nGn8oEhxTEU7uY60L+cw8AvNmSbBJAjiA7XHEWx2zc/zXbmKZX02BLFqW0LpCwkmQRCfMk7GV+9bN3Mt2T6xQJc5yi8acKjXQGk24Lf5F/b6nVmWi4iQYBIEsRTjcDpr+nt0fwd/5sZcK81GvIz62+P0zC+atHhrNqBiGrBx2ZyJozqyQXMdKQpKSDAJgsiEF4bgvAQw8CfQ856XXgN/AsPAlzIlkASTIAhiSUgwCYIgloQEkyAIYklIMAmCIJaEBJMgCGJJSDAJgiCWhASTIAhiSUgwCYIgloQEkyAIYklIMAmCIJaEBJMgCGJJSDAJgiCWhASTIAhiSUgwCYIgloQEkyAIYklIMAmCIJaEBJMgCGJJlLitfHbRrJyeFH0PBEEQuaCsX7WyW5h6DdavWkXfA0EQRC4oR/d32WcQaypUbavoeyAIgsgFZRj48bS3TD7MupSDjAiCILKgAAAc3d9lEsxj56Ho6ycIgsgNBSCeN7xv3axkWe5bNzCJoqKvnyAIIjeU9A/jcArHzkN8PJ8NX//os6yYBqgjm47iBEH8OJT3/2HgT+DAtmD9qjXzbVZMAzYum3A46IHzEhRxnQRBEIXzPwU5IsWWIZ89AAAAAElFTkSuQmCC;" parent="1" vertex="1">
          <mxGeometry x="730.84" y="1210" width="332" height="152" as="geometry" />
        </mxCell>
        <mxCell id="bewlppvLgTkB77JRoysf-1526" value="" style="shape=image;verticalLabelPosition=bottom;labelBackgroundColor=#ffffff;verticalAlign=top;aspect=fixed;imageAspect=0;image=data:image/png,iVBORw0KGgoAAAANSUhEUgAAAZAAAAGQCAYAAACAvzbMAAAgAElEQVR4nO3d+X9M5///8e+f1ZvMcmYmicQSEoTaY/nQ2j62qIa+S1taqopqKbGW2vpGLSnlTVFUEao+tVQptWQR+5bMzOv7Q97X1eucORNxmaRVj/vtlltiJGebM9fzXMu5zv8TAAAs/L+/egMAAC8mAgQAYIUAAQBYIUAAAFYIEACAFQIEAGCFAAEAWCFAAABWCBAAgBUCBABghQABAFghQAAAVggQAIAVAgQAYIUAAQBYIUAAAFYIEACAFQIEAGCFAAEAWCFAAABWCBAAgBUCBABghQABAFghQAAAVggQAIAVAgQAYIUAAQBYIUAAAFYIEACAFQIEAGCFAAEAWCFAAABWCBAAgBUCBABghQABAFghQAAAVggQAIAVAgQAYIUAAQBYIUAAAFYIEACAFQIEAGCFAAEAWCFAAABWCBAAgBUCBABghQABAFghQAAAVggQAIAVAgQAYIUAAQBYIUAAAFYIEACAFQIEAGCFAAEAWCFAAABWCBAAgBUCBABghQABAFghQAAAVggQAIAVAgQAYIUAAQBYIUAAAFYIEACAFQIEAGCFAAEAWCFAAABWCBAAgBUCBABghQABAFghQAAAVggQAIAVAgQAYIUAAQBYIUAAAFYIEACAFQIEAGCFAAEAWCFAAABWCBAAgBUCBABghQABAFghQAAAVggQAIAVAgQAYIUAAQBYIUAAAFYIEACAFQIEAGCFAAEAWCFAAABWCBAAgBUCBABghQABAFghQAAAVggQAIAVAgQAYIUAAQBYIUAAAFYIEACAFQIEAGCFAAEAWCFAAABWCBAAgBUCBABghQABAFghQAAAVggQAIAVAgQAYIUAAQBYIUAAAFYIEACAFQIEAGCFAAEAWCFAAABWCBAAgBUCBABghQABAFghQAAAVggQAIAVAgQAYIUAAQBYIUAAAFYIEACAFQIEAGCFAAEAWCFAAABWCBAAgBUCBABghQABAFghQAAAVggQAIAVAgQAYIUAAQBYIUAAAFYIEACAFQIEAGCFAAEAWCFAAABWCBAAgBUCBABghQABAFghQAAAVggQAIAVAgQAYIUAAQBYIUAAAFYIEACAFQIEAGCFAAEAWCFAAABWCBAAgBUCBABghQABAFghQAAAVggQAIAVAgQAYIUAAQBYIUAAAFYIEACAFQIEAGCFAAEAWCFAAABWCBAAgBUCBABghQABAFghQAAAVggQAIAVAgQAYIUAAQBYIUAAAFYIEACAFQIEAGCFAAEAWGmVAEkmk/pL/bup7yIiDQ0NKa+lW2663zP/P5FIuL43tcymluNdRrrlPW096dabSCSa3Ce/dfjtZzweT/m9eDz+1GXa8L6/6jXv+r3b3FxqX9Q54T223uP1rMe+KWqZ5vF82jpa4hgDf0ctHiDeD9rjx4/1z8lkUhcK5mt+hb1ZSHkLK+/f+xXA3u148uSJ79/4Lc+7XX78Cu7nYQaJKvjVOp48eeI6Rn7Bq/7Or8BWy8tUQZcuUL3vRSKRsC7c0wWj336Z68+k+vr6tMsmNPAyarUmLG9QmPxqKA8fPpSbN29KTU2NVFdXS1VVldTU1EhdXZ3cvXtXHj9+nFLAmsvzu1r1hoC5vnQFj19BkUwmdUHmrQWYy29qn73L9G5Hc2pM6cLNr6DzbnempDsOXub7obajuYVuIpFwbbe5f4q6IGiJgty86DHXlUgkmn0BBPwTtUqA+FX/zdeSyaT8+OOPMm/ePBk8eLBEIhEJh8OSk5MjjuNIOBzWX6FQSMLhsGRnZ0u7du1k4sSJsnXrVrl586Zett96/Qr2dIWp+bunT5+WNWvWyMKFC2XZsmWyfPlyWbp0qSxatEiWLl0q69evl8uXL7uW19zgUPsu0lhIXbp0SdauXSuLFy+WFStWSHl5uXzxxRdSWVmZ9srbG5QNDQ2yf/9+2bBhg6xbt07WrVsn69evlw0bNsi2bdvkp59+EhF3Dex51dXVyb///W/5/PPPZcWKFbJ06VLXPixfvlwqKyvl0aNHz7xs737fvXtXKioqZNmyZbJkyRJZvHixLF++XLZt26aX3xJNWN7lNjQ0SGlpqVy5ciXlPKI2gpdFq3eim1dodXV1snjxYikuLpZwOCyO40gwGJRYLKZ/Vq9HIhGJRqM6XMLhsP45EolIdna2lJWVyalTp1KaNcx1p3vN/Fl9v3v3ruTn5+vACofDkpWVJTk5OZKdnS2hUEhCoZAMGDBAL0NdHTe3iUj9Tm1treTk5Oj9N/cvJydHL9cvnNRrDQ0NMmvWLMnOztbHMDs7W7KysiQ7O1vatGkjOTk5snfv3rTLsvHee+9JKBSS7OxscRxHAoGA631SoX/x4kXfvp6nUe9XMpmUN954QyKRiDiOo8+LrKwsiUaj8s0337hqJ341lWfVVHNoly5d5OTJk67t8/4d8E/W4gGiCinvB3vRokXStm1bcRxHQqGQRKNRXeMIhUISiUT0l6qFqAJDvaYKpmg0Km3atJFoNCrRaFTGjx8vv/32m2sb/DrsvVeq3n9funRJF4BqnWr9gUBAb0NhYaGrVtXcTnDTiRMn9P6owl+tNxgMyt27d5tsGlGvDRs2TEKhkASDQf236rio47h8+fKMhUc8HpehQ4fqsI9EItK2bVsdrtFoVAfJ999/36zBEenWk0wmpXv37hIMBvWxUccrGAzKpk2brJbdHH7nS3FxsVRWVup/e/uCaMLCP12rNmElk0k5efKkFBcXu2oPqjBQhU4sFtOFqQoOVaD6hYuqgagrbHXF/cUXX6R0vqbrQPZ77cyZMzqgVI3IcRxdKKp15+XlpSzrWVVWVurlBQIBCYVCOlAdx5G7d++KSOroNG9o9evXzzd0A4GAPt5Lliyx3k4/JSUlkpOTI9FoVAeJqpGYNal9+/bpv2luAev9veLiYv0emIEbDAZlzZo1vn1Rz8NvOaqPzRsgwMumxQPELJi//PJLcRxHf+BVQawKHhUK5pWruqJt166d5Obmupov/P5WvaZ+Hj9+vNy5c+ep22hShca5c+dcfTBqmebVbzgclvbt26cs51k6q5PJpK6BqH1Tx0it78GDB09tIkkkEjJw4MCUkDND0HEcHSCZMnDgQH0sVPObKuDNMFMB4tfk0xzxeFx69OihzxEzHCORiGzYsMH1+5msifgFSffu3eXkyZMp74tNDRR4ET13gPg1DYmkdjjOmzfP1aRitmEHAgH9WiQSkY4dO8r8+fPl6NGjcu/ePdcHsaamRr777jt59913JTs7WxdQ6mrX7ENQ6ygpKdGd7Om20c/58+f1Mpr6UgHyPE6cOOHaZjMoHceRe/fuNWs5KkC8XyrwHMeRpUuXPvf2NrVOc13ma/v377deh3rPevTooQPSe6y8AdLSunfvLidOnHju5aT7DKmf/YZs/xXh9LIOXW7qPqbmlH+Z3A6/fty/UkZqIN5hjora2U8++USi0ai+UszKynL1Y6jO11gsJuXl5fLw4cOUZXk7XZPJpNTU1Mi//vUvV0etWbCor2g0Kn369JG6ujoRaX7ncWsHSFPreJECxGw+y3SAmE1Y3nW+qAEi4t9/YhZG8XjcNWQ6k/fxPMu2iTT2Yb5s/TvNHZ7dEgW7XwvJ3yW8M1YD8f6sfPXVVxKLxSQrK0v3bajmGVUQZGVlSY8ePeT06dP677wfIr/1qP//+uuvdXioZpQ2bdromohqEhsxYkTKjYxNac0AUX0gBEjTunbtqpsT/wkB4r1i9bu4Mc/TTIwsexZPu7/oZfC04PAei4aGhowV8t51Z2rwS6ZkpAbiPbBqJ8+dOyft2rWTV155RfdfmB9+1ZxVUFCg76XwuzlLJP14fPX65s2bXW3jqm9ENW2p1+bNm+e7zX5aM0COHj1KgDRDYWFhyrJf5ADxStdEYo7ya80bFf0KQds+rBeZNzzTvQdm2ZWp43Pnzh25evWqXL9+3bXcv0MtMGOd6N6DFY/HpX///hIIBHRNQPVPtGnTRhfooVBITp48qZfhrcqrqrrfm+ENlRkzZrg66FVzmXlfRSgUksrKyr9VgCSTSfnhhx8IkKdIJpPSsWPHf1yAeKeq8c4Y4NcG31rNGOb0OWrbli1bJrNmzZKLFy+2+Pr/at5jrI6DNyjMaYOUTBTwiURCPv30U916c+/ePVdz5l8tIwFiFvDqxN60aZPu2/B2qqqbAkOhkHzyyScpH6Dmrkv9W7l165Z07txZHMdJGQGk1heLxaRPnz4i8vTqYGsFSCKRkIMHDxIgT5FIJKR9+/b/uAAREbly5YocPXpUTpw4ISdOnJDKyko5fvy4nD17Vmpra6WhocG3kGoN5jr37dsnsVhMAoGAfPrpp62+La3NLF/u378vO3bskAULFsiHH34oc+fOlXXr1unWk5Ya4FBaWirhcFgKCgoyutxMyEiAqDRU1bx4PC5FRUW+9wOYd5fn5+e7hth6C/Tmpqw5LceXX36pg0t1rKsCTBU0wWBQvv7666cutzUD5MCBA67C1lsIEyCNH8z27dunXceLGCDqnpIpU6ZIdna2vl/HHIoejUalU6dOMnv27KcOSW8pKkQqKyslOztb8vPz5fjx43/JtrS2GzduyNSpUyUajeoZKMybWQOBgLz55pu6iUnJVJD0799fwuGwDBs2rEXnfLPx3AHibbONx+OyY8cO3XGtRl+pu6tV7SMcDsvChQv1ctINT0vXhOV9Tf3do0ePXMN7093J3rdv37/NMN5kMin79+93bR8BkkoFiN/xeVEDRBk0aJDrJlk1yMS7n/3793fNxtzS/PoeHzx44Pr3P9n3338vHTt21E3jeXl5MmrUKCkrK9P3P6ngLyoqkurq6ozPxaYuiKdNm+Z6/e8g4zcSJpNJGTVqlOtGNvUh8E5D8scff2RkfYp646ZPn64/gObNeWZTluM4+grKL6QSiYRcuHChVQJERHSAeGtLL2KAtMR9ICKN71OHDh189+1FDpBkMin5+fniOI6MGjXKdT7eunVL9u/fL926ddMzMRw+fNh32ny/qfvTTS5q/l0ymZSzZ8/Kvn37ZMeOHVJZWSn19fW+/TDedTQ123V9fb0cP35ctmzZIocOHdLD6M354rzi8bg8fPhQjh8/Ljt27JADBw5ITU2Na3vVetXP169fl0OHDsn27dvl8OHDUltbm/KZNltJjh07Jjt37pQ9e/bImTNnfGeUFmkMD3XBW1BQIFu2bJH6+nrXci9fviyDBg3S5+KYMWNSjm9Tx9H7fnhnta6pqdFzvanPrd8ghnStNenOhUzJ6CisRCIhNTU1kpub6xptZV4xqoJl0KBBGRuS6D14u3btSpkDSm2H2Tcyc+ZM/Td+J3NrjsL6JwVIS9ZA/ALkRa+B3Lx5UzdZvfvuu/p1s/DbtWuXPo7bt28XEZH169e7Zm0YPXq0bxNHeXm5BINBycnJSRnJU1lZKf3795doNCqvvPKKPvdisZh8+umnenmXL1/Woxodx5Fu3brpZTQ0NEhDQ4MUFRVJJBKRzz77THbu3CndunXTn8E2bdpIbm5u2kIwkUjI7du3Zf78+ZKXl6fDUg3Lf++991I6rm/evCkTJkzQIy5VK0c4HJY333wzZZbstWvX6slRzbKpqKhIduzY4XpPrl27pptLu3TpokPML7jv3r0r3bp108ft119/FZHGyVgdx9HNXuFwWKqrq1P2/bffftMDfTZs2OAqF48ePSrZ2dkSDAbl22+/1a9funRJ77c6d8zmTbWdp0+flpycHHnllVf032dynraM3QeiNmjXrl16okGz0DLnLgqHwzJnzpznXbXmfVPr6upcd7ardZrTpEQiEenUqVPK1YdJTWVCgDz7OgmQ5mloaNDnWTQalZUrV+p+EZE/P1//+c9/9LmraiDz5s3Tc8DFYjGZPn26Xq4ZPjNmzJBgMCht27Z1/f/Zs2d1oes4jgwYMEAGDhwoeXl5uuBWx3T//v2uVgXzSluksR9S1fpLSkokOztbunTpIuPHj5dhw4bpmaYDgYAcPHjQ9TyYeDwu1dXV0rNnTx0cnTt3lpKSEn0x6jiOzJ8/XxeuT548kT59+ujPeZcuXeT111+XDh066JGeb775pt6+FStW6BuZCwoKpH///tKzZ089uikYDEpVVZWuBUyePFmi0ajEYjH56aefXIH85MmTlHJv1apVekYNNannyZMnXZ+7/Px8vb9KIpGQY8eO6fn71EzZquayZcsWXXadPn1a/+2RI0d0eRqJRKRr164p51YikZCdO3fqlhe/aXeeV8anMpkxY4aeZddx3DPmmt937tyZkR3wGy8vIq4qvxki3jmirly5IiL+1UICpHkIkOezY8cOPeDk+++/16+bFzdTpkyRaDQqHTp00IXoH3/8IYcOHdL9jF999ZWIuGefFmmcoTkajUpJSYlrctFx48ZJOByWoqIiuXTpkl7X/fv3ZcuWLdKuXTvZs2ePxONxuX//vpw7d07atm0r4XBYZs+e7VrP2bNn9fuek5Mjn332mWvI6969e/X7NHny5JSmKHUO5eXlye7du/XfVVdXy6uvvqoDVh2TzZs368D69ttvXTcenzx5UkpKSmTq1KkSj8fl8ePHerbv0tJSuX37tj42N27ckE8++UQikYg8evRIksmkXLt2TQ/8mTJliqtZyTtFk9qH06dP64vk+fPni0jjqK2zZ8/qJq7XXnvN92bMtWvX6s/8hQsXXP+3YMECfW7cunVL/9/t27fl/Pnz0qdPH8nKypJx48alPGVVRGTp0qU6ZKqrq/X2ZmoYcEaasMyq5fDhw3VwmE1X5tW/4ziu6dYzxfzQjB49Wq9LVaPNu+BVmOzZsyflbxWasJqHALEXj8dl+fLl+sLm/PnzrouZy5cvy+zZs/Vn6LvvvnN9+E+ePKnP5YMHD+q/E/nzc9m+fXsJhUIyefJkVwGYl5cnjuPI4sWLfZ8Q+eOPP8qZM2f0Mm/evKnPo7Vr17p+d8+ePfp9+PDDD/Xr5jI7d+7sGkavrFu3Ttd4KioqXMGUSCRk6dKl+jPx66+/SjKZlKlTp0osFpPevXunPN8nmUzKvXv35JtvvhGRxmmCVPljjhwzt83cn5UrV+oawZEjR1LeM7+bBS9fviyO4+jmNlOnTp0kGAzK+++/73pdhd68efP0+28+aTWZTMqkSZMkGo1Kfn5+yj05IqJrkJ988omrb0b9PH36dAmHw5KXl9ciN4BmdBhvIpGQ7t27u27e8waI+rm5BWJzeJ8wmEgk5N13300ZCmnWRtTJvnz5ct9lJpNJAqSZCBB7yWRS3nnnHX3FW1xcLD169JCuXbvq56rEYjEZPny4nDp1yvVYApHGfhB1rK9du+b6PxGRe/fu6cL5s88+c61b9WeMHz/e9brfY3qTycYZo9XM196wWrNmjd5W78WhWt7gwYMlEAjIsGHDXE10PXv2FMdxpHfv3q6/U/tRXl6uC/SqqioREZk8ebJEIhFp166d3L9/31U4elsjfvzxxyYHWngL3dGjR+tzVk195NdnY/589epVHQJqtouGhgapq6vTy1Jljfd+HnWfR1FRkWu74/G4lJSUSCgUkiFDhrjWL9LYD+I4jX0sZgCaNaUhQ4ZINBqVfv36pWx3JmSsCUtdwajnQpgdR2ZhEv7vsLdMzunjN/3D7Nmz9TrVqCtzO1Sgffzxx2mXS4A0DwHyfEaOHKkLZvPYqRFA6h6QixcvprRhf/zxxxKNRiU3N9dV8KvPxK+//qqXt3HjRlehN2bMGH1elJaWyrFjx/RyvaOF4vG4bNq0SY+kvHbtmmuk06xZs/QzbMw+AnN7Vf+E6ptIJpNy5coV3USzYMEC/btqX+7evSvFxcWSk5Mj3bt31wX5v//9b32MevXqJdu3b3c9Mtlc7+3bt/WzdXJzc2Xu3Lm66dq7n0+ePNHzrZWUlKT8jl9tR6Sxs1pdoKp+LJE/J0kNh8O678e7jT179pRIJCKjR4/W/6d+T/VHvf322ymj7Q4ePKjfW3UeesOhY8eO4jiOlJWV/T1HYXk3Su2Qap/0NmOpq4ZM8U4ypv69YMEC10gL8/kRZt/IBx984Go/Nd8AAqR5CBB7iURCCgsLxXEaO59PnDghx48flyNHjkhFRYXMmTNH10Q6dOgg1dXVrvN05MiREg6H9WOVvQXI7t279fuhHn6lLt7OnTunm7HUV7du3WTjxo2+z6+fM2eOHs2lmpnU+kaNGiWxWExfRattUf9/+/Zt3dyycOFC16AbdbPxBx98IGfOnJELFy7ITz/9JKtXr5YuXbro1oPvvvtOH7PHjx/LkCFD9AViLBaTvLw8mTVrlu4MN23YsMF1TsZiMRk5cqQcOHBA/44qtNVF77Bhw1JqM97fVfu5adMmV1B4Xw8Gg3L58uWUC4B4PK5rn9OnT3cFr6q9hMNhWbRoUcp5s3r1av3/aoi0ufw7d+7okVpm7bOpgUPPKmNTmSjmHZrpAsTvAUzPu27vSKyFCxe61quasbxNWO+//37Km2pevTUnQDp06JByxfWs+7Znzx79QTEfpqV+VgHytIn0WjtAzA5Qs6nQbxTcwYMHrYYQmr9vBpT5vjqOk9Iu39IyESCPHz/W+6Tazr3nzt69e/Vnau3ata7jUVhYKJFIRN566y3X36hCYunSpXoElDnKSLl8+bK89dZbrkcPO07jMHvzWTyJREJKS0slFArJgAEDUpp0evToIcFgUMaMGeN7r8ipU6d0WbBjxw79O2vWrEm5YFLlhHqPO3bsKDt37nTtXzKZlIcPH8qiRYukQ4cOrvOhoKDA9b6YV+yDBg3SrSDqonLu3LmumpY6v0aOHKmX4R0V5y1v3nrrLQmFQpKbm+saTjtv3jz93pnHXi3n2rVren2rV692ha5Ze9m6davrfRURee+99/TgAHMblbNnz+qL5a1bt6bMGPK3CBCzCUukscplNmGZJ4eqqsZisRZpwlLbk0wm5aOPPnL1vZjrNwsdNZzYr8BvjVFYanvVSBzzQ2wGnXqk7dOC6a+ogQwYMMD1gVffvQW9OcKoOfvilUgkUo6Nek8jkYisX7/etdxMtvX6yUSAnDt3Tp+TK1ascP2fOq/r6up0ofr555/r/7t//76Ew42TlC5ZsiTlBr2GhgaZNm2aBAIByc7OThmdZf5869YtWbt2rfTo0UN/XtS6lKKiInEcRyZOnOj62ydPnojjNLbFf/jhhylNLYlEQo+aCofDeqSRSOPwV/V5nDRpkkyZMkXGjBkjpaWlMnPmTNm+fbvuNE53A+KjR4/k+++/l9dff12fF4MHD9ZX+N7jeeHCBfn444/1aNGsrCw5c+aM3mY1k8Wrr76a8n74heOtW7ck/N9+prKyMleZOG7cOInFYvLqq6+mhFAymZQff/xRfz737dvnqh1UVFToc/zUqVMp+/Haa69JMBiUIUOG+DaN7d69W8LhsOTm5upaUaZl7E50tVM9evTQH2qz4DJv6AuHwxmd08dvSJqau8Yc/aVOLvPu9JUrV+q/8Z6YzW3C8j4T3SbZt2/fro+TOhlVmKhBB80pGP+KACkpKfFtdvMOYFBNEGofmlPAe3/HrEWqY6P6D9avX9/s5WZCJgJk3759EolEJDc3V9/M5u3oPHbsmOTk5EgoFNIhKdJ4fqpjoPZdUYXViBEjJBqNSv/+/fXnxK+TXKTxc3T37l0pKCgQx2m8K16dy48fP9bnpHcKoitXrriuok1qnXPnztUXlubd3Fu2bBHHcSQQCOhaht+ceOo1FSbeUWPq32+99ZY+H9Rw3XSheejQIf1ZW7lypd7XwYMH66afP/74I+Xz7L34LSsr081U586dE5E/y4BevXpJLBaToUOHul5XvvrqK93c/3//93+u7Vy8eLH+LN24cSOl417duDl+/HhXDUpZtmyZfhbT1atXXcf2bzWM16zOjho1SiKRPx9T6715T7X3qeF4zytd05GaTsUs2FTtx5xkUQ3j9S5PpPlNWNFoVP9tupP1aSoqKlxBa05BH/7v8D6lqYD6KwKkf//+adel/h0KhWT37t1p25SfRv2d90LErPGo+yBaSyYCZPXq1frzcvr0af0+m8dp6tSp+py9fv26LkTPnDmjz79Vq1alLPvKlSs6eCZMmKBfTyaTsnbtWt97EhoaGmTChAkSCARk+PDh+v9OnTqlP0Pbt293FUD79+/X74P6PHmbuIYOHSqRSCSlr+b8+fP6czlu3DjX35rnSGVlpS789u7dqwtEkxlI5mdGXSR6l6uaD73BN3v2bF1uTJ061fVeeFs7ysvL9b7PnTs3Jdh69uwpgUBABg0a5NpvtS2vv/667htSrQzqfXnnnXd0DUIxa3UFBQUSDodTbupU+6aa62KxmGu5mZTRubASiYTMnj1bYrFYShu4+q4KcO/UAbbMN0sldCKRkOLiYteEdKot0Cx4HMeR33//Pe3ymhsgjuPov7Vt39+6dWtK85V5hd3cJ5H9VU1Y3nV5By04jqPf82etJajfr6+v11erqknHbCY1Z1jO9HBFP5kIkNmzZ+vpKH755Repra2V69evy9mzZ+U///mPjBw5UoeH2ckqIlJVVaX3/fXXX9dPwhNpnB6lf//++r6nt99+W0RE343ct29fmTBhgty4cUNE/jwPz58/r++bWrhwoS7ovvvuO30+7tmzRx4+fKin7Ni4caP+P3UFblIDBXJycmTcuHH6xjtVIPfr10+f5+Xl5Sk37lVUVEjPnj31awsXLpSioiL9HCHl0aNHujas7jW5du2aRCIRKS8vT5mEcsOGDfocPXXqlD62169f19OpqOOujpNIY+H8888/S2lpqa5dl5aW+g48GDdunP5cXLx4Ub9eX18vc+bM0RcPsVhMHj16JOfPn9cXCMOHD5dwOCyFhYX682/O+NuvXz9xnMY73FWgJhKND+SbOXOm/tzl5eVJMpmUn3/+2dFMN/cAABL3SURBVHew0PPIeB/Izp079ZTU6s0xC3FVODY1fPZZea8sampqdFCZgWE+lz0SaZzSwDt6y9yv5k6m6DiOftNtr6zXr1/vKhDNIInFYr5Dlf38FZ3oajSM37rMGujmzZub3PZ01L7fu3dPv69mH4v6EO/atSvlOLWkTATImDFjXPcoqQsdVXNQtehJkyb5dn4OHz5c1/b79u0rc+bMkXfffVdycnKka9eu0qVLF8nJydEF0axZs0SkcUhtIBCQ3NxcGTZsmJSVlcmQIUP01CGFhYWuO5ePHDmi7+/Kz8+Xjh07yuHDh0VE5KOPPtKfqUePHrmu1NX33r17S5s2bSQcDkuXLl3ko48+EpE/azfmzb6dOnWSESNGyOjRo3VzmurTEPmzeTocDkvfvn2lrKxM/vd//1fat28vsVhMIpGIbi49duyYXm5hYaGMGzdOJkyYIL1799bnaGlpaUrz3qZNm1w3IjuOI7169ZIBAwboGyLVBeqUKVPk4cOHrvdV7ffGjRv1KLPc3FyZNm2azJo1S3r06CHRaFRee+01vR1du3aVzp076+NXWlqqy83hw4fL4MGD9TxoIn/WXoPBoBQWFsq0adNk5syZ0qVLF2nbtq0MGjRIvy9FRUXSo0cP3218HhkPkGvXrkl+fr4uqM2mDLOAGThwoOuOyufhrS6roYHmyBI1r435uveOUW/z09WrV5sdIOoGJ+9ymmvRokWuWpv53Zzn5u8YICNHjkzpA/G+75FIRJYtW9asfUjn6tWrkpOT41qXWRM5duyY7x3VLSUTAdK9e3ddSKkQycnJkTZt2khhYaFMmjRJjhw5krJP6t9Xr16VXr166XNatf/36dNHLl26JGvWrHG1AKjmp+PHj0uvXr1085F54+/gwYPloueekwcPHkjfvn31VXl+fr7U1taKiMjEiRMlEom4rpTNbVRNZrFYTAfjli1b9O8lEo3zQfXs2VN/Vs2+rZKSErlw4YJeXlVVlbzxxhuupl712e7cubPuS1EF5Jdffukqk8xWkWnTpqVMT6+u0E+cOCEDBw50TexojowcPHiwDiqzw94boFOnTpVIJKJbZoLBoLRr1042b94sFy9elI4dO+r3f8SIEfq4fPvttymfq3Pnzull19fXS1lZmYT/2+esQjgvL0927dol586dczX5Tp48WURSb2R8HhltwlInj9muZzYXmVeN4XBY3zmbCWY7pZo8znslr15T26HGgKe7alXjsJ/2FQ6H9SgOEbtnRs+cOVNvl1kLiUQiuv20Of6KJqyxY8emvVgwawhz5851VZ+f5fjE43H56aef9DrMY6R+Vk0EL9IorKqqKrl27ZpcvXpV/1xTU5PSyen9wJv/fvz4sRw4cEBWrFghq1at0ue1CtNff/1VDhw4IL/99pvr71SQbNiwQcrLy+Wrr76Ss2fPukLYu55Dhw7JDz/84JqX6ebNm3L9+nVXjUUx3++zZ8/KgQMH5Pz58777EY/HpbKyUtauXSvl5eWyceNG3eTmV+D9/vvv8vXXX8vSpUtl9erVcvjwYddUIGr9Io0BuH//fvniiy9k+fLlsn37dn0zpN/IKvU9mWyckWLbtm36+G7dutXVlOQ3AkrEPRjgl19+kXXr1kl5ebls27bNNR9XXV2dHDp0SI4fP+66J01E5Oeff5bly5fLl19+qZsMvef16dOnZf369XrZDx480Pt169YtOXDggJw4cSIlOP4WNRARd3tzfX29VFRUuD7g5kSKZsHy+eefp3xQ/EYHeA+YuT7vydLQ0CB5eXmuK1NzG1RSe6+W0jHvyVDfzaYx1X6tZtFU2+e3D029YSNHjnQ19ZnPLZkyZUrKsWnufSBmX4o6Ft6aQFP8TjjvldqHH37o22Spjo+aMmPixImu46E09SwDswD65ptvXMfFbF6IRCKuZoTWeGZ0Jh8oBbyIMtaEJfJnL//Dhw+lc+fOroLbLMzUBz8/P193PHkLRDVmvamCwG8E1oYNG3Shkm79athec/Tr109XO832fDMUg8GgLF68WG+3uQ/efTPH4psjXwoLC11Dd81O6DVr1jT7qtqvBmIGd3Z2tixZsqTZnfLedarObNOyZcv0VBFmVV9V29X0/sXFxa7RZH7LTjfWPplMyoIFC1zPPwgEAnoqbtVGbgZ1S4cIAYKXXUYDxOzhX716tW7zM2sf5vPRHcdxjSl/2nr8Ck+zYK2vr5eioqKUez68I8A6d+4s9fX1zSpEp0yZklKLMkd0qa/x48c3OUWAWeia643H43L9+vWUfgNzXapZId2yTelqIGqbQ6GQLFmy5Kn77eW3XlXYHz16VA9QULUNs8Zjbo9ZdTebSvzeC29NZ/jw4Sn3gKgwmTFjhqsJ8UXpRAdeZBm/kVCpr6/XHYRmQeYt2HNzc+WXX34RkdTOHb/OHlUr8Xt9/vz5umBXBYvqjDOn16ioqGh2+5+6G1R1wPlNzKielXz//n2972qb/LZdUYXm8uXL9XaqWohaT6dOnVyT06U73orf42VVWKv9V01YzTkGfo9B9e7bw4cPXZ3bZnOWqim0bdtWsrKyZPv27b7j6c398tuu6upqVzOi+lmN+Dt8+HDKcloaAYKXXcZuJPTrPDp58qTrORxmn4EqaAKBgPTu3VuP6FD8Ora9Y/vNwmb//v2uEVZt2rRx1XrUU8omTZqUstym1NXVSXZ2trRt21YXkN6hpGqE19atW1P6CdTx8b6mmu7q6+uluLjY1cxkhu7s2bN9t+tZR2GZQ0KXLl36zM07Txs7PnHiRMnNzXUFrXlXvaqdjBo1yvV33iYrb61DbeeCBQv0XbXqKXyqKbGgoCBl2m3vzy2BAMHLLqOjsLyPqRQRWbx4savfw2xSMcd+9+vXT6qqqnzvuDYLL78r1MOHD+tnHavlqStesxmlZ8+ecvPmzad2aHtNmTJFAoGAHjev5vRRTShZWVl6+Y8fP/ZddrrBAUv/+8Qws3amrt79nq3gPS5efgGiAjwabXw2ter/ae4x8I4yMW9YU+/N0aNH9bh4NQLP28ynvn744Qff7U83guXixYt63iJzjjV1oVBeXt6qwaEQIHjZZawGkm6EUDKZlLKyMj3+WxXyZsGrpoju3LmzfuKa31A8r4aGBn3/hCrcVUGsbnpSE6O1b99e33X+rAXM77//7hqmqrZXhaCqVYXDYfnggw9SjoHJnKpi586drnHlZj9NLBbTo6+8x+BZAkRtnwqlaDRqPeWH3522Sjwel5EjR7qmYjGPmdl31KtXLx3k3iYx8wIhHo9LXV2ddOvWzdU8pjrlHceRwsJCPaS0tREgeNll/Jno3hqISGOhUFZWpod0emfEVYWcKpCHDh0q27Ztkzt37qSEUTwel6qqKlm1apUUFxe7mmdU4W4Gieo0N2fbNLfzadTvL1iwICUs1LrNfXIcR6ZPny53795NaYYxb4RSswWb/UFmjaGgoEDq6up8m8Kaak7yBog5/5d6bcCAATJo0CAZMGCADBw48KlfgwYNkpKSEhk7dqycOHHCt8lJpHFuJjVIQu2T6tsxAywUCkmfPn1ck8ep5ZiT5lVUVEjHjh31Mr1hFIlEZMuWLSnHwvvUvpZCgOBll9EmrHRU4fDxxx9LmzZt9NWpWciYHa9mh2/37t1l6NChMnbsWBk6dKh+/oEKIG/Hrfd+jz59+ugbzNLNQtqcbX/8+LGMHTtWF8SqUFOFsllIh0KND/+ZOnWqrFmzRioqKmTjxo3y2WefyYgRI/TUEub2qwAKh8OSk5Mjhw8ffqZmNrUv5rM5/JqPnvXL3M5IJCL/8z//47pY8F4wbNmyxXXjqDkowFvTcpzGGV/Ly8tl69atsmnTJlm1apX861//0g9ZMkNINRuqbfPOJNBSzL438z3p2rWrfkiT0lo3MQJ/B60SICJ/Ft67d++WDh06uK7kvTcY+j2/Q/1bXcWq2oY5KkdNShYMBqVt27YyderUlAcxqTb8Z6FGVd27d0/Gjh3rKvDNu6HV1b7jND5jQN0b4b0JUY228t7kqJrcbCaaVAV43759U6Y/eN4AUd/VPly5csX36l4d43Xr1unfVe+JeQy8761q0vSeA2ZNRgWrOn6TJ09+5vfRRrpBHIlEQrp37y6VlZW+YdEakzkCf7VWCRBV2Ki5r2pqamTWrFm6xqCGYpqFiHfIprdAU7+jCm2z6apfv35y6NAhvf50d6439wpf/Y3qvygvL3fVksztUa97bz5UBaFfrUn93K1bNzl16tQz1Ty8BfngwYNdgfq8AWLW6NST7dST/9LdmS4icvToUenWrZvr+R3eIdaq5qZuCPTeAGo2V6l1x2IxWbJkSat1lCvePrlkMindu3d3zQjbGkOHgb+TVq2BeEfZXLt2TT766CNp166dLkwDgYC+0vQrzLwds2Yzx6BBg/SUIn7TFvv1JzyrRCIh9fX1cuXKFXn77bdd/R9mc43ZNJWdne0aNKBCU21/fn6+LFiwQB48eGDVfq+COZlM6nnAzOP1PF9mMKplvvHGG671+w1TTiaTcv/+fVm2bJl06tRJ3/Ojts2shanA9btQMJvQxo0bJ2fOnLF6356X330rXbt2laNHj6ZttmrtkANaW6vWQNTPfjfF7d27V2bOnCklJSX6ytlsrvLe1RyNNj4LeOzYsbJy5Uq5fPmyXp7fyB6/K8jmfsC9BaT5vba2VjZv3iylpaVSUFDg6tNR228+J17VDNq3by+lpaWyefNmefDgQdpp5Z912+7duyerV6+WadOmyfvvvy/Tp09/rq/33ntPpk2bJjNmzJB33nlHZsyYIV9//XXa5hnvKCp17Pft2yfTp0+XXr166eYoVfNUzX7m+66+l5SUyOeffy6//fab62lqrdU8lEgkfG/+jMfj0qtXL9fsqDRZ4WXTKgFiFujeK2w1kscs7Ovr6+XBgwdSV1cnN27ckKqqKqmurpba2lqpq6uTO3fupMypJPL0eai8cyU9y7Z7l2u+bu7TkydP5MGDB3p7q6ur5caNG1JbWyu1tbVy584defLkSdo+hGedLdNvO1qqb6ChoSFldJ15TP2Ov9pG73xg9+7dk9u3b0ttba1UVVVJVVWV1NTUSG1trdy+fVsePXqUMh+a34VAazIfp6q+p3sfCRO8DFo8QJ5nYrt000KbrzW1bO/fpxt+2hzeAtFvyvanzdfl3VbvPF5+2/o8MlGI+U0b4w2SdM2ETTUhNtW06A1Ab/Ont1bQ0sz3xjvdtvmaiQDBy6BVh/GaP3sL83SFTboPYlOFk7cAMq8Yn2e+pKYKhXQ1h3Tt4+lC5VlrIN51tFRHrnqPvMtPd7X9tOPRXN6gau0aiN/56l1/uuNPiOCfrtU60QEA/ywECADACgECALBCgAAArBAgAAArBAgAwAoBAgCwQoAAAKwQIAAAKwQIAMAKAQIAsEKAAACsECAAACsECADACgECALBCgAAArBAgAAArBAgAwAoBAgCwQoAAAKwQIAAAKwQIAMAKAQIAsEKAAACsECAAACsECADACgECALBCgAAArBAgAAArBAgAwAoBAgCwQoAAAKwQIAAAKwQIAMAKAQIAsEKAAACsECAAACsECADACgECALBCgAAArBAgAAArBAgAwAoBAgCwQoAAAKwQIAAAKwQIAMAKAQIAsEKAAACsECAAACsECADACgECALBCgAAArBAgAAArBAgAwAoBAgCwQoAAAKwQIAAAKwQIAMAKAQIAsEKAAACsECAAACsECADACgECALBCgAAArBAgAAArBAgAwAoBAgCwQoAAAKwQIAAAKwQIAMAKAQIAsEKAAACsECAAACsECADACgECALBCgAAArBAgAAArBAgAwAoBAgCwQoAAAKwQIAAAKwQIAMAKAQIAsEKAAACsECAAACsECADACgECALBCgAAArBAgAAArBAgAwAoBAgCwQoAAAKwQIAAAKwQIAMAKAQIAsEKAAACsECAAACsECADACgECALBCgAAArBAgAAArBAgAwAoBAgCwQoAAAKwQIAAAKwQIAMAKAQIAsEKAAACsECAAACsECADACgECALBCgAAArBAgAAArBAgAwAoBAgCwQoAAAKwQIAAAKwQIAMAKAQIAsEKAAACsECAAACsECADACgECALBCgAAArBAgAAArBAgAwAoBAgCwQoAAAKwQIAAAKwQIAMAKAQIAsEKAAACsECAAACsECADACgECALBCgAAArBAgAAArBAgAwAoBAgCwQoAAAKwQIAAAKwQIAMAKAQIAsEKAAACsECAAACsECADACgECALBCgAAArBAgAAArBAgAwAoBAgCwQoAAAKwQIAAAKwQIAMAKAQIAsEKAAACsECAAACsECADACgECALBCgAAArBAgAAArBAgAwAoBAgCwQoAAAKwQIAAAKwQIAMAKAQIAsEKAAACsECAAACsECADACgECALBCgAAArBAgAAArBAgAwAoBAgCwQoAAAKz8f2tDeoEWBCERAAAAAElFTkSuQmCC;" parent="1" vertex="1">
          <mxGeometry x="510.84" y="490" width="220" height="220" as="geometry" />
        </mxCell>
        <mxCell id="bewlppvLgTkB77JRoysf-1528" value="" style="shape=image;verticalLabelPosition=bottom;labelBackgroundColor=#ffffff;verticalAlign=top;aspect=fixed;imageAspect=0;image=data:image/png,iVBORw0KGgoAAAANSUhEUgAAA5gAAAOZCAYAAAB7lI8YAAAgAElEQVR4nOzd3Y3cuLaG4U6yI3EIOxNHYQfROdSVCugADLgbsM7FHNqyLFXpn4vkU8ALz57t6bdIURK/XhT10u/43LtuM7y8vLy8vLy8rXhv759/8eXbz8UM/7uxI2p7eXl52/W+1NIQXl7e/d40eRlPhMbU0l5eXl7eo7zDvz8Mhy//609jGEBb6WdeXt74XgGTl7dR7zg0jn/2j9vXv/754+11Mz9uX7O3l5eXl/co7/j/uyJMrgmdW38ZGK2feXl5y/QKmLy8DXrv3XRo/PX95XAETF5e3lq86d9FCpRLK5wl9TMvL2/ZXgGTl7di7737O0ieESDnGIbK2vuZl5e3Xm/6Mz03mTs07g2cUfuZl5e3Hq+AyctboHe8/One/RckU5i8MkguDZYl9jMvLy9v6aFyLmhOVTVbPL68vLwCJi9vc96pTXYiBMm1wTJ6P/Py8vKmTw3Vyi1VzVaOLy8v77leAZOXN6B3vPFOxEC5NlhG7GdeXl7e4aelYDkVNFN/1Xp8eXl5r/EKmLy8AbwlVCj3BssI/czLy8s79Wk5WM4FzZqOLy8v77VeAZOXN4A3PT+ZOzQu4ePttdh+5uXl5R1+BMvjgmbE48vLy5vHK2Dy8mbylhQqU7C8d92md6vl7GdeXl7eqY9guYxSjy8vL28+r4DJy3uht4Slr4+CZXouNHo/8/Ly8s55b++f2UNbaSx5PjPK8eXl5c3vFTB5eU/2llapHAbLH7ev/2w4FLWfS/OmPh3+Oaam9vLyRvCqWh4TNKMeX15e3hheAZOX9wTvveuKq1QOmQuW0fq5BO9UcJzr13v39/tM0z+P2eqtuZ95eR95VS3PD5ktjiteXl4Bk5f3FO+w0lTiEthx1TK1KVo/l+RN/829+zswJs48fkOSezxen4XOUvqZl3cJqpbnEOX48vLyxvO+RPoyvLwleu9d2dXKFEyi93ME71xVcLgMOvpYGIbPqP3My3uUV7g8l+EvWFsaV7y8vI+9AiYv70Zvic9V7g2WOfo5gnccJM+uROYYB8Plt1uW1ZZ8fHnr9OYOX63w5dvPpsYVLy/vc6+Aycu70ltLsFj6LF+ufo7gvXdddWFyzfgYPou7NHCWdHx56/R63jJPyKx9XPHy8i73Cpi8vAu89678ZbCJ9JxlxH6O4C39Odqzxkx6ltPzm7yRvZbE5qXWccXLy7vOK2Dy8j7w3rv6gqVXYPz9ESj3h83Ix5e3Ha/KZQxqG1e8vLzrvQImL++E997VEyx/fZ9+7UiEfr7KOw7UQuV5YTPH8W1tPPP++1G5jEUt44qXl3ebV8Dk5e3+BJAaNu4ZB4C55Yy1H9+pnV6FyvNIQbP2ccUbz6tyGZPSxxUvL+92r4DJ27R3GEBqCh+psvRoU5Yaj69QmZ89z/hGHVe8cb3CZWxKHVe8vLz7vAImb5PeFEJqDCBTy2FrP77jUJn7GODl6bs2SxhXvLG9lsWWQWnjipeXd79XwORtyltzsBxu4pO7n6/wjquVtR3PWlhT0YwwrnjL8KpclsOSV5hEGVe8vLzHeAVM3ma8NQeRpVXLGo6vamWZLAmaEa8bvDG9uUMTjg2ZUcYVLy/vMV4Bk7d677BqmXuSfTTDHTxz9/MV3pp/SdAKH2+v4cYVb1ne3GEJx4fMCOOKl5f3OK+AyVutt+ZgOX6nZQvHt8ZlzS0z9XxmhOsGb2yv5y7LZi5k5h5XvLy8x3oFTN7qvLU/lzesALVwfGv8BQH+jOXhmGhhPPNu9wqXdRBtXPHy8gqYvLwPPzVXLX99f/mnf2o+vrUeQ/xLqmZurcaXMJ5593lt6lMPU1XM1sYzL2/t3pdIX4aXd6u39mA596xlLce39qpz6Xy8vT4ljdEft6//8Oy/TY5axjPv8d7coQjHh8wI44qXl/ccr4DJW7y35mCSJu5zz1qWfnwFyzxjahwMh+w9vsPXxyyllvHMe47X0tg6ub1/NjmeeXlb8AqYvMV6a69afry9Pt3Ep9TjK1ieO27GwXFt4Ct1XPHW57U0tm5aG8+8vK14BUzeIr1pIlxrOBm2sbbjK1juZxwip47JVIUwyvnLy7v0kzsA4VzSUtlWxjMvbyteAZO3KG8LVcvUzlqPr2C5jq1LVyOev7y8az6WxrbBns29ShrPvLwteQVM3mK8tVctHz1rWcPxrfWXAkcxrkiWdnx5eY/0WhrbDnPvxqxpPPPytuYVMHmL8Na8rHJt1bK04ytYTh/z4c6r6fiPl7WWcHx5ec/wql62xZ6QWcJ45uVtzStg8ob21r4kdkvVspTje+/q/IXA3jD5aBfVko4vL+9ZXtXLNql1PPPytugVMHnDemuuWv76/vJPe2s5vjUfs6UMn5m02Q4v7zpv7qCDPGytYkYfz7y8LXoFTN6Q3jQZzx0UzmD8Qvmajm+tleZnxzNVKK/q51zHl5f3bK/qZdvUNp55eVv1Cpi84by1L4mN0s9Hems9XnOBMm3Gc3U/5zq+vLxXeXMHHORlSxUz8njm5W3VK2DyhvPWuLxyXLWM0M9HeFsJlo8qlFf0My9vC17VS7z8b/0YizqeeXlb9X759lPA5I3lrTFcPgsmJR3f4bOENR6rcaBMmzBd3c+lnr+8vHu8uYMNYrD2efWo45mXt0Xv7x3AS28Ibz3e3KEiR7jM0c9bvbUHy7mdXks7j3h5S/SqXmJI6eOZl7dVr4DJG8Zb6zLLaP281Vvrq2IevT6kxPOIl7dkr/deYkjp45mXt1Xvy//+/3oe4cvwtumtMbSk4JLaF6Gf93rvXV1Vy+ErRCL1My9vy97cgQax+PLtZ9HjmZe3RW/6RaGAyZvFW2tFLIWXte88jHx8awiWqVK5p68jnke8vLV4LY/FFKWOZ17eVr3p3BUweS/3pvBVQ3CZC5cR+nmv98fta/HHaLhJj416eHnjenMHGcRk6XU72njm5W3RO/xFoYDJe6m31nC5dkls9ONb8vFJz1ROPU8ZrZ95eXn/I3eQQUyWLpONNp55eVv0Dp+jFzB5L/PWugNper/l1nAZ6fiWumR5aqOeyP3My8v752fZ3AePKGk88/K27B2etwIm7yXeNOHPHUSOZvgKkgj9vNV778oM/kt2f43Uz7y8vP/+PAETj1iyTDbSeOblbdE7fo5ewOQ93VtruBz3T+5+3nIx6PvyqpbD5cg1babEy9uqN3eAQWyWLJONNJ55eVvz9v30eStg8p7mrTFcpiWxkfp5LaUtV05LYPu+Xx0qaziPeHlr9do9FksoZTzz8rbqHZ+zAibvad6WwmXOfl7jKe31MMMlyCX1My8v7zKv5bFYwrNlslHGMy9vi96p67iAyXuqN3dAOTvsROnnJZRUtXzUJ9H7mZeXd7k3d3BBGTxbJhtlPPPytuidO2cFTN5TvLlDypXhMmc/P/vZpVQtH1WHS+hnXl7e9d7cwQVlIGDy8sb0zq1CETB5T/HmDitHsrQfIh7fEt47uiS8R+9nXl7e9V7LY7GG6OOZl7dF79z5env/FDB5j/XmDiw5wmWOfn7mjfwM7HDTnqPaW9t5xMtbs7fvvf8S64g8nnl5W/P2/eNruIDJe6g3d3A5MgBF7udH3shLYtMrRo5sb43nES9vC14BE2t4tNFPhPHMy9ua99n5KmDyHuLNHV5yhssr+/mRN+pGPj9uX39/vyUvzY7ez7y8vPu9uQMLyuLRc5gRxjMvbyvevn++AuX2/tm/1NwJvOdvIHPvYi7D3BuEIvXzUm+kY/FoGWzU8czLy3udN3dgQVl8+fYz9Hjm5W3J+yxgfvn2U8Dk3eYtYQOZteEytSlSPy/1RlkSu2QZbMTxzMvLe5339v6ZPbCgPObGX+7xzMvbknfJ9fvedQIm73pvjeEyYj8/Iy03jXAc1jxfWVo/8/LyHusVMLGFqOOZl7cl75Ln5++dgMm7wVtjuIzYz4+I8rzllo17SupnXl7e470CJrYQdTzz8rbiXXrtvncCJu9Kb9QdSrcQuZ/niLJL7NbNkErpZ15e3vO8dpDFFqKOZ17eVrxLr933TsDkXeGNEGyOYqpvovTzHBHCpVeN8PLy7vUKmNhC1PHMy9uCd2n1Mm3IJWDyLvLmDjZHErmf58j93GsKll41wsvLu9crYGILc5vw5R7PvLwteJdetwVM3sXeml5H8qhPcvfzHDmft0yvGxnvsHtme2s9j3h5ef/7CJjYwtyrSnKPZ17e2r1rnpsXMHkXeWsKl5H7eY5c/T8XLEsfz7y8vPm9Aia2IGDy8ubxrrlmC5i8i7y17Bi7pC+iHd8c4fJZsCx9PPPy8ub3CpjYgoDJy3u9d+2u32nuKGDyzn5qee4yej+Pf1auzXx+3L7+9tc4nnl5eWN4BUxsQcDk5b3eu/Z6rYLJ+/RTQ7hc0wdRju/V4XJNsCx5PPPy8sbwCpjYgoDJy3utd8s7i9PPEzB5Zz+5w+GV4TJnP6efcXXlcrgzbAvjmZeXN4ZXwMQWBExe3mu9W67V6ecJmLyTn9zhcC+l9HPyXrlT7NLnLGsaz7y8vHG8Aia2IGDy8l7n3VK9fPmfgMn74FP6pj5b253r+F4ZLn/cvmZvLy8vb9teARNbEDB5ea/zbrlOD8/Rlxo6gfcYbw2b+qR2RO7ncZ/3/fmh/uPt1bsseXl5Q3gFTGzhy7efIcczL29t3q3X6OE5KmDy9veujvddDtsRtZ+n+vzMcDl8znLcN1e3l5eXl/feCZjYRvqFbLTxzMtbm/eIc1TA5K0iXJbQz1N9fma4fPac5ZXt5eXl5U0/Q8DEFgRMXt5zvX2/7xEGAZP3L27vn0U/dznso8j9POzvM/t86e6wV7WXl5eXd+gVMLEFAZOX93zvnnN0+BEwG/eW/txlKf087O97d17lcs3usFe0l5eXl3fs3bo7IdpGwOTlPde795d/w4+A2bC39KWxwx1RI/fzuM/PCJdTm/hEaC8vLy/v2KuCiS1EHc+8vLV495yf4024BMyGvSUvjZ0Kl1H7OfX1WdXire+0PLO9vLy8vI+8ucMKyiPyeOblLd279/wUMHn7e1f20ti5cBmxn8/s7x+3r79/drT28vLy8j7y5g4rKIu5V5REGc+8vCV7j3hsYbyEXcBs0Fvy0tiPt9di+nnY30eGy4+3198hu6TXsvDy8vImcgcWlIWAyct7nveIc1TA5C12aeyzcBmtn1Nf37vjwvy4D6K1l5eXl/eZt+/3bYWP9pjb4CfCeOblLdl71LV4/BEwG/OWujR2SbiM1M+pr+/dceGyxE2NeHl5eae8AibWEH088/KW6D1yR+/xR8BsyFvy0tiS+jn19e398/RwHaW9vLy8vGu8XlWCNUQfz7y8JXqPOj+nlrALmA15S10au6YPovTzvTvmXZePNjSK0l5eXl7eLd7coQVl8Oj5y0jjmZe3JO+Rv+SbWsIuYDbiLXVp7LOAFa2fj+zrJd8pQnt5eXl5t3hzBxeUgYDJy3us9+gVJFMfAbMBb6lLY9eGy9z9nPp6b7hc+rxphPby8vLybvV6DhNLeLTBT6TxzMtbivfoa+/UZ/nDbZk6gfcYb2lLYz/eXje9giN3P/d9vztUp+c3S2kvb3neNL7SWBuz5zP3M8cMv0et/cz72Os5TCyhlPHMy1uC9+jr7pdvPyc9AmYD3ntXXvUynQQl9XPf7wvyKVyW1F7euN5HwW7Ij9vX39y7/54dnmPpL4emSD8//Zk4Kti2dnxr8AqYeMbc5DXieOblLcF71TkqYDbgLa16ee+2hcvc/bxnaezWNudsL29s7zA4rg2JVzIVQkvqZ959Xstk8QgBk5f3GG/fn3O9nZu7CpgVe0vc2Cd979L6+d5tqxJ/vL3uanOO9vLG8qZgFjE8HhE+lz6LXevxrd0rYOIRpY1nXt6I3r4/71orYDbmLXFjn7S5TWn9vPX1L6m9pQVq3uO9z5azjiuRuc/V3NeJqUqn86hcb+4Qg7gsGXPRxjMvb0Tv1eeogFmpt7R3Xg53Ti2tn7dUiYdVmZLay7vf+yxIlnTeRmAYOMf929K4KtmriokpbHbHy3uM96xrbHqF0JRTwKzQW2L1stR+3hsuS2ov77bPs4pk7nOvNoaBc2nYLHFc1eQVMDFFqeOZlzeKt+/Pvb6mzfmm2iFgVugtrXo57p+a+/kIb2vjuXSvpa35WBo2SxxXtXlzhxnEYsnmPpHHMy9vFO+Z5+lDby0dyPsfpVUvpzbwKKWf11Yvj/C2Np5L8967TqAMzDhsljKuWvCqYmJI6eOZlzeC98xzNC2PnWuvgFmZt6Tq5fC5y5L6eW2In2tnKe3lnfcKk2WSKpvevxnH652YSKypXkYdz7y8ub1n/9JOwGzIW1r1suR+XvPS+aO8rY3n3N7hksr08dxkfax5FUrJ47kEb+5ggxgImLy8+7xX/MJuODeaaoeAWZG3pOrlowld5H5eE+KXhMvo7W3JO97Z1UY87bElaEYdzyV6VTHx8r/1YyzqeOblzeW94jx91l4BsxJvSdXLkpeMLg3xS8Nl9PbW7PWaEDw6f5eGzSjjuRavZzHbZm31Mvp45uW92nvVefqsvQJmJd6Sqpel9vPSEL8mXEZub43ecagUKPGIJUGzxfPoTK8qZtvUNp55ea/0XvULuvHeBVPtEDAr8JZUvVzSF5H7+VkYWRsuI7e3Nm86TwRKbGEuaLZ2Hl3hzR1ykIct1csSxjMv7xXeK1d/LGnvS0udX7O3hElz2rWx1n7+eHtd9FL3ktpboteyV5yJHWjP96pitkmt45mX92zv1dfMJe0VMCvx5p50LZmUpZOg1H5+9N7LreEycntL8U5tziNQ4mzSNa2W8yiaN3fYwbXs+WVNCeOZl/dM75Xn6tRKg6mPgFmBt4TJ9L1bFi5L7Oc94TJyeyN7VSkRhT1BM/d5FN2bO/TgOloYz7y8Z3ivPleXtlfArMCbe4L1jKVLY0vt577vN4fLyO2N6B2/QiT32AYSW4Jma+fvWpcdZduglfHMy3u0N8c1cml7BczCvSVMsmt4JnGun8/25mpvRO+9s0EP4uMVRcd6c4cfnEtabtfKeOblPcqb83xd0l4Bs3Bv7snUM9ZWL6P281SwucKbq71RvJa+olSWvEez9vN3rzf9N7lDEM6jpfHMy3uUN9fqjjXtFTAL9kavXqZnE0vv53v37ytgxpPHmsZVbq9QiZp4FDRrPH/P8FoqWye5xxUvb4nenOfs3Peb+giYBXujT8Jr2VV1HOSnJow1jascXqESNZNebVLr+XuFN3cYwrGMl9q1Np55ebd4c/6y7dF7aqc+AmbB3tyTpkdsWRobtZ+HwWfu+aqaxtVZ3vF7A4VKtMb4+lHS+Zvb692YdRFlXPHyluKNds4+a6+AWag38sR869LYiP3c9/1f7brSm6u9R3qH76e8d14nAvz6/mcVRE3XySu8lsrWQbRxxcsb3Rvh2re2vQJmod7cE6RH9H1dE6dhu6705mrvXq9QCSxjeL5EOX+jeyNMtLCdubGee1zx8kb15j5nH523j9orYBbojby5T/rNfA39nH7esF1XeXO1d49XqATWk96fWcNu21d5c0+2sI21z3BdPa54eaN5o/xCbUt7BcwCvZEn7jX1c/p5w3Zd5c3V3rXeYbVSqAS2k55bXxo0S75u7PV6HrM8HoXLKOOKlzeSN/c5u/TcnWuvgFmgN/dE6NEEqaZ+Hv7MHN5c7V3yGU6ChUrgGNZUM0u8bhzpFTLLopRxxcub2xvt2ra1vQJmYd6oy2PtjtiWN+o4BGpgSTWzxOvG0d5oEzHMT1CfHf9I44qXN5c34jVta3ufr/178GnpoEfw3t4/w1aLxq8lKbmfef9gCSyQh0e7Vke/blzpjfKMEqYpdVzx8l7tjXgt+/Lt5+b2CpiFeFN4yz3pmZsIjX/TXmo/8/67C6xQCeRjboOxaNeNnN6IEzOUP654ea/yRr2G7WmvgFmIN1WQck925iZAAmb53nG1Mve4wjQfb69hyN0XrTAVMqNcNyJ4+97rS6JRw7ji5T3Tm/5e7nN1jqXVy7n2CpiFeKMuj52qXpbcz615vVrknHNiHMI+3l77H7evswyPxZA9n6mft5QjvFPtHPbH8E8sY3jOt3i9eoaQGYPaxhUv7xne6NerNXOBqfYJmAV404Qt9+RmiqnqZan93JrXEth5loTDdOyGx3Cun59R07hKP2NpmB27x4FUtfRv0thb+97MWsbVs59/7+JWBFqgxnHFy3ukt+/LWHGxt70CZgHeqEsW56qXpfZzS96Wq5XD4JKqh0PG4WdvRa+lcbXHu6afxxXR1ljzOpMox/dKb8SdGGtnzXK6UscVL+8R3tzn6hLWznsm23lWB7Y2YM70Rl0ee+/mJzgl9nML3oi/qNgzyU5/PgqN6fOsilZrJbEV71TlM/cYzXkNru34bvHlnqS1QnoReyvjipd3rTf9u9zn6lKO6GcBswBvxOWxj6qXpfZzrd6SKz3DJZLDi3TEfubN6322/LbW4LnknZk1HN+tzhKWopVMCpetjSte3jXekq5DW1YjTPWfgFmAN2LVae7Zy5L7uTZv5GA53gjn2WY3R2w+U9vx5X3uHVanp8JnLRXP9Au/pSGzluO7FEtmzyHK8eXljezNfZ6u5ah+FjAL8EYLmM+ql6X2cy3eCBPlufA4bO/aDW+i9TNv+d6pX1zcu3J3VE5titbPEbxC5nEMq5ZRji8vbzRvSVXL4bl9VD8LmAV4o0107t3zSUyJ/VyadzgxzjEhHgfIuRfCl97PvLwlVTmfrS6J3M9XeEuc9EXCyiVe3sefkn+ZtXWl2FT/CZgFeHNPWMahwm/I83rHS/yuDJEt9TMv79wneuB89lxmKf18lrfkCWAu5qqWEY8vL28ub8m/wNqzE/RU/wmYBXhzT1amJi419nN07/AF9kdPbKdC5KMlrDX3My/vWm/EJbWPnssstZ+P9pY8GbySUo8vL+9V3hp+abVnn4up/hMwg3ujPX9pE4lrvcNgt3cSOw6Rc5vqpH/XUj/z8m79zG0eFCFwzoXMEvv5TK+gOc2SqmUJx5eX90xvDdePM95jK2AG90aYpCSWVi9L7Odo3j3LYIdB8tFn60vaa+pnXt6jvVMbVuW+jqfvVVM/H+29vX9WMVE8Mliu7ffIx5eX92hvDVXLxBn9/FLjQV/jjfzusGjvvzy7vTWNqyO8zyalS17x8WiMR2svL28L3lzVzdb6eau35aB5RhUj2vHl5d3rre0akc77o/u56YCZJt7pN7yR2jv8bhFYukPo1vbWNK72eOcmnylIjv/+0td7RG0vL2/L3qvDZrqOt9bPW501TSKfTTBbPL68vEu96X/XeE1Iz14e3c/NBsxxgIvW3vTMXe5gOfXb7zPaW8u42uNNE825MFlbe3l5W/eOf0F0Rdhc86hDLf2811vjpDJNLFMbI/QzL29Ub63XgOGqhaP7ucmAOb6ZR3z1xu39M/tzO8Pq2dntrWFc7fVu+Q4lt5eXl/fPzzlyQ6+lIdPKh3XeGpbGPdu4J0I/8/JG8uY+Z89kuHPs0f3cXMCc+k1xxFdvRAqYW9re2rji5eXlPcI7fo76rLD58fb629diP+/1lhQ2x0tgS+pnXt4c3pLO7z3XhTP7ucmAOb5Z37tlN9mr25s7WCauam/J44qXl5f3DO+Zrz959K7M1vp5jzdNRqNMSNN3Sd+/ln7m5b3CG+U8Ppuz+7m5gDn1XGO09kba4Gft5j5b2lvDuOLl5eU927vn9UVHVTJb6OcjvFeFzuQYL3Xb2u7S+pmX9yhvK8EyXTfO7uemAubUDXnp85dXtjdSwLyivaWPK15eXt4rvcMwcURVc00ls6V+Psqb/jn1bwqFaxkunY7cXl7ekrwtBcvEFf3cTMC8d9OBLWrAjLCD7JbNfba0t+RxxcvLyxvFu+e+sTRkRmpvyd7h/z/1z7W1l5c3mrfFYPnyv372F1RH93MzAfPREtCIATPCBj9bl8eubW/J44qXl5c3mndrVXPJctmI7eXl5eVd6m01WD6qXp7Rz00EzEc3WgFznqvaW+q44uXl5Y3u3XIvuXfzITN6e3l5eXmnvK0Hy0fVyzOOb/UB89nN9d7F29zg9v6ZPVzuWR67tr0ljiteXl7ekrxrl8/O/fK1lPby8vK27e37Nl43spSpjX3OPL5VB8wlN9SI27NHCJh7lseubW9p44qXl5e3VO+aoHnv/v0FbGnt5eXlbdMrWP7N1ZuDVRsw792yXVijBcy0yULugPlsIB7V3tLGFS8vL2/p3qUbyU1t/FNie3l5eev2pr8X6X20kXhWvTzj+FYbMJcuA40YMHPvIJuWRl3R3tLGFS8vL28N3hQcn20INA6ZpbaXl5e3Xq9Q+Zgcx3fXTi7RBlu6AS7d1GDtc4ZXtffe5X0HZvq+0Y4vLy8vL+853kdBc3ivrKW9vLy8ZXs9X7mMXMe3uoC5Zsc8AXOaq9ubq595eXl5ef/+zAXNdL9cs+qnhPby8vKW5b29f2YPbaXw5dvPbMe3moC5ZWlp1ICZc4nscHOfSMeXl5eXl/c679R9aMl7MkttLy8vbzxv+qhWbiPn8a0iYKab3Z4wFam9Od+BOfyuUY4vLy8vL28e7zhort27oLT28vLyxvHatGc7a6/TRx/fagLm1pdJR2xvzoCZo725+pmXl5eXd9lneF+ae0dmTe3l5eW91pv+nlC5nzVLY886vsUHzD27rq79Hle1N1fAHC8ZjnB8eXl5eXljeO/dn5VCW0Jmae3l5eW9zitUHkeE41t0wNy6NFbAXNYfuY8vLy8vL28s7/CXumtDZont5eXlPdY7/N9CZYxweca4KjZgrn0liYC5bnnsle3l5eXl5S3HO3x/Zgvt5eXlPa4wJFSex5alsWeNq6ID5t7dVtd+j6vamyNgTu2om/tCxMvLy8sb05t+yUreqhUAACAASURBVKuCycvL++gjVMYPl2eMqyID5hHhUsD8m6kddSMNVF5eXl5eXl5e3vheG/VcT7RxVWzAPGNJaJT2Xh0u5/oi0kDl5eXl5eXl5eWN51WlzMvt/TPcuCoyYB5RvRQwBUxeXl5eXl5eXt51XoEyDl++/Qw5rooLmPdu+66xAuY0U89fXtleXl5eXl5eXl7eON7x3xcq4zEMl9HGVXEB88jnE6O29+qAOfX85ZXt5eXl5eXl5eXlzeMd/3/CZBlEHldFBcyjlsYKmMv6IdJA5eXl5eXl5eXl3e8dfweBsjzSc5eRxtWQl0hfZo60DfrRwSpie2/vn5fvIpv7+PLy8vLy8vLy8p7jTf/d7f3zd5gUKMtl7pUkkcZzMQHzjNCVfnak9l4dMD/eXmf74Krjy8vLy8vLy8vLu96b/t3U/ydI1sej911GGs/hA+ZR77xUwZzmx+2rgMnLy8vLy8vLW4B37E4hUpBsg1LGc+iAmUr5Zy4Nbb2CKWDy8vLy8vLy8sb1CpFI4fLR2Is0nsMHzDPD1qNwlevAXR0wH7X/ivby8vLy8vLy8pbmHbqn/nn855Dhs5DjZyKFSExR2nkUNmCetbGPCuYfHj1/GW2g8vLy8vLy1uId/v9T/7zX+8zfSj+f4R0Gwjle/tcLjDiMpVkl0nkUOmCeHbRar2AKmLy8vLy8vNO+Jd6pVwU886ZNOh79mSpcWxhXxfCc3AECmCNaTlnqDRkwr6heqmA+D9hXtJeXl5eXl/cKb/rn9Oc4jKU/710nmADIzqMdY6Nfn8MGzAgBK8eBO3PX3LUB+4r28vLy8vLyDn/+8M8p71zVTgAEUAtrw2W0+0K4gBkpYOU4cFe3P3d7eXl5eXnb8Y7/fBYSc0/yAOBqtoTLaPeFUAHz7NeSCJh/ePb8ZbSBysvLy8tbhnf4XKLACADL2Rouo90XwgXMq6p3v77HXSJ7785//lTA5OXl5eV95hj+ee+62WpjmhjlnpwBQMnsuTdEuh+FCZhXBau1ISvHgbuiirskXF/VXl5eXl7e671z32H8Xj4AwPlEuC8c5Q0VMK/aPVXAFDB5eXl5W/ZaugoAcYhwXzjSGyJg5qheRg+YZ4ftYb/nbi8vLy8v77HeqaWsuSdQAIB/qfF+9BLly1z57OUwYOZq77PP2f0Rrb28vLy8vOu9QiQAlMnUhj4l34+GhAmYV4fLNUHrjPY++wiYvLy8vLzpI0gCQD3M7RZbwv1oiTdEwMxRvYweMPv+vND94/Y1ZHt5eXl5W/eOl7bmngQBAI7l0atIIt2P9nhDBMxc4VLAjNVeXl5e3ha86b8TJgGgLZ6957KW+2D2gJmzevnr+8uqTr36wAmYvLy8vGV6p/4/QRIA2uVZuKzpPpg9YOYMl2vC1lHtXfM5ayfZqO3l5eXlLdk7/t8CJQDg5X/LwmUN98FE1oCZu3oZPWCe1T9R28vLy8tbqleYBABMkV4LuOReVfJ9cEjWgJk7XAqYsdrLy8vLG93ruUkAwFJqvA8u8WYJmLf3zxDVy1/f170L8+oDd0YfRW4vLy8vb0RvCpS5JyoAgHKo6T641pstYOYOlqUErtbay8vLy5vbK1ACALaSnrfccm+Kch/c6708YEaqXibObO/eA3d0WyMvCebl5eW90pv+O0teAQBHsHQznyj3wbO8WQJm7kBZUsA8OowLmLy8vC16x3/n9v6ZfSICAKiH2/tn6Pvgld5LA2bE6uWv78vfhZnjwAmYvLy8vNu96f+z7BUAcBYpXEa8D+bwXh4wz3q34xWhK9eBEzB5eXl5l3mH/6xKCQA4ky/ffoa7D0bwXhYw0ztgcofJ1gPmmk+kgcrLy8u7xOtZSgDAFUyFywj3wQjelyu/TMTlsb++/7ezagrA0Q760VXf9DNbGuS8vLz1eYd/X6gEAFzJo7l07fffJd5LA2buIPmIyAHzyGCefmZpA5WXl5c3/fx7J1QCAK5nyS6xtd5/13gvC5hRq5clBMx7d9zS4uHPjNheXl5e3rmfK1QCAHKx9BUktd1/t3gvC5gRN/dZG7xyHrgj+m/pUuAI7eXl5eVN/06oBADkpLX7717vZQEzd4B8xo/bVwEzUHt5eXnb9qpWAgBys7RqWdP99wjvJQEz+vLYpeEr54G7d/uXyQqYvLy80b1CJQAgAq3df4/0XhIwc4fHGgLmEf0oYPLy8kb03t4/BUsAQAi2VC1Lvf+e5T09YJZQvUxEP3B7l8kKmLy8vJG8t/fP7BMJAAASt/fPJu6/Z3tPD5jRN/cZ8uw5zNwH7t7tWyYrYPLy8kbwqlYCACLx5dvPJu6/V3lPD5i5Q2NNAfOI/hQweXl5c3kFSwBANFLVsub779XeUwPmvTvu/Y1X8KzCF+HA7akIq2Dy8vJe7fV8JQAgIuOqZW3335zeUwNmSctjSwmYe55pXfIqlmjt5eXlLdMrWAIAIvLl28/JqmUt998I3lMDZu7AuIV7182GsCgHTsDk5eWN5k3/nWAJAIjKo6plqfffiN7TAmZJu8eWFjC3VoYFTF5e3jO9giUAICJLg2Wp999o3tMCZmnLY5eEsCgH7t5te7ZVwOTl5T3Dm3viAADAFEuWw5Z8/43qfTnjy9zeP7MHxa18vL1e1vl7+nlrwDzi+JY2yHl5ec/xqlgCAKKypqhS2v03uvfwgHl7/yx2eWxiTXtzHLitfSxg8vLyHuEVLAEAUUnLYWu8/5biPSVglro8NjHX0VEOXPqNjIDJy8t7pVewBABEZfycZU3339K8hwbMrcEnGnNBLNKB2xLkBUxeXt4t3tv7Z/aJAwAAU8w9Z1nD/bdU7+EBs/Tlsb++zz+HGenAbelrAZOXl3eNV7AEAETl2QY+Jd9/S/ceHjBLXx6bWNqBOQfM2v5+tIFRCe3l5eW9xutdlgCAqCzdGbbE+28t3sMDZu5geBRTnR3pwKX+XlPFFDB5eXkfue6dd1kCAGKy9pUjpdx/a/QevslP7mB4FFNhLNKB29LnAiYvL+8cgiUAICLeZVme97CAWcvzl0OWdGDuAbOm3wVMXl7e8c+/d132yQMAAGO2BssS7r+1ew8NmLU8f1lawLx3y6qYAiYvL+8QVUsAQDS+fPtZ/f23du+hS2RzB8KjGe+6GunADVka7gVMXl7evvc+SwBAPIbBssb7b0veQwJmLe+/fBbIIh24IUv7X8Dk5eUVLgEAUUjLYNM9r+b7b0vewwJmbc9fJqIeuDFLq5hHe2s/QXh5a/EKlgCAKExVK2u9/7boPSxg1vb8ZWK4TDbSgZtDwOTl5R16b++f2ScSAAC8/K//Xa1s4f7bsvewgJk7CJ7FcFlppAM3xZKgf4a35hOEl7dkr6olACA3S6uVNd1/W/e+HPVlcgfBMxmuDT+y88846PfucRXz3nWLf3tUQnt5eXn/RdUSAJCTL99+/g6WLd1/ef/7HBIwa33+MvHj9nXXe3jOOHCPPo+qmGnyWdpA5eXlXYaqJQAgF+NXjLR0/+X98zkkYNb6/GXi4+21qIDZ9/MV5RSWSxuovLy8j1G1BADkwE6wvOPPIQEzdwC8gmgH7tlnrqosYPLy1udVtQQAXMma5yprvv/yCpi7GO4mG+HALfkImLy8dXtVLQEAVzGsVEa5D/LG9O4OmLU/f5kY7iYb4cAt+Uwdm7Tct7SBysvL+zeqlgCAs9kaKmu+//I+9wqYK4h04JZ+BExe3vq8uSccAIA6Sbu/jvceiXYf5I3t3R0wa9/gZ8ieZbI5B4yAyctbh1fVEgBwNFOBMup9kLcM7+6AmTv0lVLFzDVgbu+f//wS4N4te1XJnk8tJwgvbxSvcAkAOIJUpSztPshbjndzwEy/6cgd+K5m6wHMNWBSkBQweXnL8/Z9L1gCAHYxt+y1hPsgb5leFcyVbN3sJ+eAub1//vWsbPp3JQ1UXt4WvcIlAGAtKVDWcB/kLdO7q4LZ0gY/QyIcuLXe4VLZpa8qOcJb+gnCy5vD6/UjAIClTO30OnXvKuk+yFu2d1fAbGmDnyFbNvvJPWCGS2WXbvRzhLf0E4SX92qvqiUAYI5xdXLNPaqU+yBv+V4B86IqZoQBM6w6C5i8vPG8wiUA4OV/fz83OXx2Mt1Xar0P8tbhFTA3svZARhowlsjy8sbyWhILAG2ydgOeWu+DvHV5N79349512UNeTta8TzLaQefl5Y3jVbUEgHpJAXJYjUzzx3SPWHOPqvE+yFufV8DcWcVcGjKPPnCtDVRe3hq9wiUAlMcwNI6D45JKZMT7ES/vkd7NAbPVHWS3VjGPPnCtDVRe3lq86d/lniABAOYZXq+n/jzyvtDafZC3fq+AuZN7552SvLy8y72etwSA+LRwP+LlPcsrYO7Ehjm8vLxLvH1vl1gAKIVnc7uS70e8vGd7NwfMlneQHSNg8vLyPvMKlwBQDjXfj3h5z/YKmAewpIp59IFrbaDy8pbszT1RAgCso9b7ES/vFd7NATN3qIuGgMnLyzv+eN4SAMqktvsRL++VXgHzIJ5VMY8+cK0NVF7e0ryWxAJAmXz59rOq+xEv79VeAfNABExeXt6+Fy4BoGQETF7efd5NAfPeddnDXEQeVTGPPnCtDVRe3lK8uSdGAIB9CJi8vPu8mwKmV5TMI2Dy8rbp9bwlcvDl28/+y7ef/e39U+UcOAhvB+Dl3ecVMA9mrop59IFrbaDy8kb2Cpc4ixQgU4i8vX/+NZ6H/yxgAsdQ8v2IlzeCV8A8AQGTl7cdr0k9jmIYJLeMZ2MROIZS70e8vFG8mwKmd2A+ZqqKefSBa22g8vJG9JrQYwtTFckjxnPudgG1sOSesedT032Ql3fyfrT2C9zeP7MHuBKIfNB5eXn3e3NPgBCfFCTPGNNTn9ztBWrg2Tm799yt6T7Iyzt7P1r7QwTMZfy4fa1ywPDytuxN/5x7AoRYbK1IHjmePQcMHIOAycu73ytgnkiNA4aXt1Vv31sSiz9hMtp4NjaBY1j6S6IW74O8vEu9AuaJfLy9VjdgeHlb9ZrAt8ewMhl9PBufwDEImLy8+70C5snUNmB4eVv0mrzXz1SYXDLmoozn3P0H1EKO8zfXdYOX9yyvgHkyqYpZy4Dh5W3NK1zWyfB1IDWM59z9CdRCjvM313WDl/cs7+qAee+67KGtNKZeW1LqgOHlbckrXNbBs014Sh/PNvgBjmHpBj81XDd4ec/0rgqYt/fP/sfta/bAViJpYlP6gOHlbcFrwl42w+pkpHF1ltcvQoBjEDB5eY/xCpgX8fH2KmDy8hbizT3JwfpJ4ZpAmWtcneXN3f9ALbT0iyle3jO9AuaFpD4secDw8tbsVbksg6nNeCKPq7O9uY8HUAsCJi/vMV4B80K2VjEjDRhe3lq9lhnGZLy769w4iDquzvb6pQhwHK1cN3h5z/YKmBezZcOfSAOGl7dGr3AZiy/fflYxrq7wGrvAcbRy3eDlPdsrYGYg9WWJA4aXtzavCXpetr5/Mvq4uspr/ALHsGaDn9KvG7y8Z3sFzAysXSobacDw8tbktbww30SuxteF5PDmPpZALazdKKzk6wYv79leATMTa5bKRhowvLy1eFV+rmPpLq81jKurvbmPLVALLV03eHnP9r5s+QK5w1kt5DrovLyte4XLc5la9trCuLraaxwDx9HKdYOX9wqvgJmRj7fXzQeutYHKy3uU16T8HLYEyprGVQ6vsQwcg43FeHmP9QqYmflx+7rpwLU2UHl5j/CakB87IZta+triuMrh7fv8YwCoBQGTl/dYr4AZgC0HrrWBysu71ytcHjMJe/YsZWvjKqc393gAaqGl6wYv7xVeATMAz5bKRhowvLwleoXL7SzdoCfn8W3Ra0wDx9HKdYOX9yqvgBmER0tlIw0YXt7SvCbi61gbKHMf31a9xjVwHK1cN3h5r/KuDph932cPY7UyFzIjDRhe3lK83nG5nPEGPSUc39a9uccMUAtbnr8s9brBy3uVV8AMRvQBw8tbgle4XDapmtv1Nfrx5c0/foBaEDB5eQXM6pl6HjPSgOHlje4VLpdNpB4di8jHl9cYB46klesGL++VXgEzIOOlspEGDC9vZK+J99+kV4kM+6/k48v738fzl8BxtHLd4OW90itgBmUYMiMNGF7eqF7h8j+mnqes4fjy/vnkHmNALWxdHlvidYOX90qvgBmYiAOGlzeit/VwObXza03Hl/fvT+7xBtTC3HPoNV43eHmv9G4KmB9vr9nDVyv0vQsgL+8jb6vh8tnrRGo5vrx/f1od78AZtHLd4OW92rspYP64fc0evFrh4+21v71/bg6ZRw8YXt5I3tYm2+mZylaOL++/H89fAsfRynWDl/dqr4BZAClkRhgwvLxRvC2Fy2fVyhqPL+/0J/dYBGphz/OXpV03eHmv9r6s/QK3909LZDMw3lm2xMHGy3ukN/fk5MrJz5Y+L/348v5LS79UAc5m6WqQ0q8bvLw5vJsCpgpmOSGzloHKyzv05p6YnDnhGVYqc/czbyyv5bHAcbRy3eDlzeHdFDDvXZc9bLXK2pBZy0Dl5U3e3JOSM5hb/tri8eWdR8AEjqOV6wYvbw7v6oCZyB20WqbFgcrL2/d1bXCyZHlWa8eX9zG5xyxQC+kRhBauG7y8ObwCZqG0NlB5eWsIl2s362np+PI+J/f4BWohrcZr4brBy5vDa4lswbQ0UHnb9pYeLrduJtHK8eV9TunnABCJVq4bvLy5vJsqmHaSjUMrA5W3XW+pE2tLsHiP8vZ9/vEM1MJ4h+5arxu8vDm9AmbhfLy9NjFQedv0lhgux+9WK6GfeeN7c49roBYETF7e872bA6ZXlcThUcisZaDytuctKVymZytT+0rqZ97Y3r4v61wAopOu1TVfN3h5c3sFzEqYC5m1DFTetrylTKjH1crS+pm3DG8p5wNQAq1cN3h5c3oFzIqYCpm1DFTedrzRJ9OPqpUl9TNvOd7cYx6oBY8w8PJe490cMO+dnWQjMg6ZtQxU3ja8kcPlkmplKf3MW5Y399gHakHA5OW9xrv5PZj3TsCMyjBk1jJQeev3Rg2XW4Nl1H7mLcfb93HPC6BEWrhu8PJG8G4OmHaSjU/f//0we8kDlbdub8RJ9O39s7p+5i3Pm/s8AGqilesGL29ur4BZOelYlT5Qeev13t4/s086Eun5yhr7mbdMb+5zAqiFqdUotV43eHlze1/2fBkBswy2fmoZ5LyxvbknHXMTj9r6mbc8b6RfvgCl45eHvLzXeXcFTDvJlsHH22v/4/b1kAHT2gnCe64394Rj6fOVpfczb5neiEvHgVJp5brByxvBuytg3jsb/ZTE2pAZaaDy1ufNOdFYu3FPyf3MW64394QcqIUv3342c93g5Y3g3RUwb++f2UMTzguZkQYqb13enJOM9P1b6Gfecr2WxwLHMbU8tsbrBi9vFK+A2SDjd2WuGTCtnSC8x3tzLPvbGixL7mfesr2WxwLH0cp1g5c3ind3wLTRT5ksCZmRBipvHd6rJ81eNcJbqjf3hByohbnlsTVeN3h5o3h3B0wb/ZTN2gHT2gnCe5z3qnDpVSO8NXhzT8qBWhAweXmv9wqYmH0uM9JA5S3be9XzZHPP2VzdXl7ePV7PXwLH4b7Ay3u9d3fAvHd2kq2BqZAZaaDyluu9YrL86DfUV7eXl3ev1/OXwHG0ct3g5Y3k3f2aknsnYNbC+LnMSAOVt0zv2eFySbC8sr28vEd4c0/IgVp4do+o6brByxvJuztg2uinPtJAizRQecv05po05GovL+9er+WxwHG0ct3g5Y3mPSRgeg6zPn7cvva398/fy6BzD1Te8rxnTBa2BMur2svLe4TX8ljgOFq5bvDyRvMKmJjl4+319zHOPVB5y/IePUkevscyYnt5eY/y5p6QA7Xg2Xxe3nzeQ57BvL1/Zg9DOI8t1cyjBypvOd4jw2UKlpHby8t7lNfyWOA4Hu0eW9N1g5c3ovewgOk5zLpZW808eqC2dmKW6j1ygjw11qK1l5f3SK/lscBxtHLd4OWN6H056stYJls/H2+vs+/MjDzIec/39v1xk2PvLONt0dv3+SfkQC2MV7/Uet3g5Y3qPSxg3juvK2mFJSGzlhOEd7n3iAlBSe3l5T3am3tSDtSC1Va8vHm9hwXMvu+zBx9cy6PBXMsJwrvMu2ci8OXbz0XPykRqLy/v0V7LY4HjaOW6wcsb1XtowPQcZnt8vL1WfYLwPvb2/b5JwNJgGaW9vLxneQVM4BiWLo+t4brByxvVe2jA9Bxmm0w9m1nLCcL72Lt1Urw2WEZpLy/vWd7ck3KgFlq6bvDyRvUKmDg0aKZxseXdmRFPEN75z5ZwueQ5y4jt5eU906t6CRzDmupl6dcNXt7I3kMDZt97DhP/bQJ075a/0iTyCcI771174y+9vby8Z3j7Pv+kHKgFAZOXN4b38IDpOUwkfty+9rf3z9VBM9IJwvvvZ+27Lsc3/NLay8t7tjf3pByohZauG7y8kb2HB0zLZDHm3nWrgmakE4T338/SG30KluPvWVp7eXnP8vb9ce+PBSBg8vJG8R4eMPveMln8S3o+c0nQjHSC8P79WToZfnSMS2ovL+/ZXgETOIa1y2NLvm7w8kb3Cpi4lI+3198hcy6ERDpBeP98lkyEl9zgS2kvL+8V3tyTcqAWWrpu8PJG954SMC2TxTMebQQU6QTh/e+z5LnLmtrLy3uFd+3zzACm2VK9LPW6wctbgveUgHnvuuwBBmUwVdGMdILwPp8E27WPl3fbx/JY4BgETF7eWN5TAmbfWyaLdQwrmpFOEN7HN/Ua28vLe5U396QcqIWWrhu8vCV4TwuYXleCLfy4fQ11grTunauwbP1tcfT28vJe5bU8FjgG9yNe3njelzO+zO3903OY2MWaXWejnlyle+fCZa3t5eW90mt5LHAMe1Y+lXbd4OUtxXtKwLx3/wWD3CEF5bM2aJ41nlvzTlVXhr8lrq29vLxXe3NPyoFaaOm6wctbivfUgGmZLI7kx+2rV5xc5B3fwMf9XVt7eXmv9FoeCxzDl28/m7lu8PKW5D01YFomizMYbggk+BzvHS7dm3u2pab28vJe7bU8FjiGlq4bvLwleU8NmPfO60pwHuPls3ag3eft+35RuKylvby8uby5J+VALbR03eDlLcl7WsC8d5bJ4jpS2DxzPNd+QRiGy/Sza24vL+/V3r737kvgKLw7m5c3rvf0gGmZLK7k4+1186tOIp2YubxLt3uvpb28vFd7c0/KgVpo6brBy1ua99SAee/sJot8rK1qRjoxeXl56/SqYAL7sas5L29s7yUBUxUTOVla1Yx0YvLy8tbrTf9denb8y7efv8k9cQdKoMXrBi9vSd7TA2Yid8gAEnNhM9KJycvL27ZX8ATmiX7+8vK27r2kgnnvBEzEZFjdfPaOzRYuCLy8vHG944pn7kk+kIPxXgGlnL+8vC15L6lgWiaLEkhhM43ZNYHzivOIl5eXd84rdKIVajx/eXlr814WMO+dKibK4sft62TgrPmCwMvLW6Z36t8JnaiNqZ3Oazh/eXlr8172DKZ3YqJkPt5ef1c4x9XN2/vn4SdmaxciXl7e473jv2d5LUqnpfOXl7dk76UB896pYqIOUuCs7YLAy8vbljeFztzBAVhC1POIl5f3b16u/jKqmKiRYYVzrsppeS0vL29E7/DfCZyIytxqoSjnES8v75/P5QHTZj9ohWHoHJ43ltfy8vKW5BU4EYHSzyNe3pa8lwfMvu+zT/yBXIwrndEuCLy8vLxzvnvnOU7k4cu3n1WcR7y8rXizBEzLZIF/GQbPXBcEXl5e3jVeS2pxBbWfR7y8tXmzBMy+V8UEljKueg4rn/fu3yW3S9/huedTywWQl5f3WK/qJo7mUfWy1vOIl7d0b7aAqYoJHEMKoOMQ+mizob3Pfj4KriVdANe2d/jnUvZ6t1Kit5YbK++fMSRsYi/Pris1n0e8vKV6swVMm/0A1zMMo1ObEKV/frZMN/391oPPONDPMe7b9OfU8SiFNW098viWcGPlnf4Im9hC1PHMy8s7780WMG/vn6qYQOHkDjl7yd1/mB9Dc+FV5bRsb/rTUlos4dny2NzjmZeXN2DAVMUEAOxhHEzTvWnNPaq1Jd8RvOP/LWxiilLGMy8v79+frAHz9v6ZfXICAKibVK1OldEl76cdL8udC6F7PrVMJI7ypr8jbOLlf8uql5HHMy9vy96XdLPd8hvcvQ1RxQQARGNNCN17H6xhInG0d/h3hc12WXp+RR/PvLwtel9SwMsVMO9dl30yAQDAM6aeD917H6xhInGmN/13fW+ToJZYWr0sbTzz8rbi/R0w7938EqAzG6KKCQAonXH4zHFDX3v/LdXr9Sf1s2Z1QOnjmZe3Ru/L8NmUHAHz3nWexQQAVMk4eA7vnUtev1LCRCKnV9isk9zjipeXd5/3ZbhVf86AqYoJAGiFcfD03s/93tv7Z/ZghP2sfba51vHMy1uy96+AufZ5kqO/jPfSAQBaZri50JX331z3/bO8qprlEnlc8fLyLvP+FTA/3l6zNuTe2fAHAIAhw2pn+lhe+9x17/4LmsJmOXz59jP0uOLl5V3mfRlXDddIzmiIKiYAAI8Zv0Zl6dLamiYwa52CZnxKGVe8vLyPvf8EzDVVzDMacu9UMQEAWMOwynnvHgfOoycSpU2cPKsZky3Vy0jjipeX9w//BMxf35dXMc9qiComAAD7mAucR08kSp042YE2FrWMK15e3pmAubSKeWZDct+YAQCoifFznEdNJGqYOAmaedlavYw+rnh5W/VOBsxf35dVMc9siNeWAABwDmlJ7dqJRaQJzBleQTMPWzarKmlc8fK25n2ZC3JLfst5dkNy34ABAGgBr0f5++M5zevYU70sbVzx8rbifbl385vqPBOe3RBVTAAArmduOW2kCcwVwzLDpAAAIABJREFUXhVNAZOXl3e992HAfPYs5hUNseEPAAB5SWHz3nWb38F59ATmCu+wzbmDWK3kPL68vLzneB8GzF/fH1cxr2pI7hsrAAD4j7ndaVuYOAmax5J2NY5yfHl5eY/xPg2Yj6qYVzXEUlkAAGKSwua96x6GzaMnMDknbILmMUQ9vry8vPu8s5v8DJkTX9kQS2UBAIjNj9vX/sft62Rl8+gJTIQJm6C5neE7WaMeX15e3m3el75/vgR1rop5ZUPu3eNKKwAAiEN6DUoKmkdPYCJN2ATN9ZR0fHl5edd5FwXMX9+nX1tydUMslQUAoDy2vHMz53xjq9eus8v48u1nkceXl5d3mffpM5hDxs9VXNkJyW2pLAAA5ZI2Cap5gyBB8zGlH19eXt7H3lUBM90QcjUkuXPfHAEAwH7Gu9GWMHFa4xU0/2XqvZelHl9eXt6ZgHl7/1xVFbx3f4Jejobc3j8tlQUAoDIevfokx3zjSG/uUBeJ6BNjXl7e/d7VAfPj7TVrwExeS2UBAKiPqfds5pxvHOVVzZyuXuaeT/Ly8gYImL++/1kqm7shuW+CAADgPPZuDnTUfOMIb/p3LQfNEibGvLy8+70vW5ecRgiYlsoCANAGU7vZXzXfOMObO+xFqV5Gmxjz8vLu924OmFsv9Ec3RMgEAKAd1lY1I07Y0v/fUjWzlIkxLy/vfu/Lnp1ZozTE85gAALRFelbz6onTkfOc9PdqD5qPqpfRJsa8vLz7vS/37r+H6Lde3KM0JPeNDgAA5OFR0CxlwnZ7/8weBHNUL6NNjHl5efd7dwXMZxf1Kxty77wfEwCAlplaPlvahK22auaz6mW0iTEvL+9+7++AuWeZ6ZZGndGBnscEAADD5bPD92mWMmGrqZoZuZ95eXnP8R4SMLcslT2rA4VMAACQSK9W2xI093yOmOeUXs1cUr2M0M+8vLzHen8HzL3BbO1S2TM70KY/AABgyJaguedz1Dyn5GpmSf3My8t7nPd3wLx3+59hjNSBQiYAABizJmju+Rw9zymtmrm0ehmtn3l5efd7X4Z/4YgLd6QOzH0TAwAAMRkGzbmwuedzxjynpJBZ6sSYl5d3v/evRHhE1e/j7TXEbwWPqsoCAIB6KekVJ+n/ix40b++fh8/rSphU8/Ly/sfhATNdrJ+FzCs6UMgEAABLmAqakSZsYyKHzLPmdTVPyHl5a/L+FTCP3IH13nUPQ+ZVHShkAgCApQyDZqQJ29TPv3dd9jC5t3oZvZ95eXnXe1/Gf+GoC/SzpbJXd6DXlwAAgCV8vL32967b/HqTq+c5UaqZX779vGxeV9uEnJe3Ju8/u/IcfYGO8OB8ukEImQAAYCl7guaV85x7FyNkbqlebm1vbRNyXt6avKcGzF/f55/HPLohSxAyAQDAWoZBM/JEMec7M7dWL/e0t6YJOS9vTd5/AuYZASxd9KJ0oJAJAADWUso7NEuqXh7RXl5e3ljefwLmvTt+Q5yp3/wd3ZC1HShkAgCAtXy8vS4KmrnnOVcumd1TvTyqvby8vHG8/wTMvj9+mWy6IEcKmH0vZAIAgG08WzYbYZ5zVciM0l5eXt4Y3smAedT7MMcMn8c8uiFbO1DIBAAAW5mrZkaZ55z9XOaXbz9DtZeXlze/dzJgnhm60oX46Ibs6cB75z2ZAABgG1O7zUaa5/T9udXLiO3l5eXN5708YP76/hK2A3PfoAAAQLkMq5kR5zlHL5lN1cuo8zpeXt483smA2ffnh62jG3JEB947lUwAALCPH7evIec5fX9syKxxYszLy7vfO5v0znoOM/Hx9npoQ47swLPbDgAA6mZPyDx7nnNEyIz6zCkvL29+72zAvGLzm60h84oOFDIBAMBetkzerpjn7Nn8Z7g0traJMS8v737vyyPZFRfe4c6yUTo/PT9hh1kAALCXJe/NzDHJ3Boyp54xjTS55eXlzeudDZi398/LLrzjd2RG6UAhEwAAHMHH2+viX6pfNc9JrK1eHuWNODHm5eXd730YMK9cJrqmknllB6bvlPvGBAAAymdJNfPKeU5iacA82httYszLy7vf+zBgXl29S95oHZhuBJ7LBAAAexm+NzPCPCf9d1url1u9ESfGvLy8+70PA+a9u75yN3RH6sD0vIElswAA4AjmVm/lmOck75bq5RHeXO3l5eW9MGDeu+uXySaSO3IH5r4pAQCA8plaMpt7njP1GpOpjX3OmF/laC8vL++x3qcBM1fFLvkjd6AlswAAYC/jJbMR5jnDkPloaewZ86sc7eXl5T3O+zRgXrmb7Jj0HSJ3oCWzAADgCNK8J8o8J4XMJd+plokxLy/vfu/DgHnv8i2THV9so3Zg+qhmAgCAvfy4fQ01z1kaeGuZGPPy8u73LgqYuat06XtE7MDhJ3c/AQCA8vl4ew05z+Hl5eVd4l0UMO9d/vdADr9LpA6c+qhmAgCAPWwNmbVMUHl5ecv1Pg2Y9y7/MtlE+i6ROnDuo5oJAAD2EnWew8vLyzvnXRwwowSmaB347BMhmAMAgHJZ81xmLRNUXl7ecr2LAua967LuJjtmTyfmOHD3Lv8SYwAAUC5LQ2YtE1ReXt5yvasCZqRqXJQOXPqJVAUGAADlseS5zFomqLy8vOV6Vye13BfXIT9uXyffkxm98yMFdQAAUA4fb6/9vZt+T3iUeQ4vL2/b3tUBM1o4Whsyj+7Ard5714XrSwAAEJ9HITPKPIeXl7dd7+qAGXGZZwqZS4Lm0R2498D9uH0VNAEAwGqmfskebZ7Dy8vbnnfTw4y5L6hTPFsyEv3ACZoAAGAt47lP1HkOLy9vO95NATNiFfPX9/9C5rNK5tEdePSBi9q3AAAgJsNKZvR5Di8vb/3ezdux5r6YzvHx9vrwucyjO/CsA6eiCQAAlpLmPqXMc3h5eev1bg6Y0cPPvavj4fd7ZzMgAADwnKXvyow0z+Hl5a3PuzlglrCUc2rzn6M78IoDl96hKWgCAIBH7AmZkSaovLy85Xo3B8y+j1/F/PX93+cyj+7Aqw7csA0l9DsAAMjD1pAZaYLKy8tbrndXwCyhivnr+987zB7dgVcfuGHQLKX/AQDAtWwJmRHmOby8vOV7dwXM2/tn9gvo2RfbZx2Yc8AMg6aqJgAAGLJ23hNtnsPLy1umd3fALK2KVtuzCamiafksAAAYs2beE3Gew8vLW553d8C8d132i+daPt5eD+vASANmGDZVNQEAwK/vy0Nm9HkOLy9vGd5dAfPedUVWMRNrOzTSgXtGCpp9752aAAC0zpKQWdI8h5eXN653d8BM5L5wnnnBfdSBJQ2Ye2djIAAAWuXZnKf0eQ4vL28M78tRX6bk4DLcZbbmg24JLQAAbfNovlP6PIeXlzeG97CA2fd99ovmXn7cvv61YU7kA7fXOw6bAicAAG2Q5js1z3N4eXnzeQ8NmCVXMRMfb6+zITPSgTvSO25vDccRAADMk+7/LcxzeHl5r/UeGjD7vvwqZmLqt3uRDtxZ3mFls+9tEAQAQK2k+35L8xxeXt7zvYcHzJqqX+NqZqQDl8N77zqBEwCASjDP4eXlPcN7eMDs+3qqmIl71/2u6EU5cBG8907gBACgZIYbHUadb/Dy8pblPSVg1lTFHF6AIx24iN57J3ACAFAaqZJZynyDl5c3tveUgNn3fbUhY817M888cKV4BU4AAOKzdX4TZb7By8sbx3tawLx3XfaL5Vmk5SQ5D1wJ3uGGQen5Dq9EAZCTdO2J9icQgT0hs8V5Di8v78UBs+/rrWJuuRDXMmD2eKcCZ0LoBPCIdI2YYsm1+NE1Lfd1cu7dy+Pr47jNrpk4g73jOcJ8g5eXN6/31IDZ9/Vt+DPF0slNDQPmDO84eKb/fjipyn2MASznURBM5/b4z77v/7kWrGHPJwW8LX/uvU5Ohcvhv9vS3tSv4+uoaymWsnU8R59v8PLyXuM9PWC2ckN7tglQLQMmtzf9HeETOIcl4XAcEKNfN3invelYCqEYs2Vjw9zjmZeXN4739IDZ921UMRNz1cxaBkxk773r/pks5R4PwNU8Cohj5j5rq4f37k/Vbc+npetVbu+S4yp8ts3akNniecTLy5sxYNb42pJnjCdvtQyY6N65ye+989t6lMHScDhVPbx33aIllFHPX95Y3rmlucPrqWto3dhrgpeXd4v3koDZ9+0slZ27OD/bxKGUAVOqd0kFJn3GQfTX9xdhFE+Z2h10LhwuHedrKoc1n7+8ZXjvnQ3bamTpeKttPPPy8m73bt8ubMWXSROg3BfJEi7Qe/o5+mArwbt0OeCQqQAxt0wx9zhsnUevinhWLUy/LErjbOl4ezSG5v659POItz3v8BceXk1VH3P3v1rHMy8v7z7vJQHz3v1302n9BrPl/Zlr+7nWgRrVe+RyxDQJe/Zn7nF8BY/6YGtFcHi85iqBZ+xQWtJ45uU90jt3HrV0LauFj7fXpyGz9vHMy8u73HtpwLx3bVcxhxfqNQcz0oDhPceb69UMU5WGuX9O//tI75XtbXFc8fKW4BU4yyCFzFLGFS8vbz7vZQHz3nW/d6XLfZGMwtKgGWnA8NbpXRPyamgvLy9vXK95Qlx+3L567puXl/ep99KAee8slZ3iWdCMNGB4eXl5eXmv8qpuxuPeeWacl5f3sTdLwLx3lspOkZ4xO6KfaxuovLy8vLxte4XNGMwtlS11XPHy8lYQMO+dpbJLGAZNrzjh5eXl5W3ZO16qL2zmn6OM5yYljiteXt5zvFkCZmqIm8Oyi/i96/56/q3FgcrLy8vLy3vvpl+FYj5xPelY1DKueHl5j/NmDZh932e/QJZCek5zbdDMfXx5eXl5eXnP8o7DpncOX0s6BrWNK15e3n3e7AHTUtl1pOc0p17aXvNA5eXl5eXlfYQltNczXCpb67ji5eVd780eMPteyNzKkqpmhOPLy8vLy8t7pXe8hDb3/bpmUshsYVzx8vIu84YImH3vecw9PKpqRjm+vLy8vLy8V3uHwefedeYaJ81BWhtXvLy8j71hAua98+qSIxhvChTl+PLy8vLy8kbxqmoey8fba6jjy8vLm9cbJmD2vQv+0Rf7qXdq5jy+vLy8vLy8kbzmHcex5xjXNq54eVv3hgqYfW+p7BlsDZuRBiovLy8vL+9ZXkHzGKIeX15e3mu9L5G+THp2MPcFsmZS2Ez9/WgX2qOPb2snFy8vLy9vfO9499nc9+mSGe4qG+X48vLyXu8NFTDvXecCfxHpXWHjzYFsEMTLy8vL26pX0NxP6seIx5eXl/cab7iAee+EzBxMVTbPOr4lnSC8vLy8vO15veJk33xCwOTlbdsbNmDe3j89j5nx5mCDIF5eXl7elr3DX7QKmutYu1S2pXHFy9uCN2TAvHeex4xEqmzmHKi8vLy8vLw5vffOezTXcO+WL5WNcHx5eXmP84YNmPdOyIzIcCntlQP1yHHFy8vLy8u71auauXy+IGDy8rbpDR0w753nMSMz3Cho/Nmyi1zEE4SXl5eXl3fqY27ynHu3rIoZ8fjy8vJu94YPmPdOyCyJFDjHGwZ5FoOXl5eXt0avZbOPETB5edvzFhEw711n059CGQbO8etQ5oLnleOKl5eXl5d3r9cvwedZsuFP9OPLy8u7zltUwBQyy2e4rHZ8bL0ehZeXl5e3ZK85yjT37vFS2VKOLy8v7zJvMQHz3tn0p1aGodPrUXh5eXl5S/beO/OUMc+qmCUdX15e3ufeogLmvfvzXqrcF0ucz9Ida888QXh5eXl5ebd8VDP/5lHILPH48vLyznuLC5jJ63mHNhlvIjQeh8+e74w6nnl5eXl56/LaoPDf+7eAycvbhrfYgNn3Qib+JgXPR8932lyIl5eXl/cqb7rXqGb+x7BPaji+vLy8FQbMvhcy8Zxh1dPmQry8vLy8V3rTPcZ85T8ETF7e+r0vkb7MFq+dZbGVtLnQo3d3qn7y8vLy8h7pbX3OMrWZX03Hl5eXt6sjYAqZOIOpADqsgA7HX+nnES8vLy/vdd6Wq5kfb6/VH19e3ta9xQfMeydkIh9zIXTNJ1VE125KVNOFiJeXl7dFb6vzlvF9stbjy8vbqreKgHnv/oTM3BdNYIpxEH10bixZopvCaC3nLy/vXu/S82aKWrw1H9+avS2GzHEVs+bjy8vboreagHnv/lSAcl84gT0Mw+i4Mjp+VnTPR+W0Xe/w2JcQuJ79UubedZPnyRxT59ieP7cy9fO2tvXR8bShWXxvi0tmh1XM2o8vL29r3qoC5r0TMtE2c4H00Xn0qEJ6ZQCp9cIbqcK1tL/nPvfueZCbC2C5zw08vkakkLpkXD26NjwaY3s+EecbZ3hbOleGVcxWji8vbyve6gLmvRMygbWkSc3Un0urQum8fvZn+rvjP3MHrrXeve0dVqrWVN+WVOQeHc/hn8BSxuPq0eqKuddB7flEnW+c4W2pmpl+AdrS8eXlbcFbZcC8d0ImUBpLQ1GUPwEsI50zS1ZWlDjfOMPbUshs8fjy8tburTZg3jshEwCAEni2I/fWDY1KnbC1NH/5cfu6aS+Ako8vL2/t3qoD5r0TMgEAKJ1x+Ez39yXBs9R5TmpP7asmPt5eBUxe3sq81QfMeydkAgBQI+NXP02FzZLnOakttS+Z3VPFLPn48vLW6m0iYN47IRMAgNoZVjpr2lyohZApYPLy1uNtJmDeuz/vDcx9EQUAAOeTwmYN85zaf1G+tYp5dD/z8vLu9zYVMIfe3BdSAABwHVvCZrR5Ts3PZW59FvOMfubl5d3nbTZg9r2QCQBAqywJmxHnOWnpb40hM7UvQj/z8vJu975E+jJXemtfagIAAJ6TnttMc4OSNgiq7bnMj7fXkP3My8u7zttswLx3QiYAAPhDiRsE1RYyo/YzLy/vcm/TAfPeCZkAAOBf9mwOlGOek7u/jmJtFTPKfJKXl/fPp/mAee+ETAAAMM3WnWhzzHNqeS4zej/z8vI+9gqY/4+QCQAA5lgbNHPNc3L30xGU0M+8vLzzXgFzQM3bfwMAgP0sDZo55zmlz2PWLJONOJ/k5W3dK2COqHn7bwAAcAzPgmaueU4t85il/RB1PsnL27JXwJygloszAAA4l7mgmXOeU8M8ZmkVM/J8kpe3Va+A+YDSL84AAOA6hnOU3POcFDJLfo3J0fO61uaxvLy5vALmA2q4OAMAgOv4eHv9aw6Re55T8jwm+rOuvLy8AuZmb8kXZwAAcD0fb6+bQ+aR85zSf1l+xryutXksL+/VXgFzISVfnAEAQB5+3L6uDppnzHNKncc864/S5pO8vC14BcwN3twXWwAAUA7DZbO55jmlVjKfbfZT8nySl7dWr4C50Zv7ggsAAMpiaTXzzHlOiSHzinnd0f3My9uyV8Dc4bXDLAAAWMOSauaZ85wSK5kR3zfKy8s77122B/RFX6Ykbw3vmAIAAHl4NCe5ap5z77rs/bCEtGFSjfNJXt4avQLmDm+JvwUEAAAxmHu+8Mp5zr0rI2Sm5cU1zid5eWvzCpgHeIVMAACwhbRkNuc8p4Q5jIDJy1uOV8A8yJsuerkvwAAAoDyGzxnmmOeUMIdpYT7Jy1uDV8A80JtCpucyAQDAWtKS2TXvzDxynhO9kjmca9U8n+TlLd0rYB7stfkPAADYQ5pPXD3Pif7Iz9RmP2fP61qbx/LyHuEVME/w2vwHAADsYe6Zw7PnOdHnLwImL298r4B5otdzmQAAYCspZK4JmkfMcyKHzHHwvnJe19o8lpd3q1fAPNnruUwAALCVtCx0acg8ap4TNWSOl8lePa/j5eV97hUwL/De3j/7vu+FTAAAsJr0KpMlIfPIeU7EPSVSX7Q4n+TlLcUrYF7svXeWzAIAgPXcu+ch88h5TtSNC4f9kHtex8vL++/PEzAzeaNdrAEAQHzu3eOQefQ8J2LIHC6TPbq9pc0neXkjegXMjN6IzzYAAIDY3Lv5kHnGPCdiyBQweXnjegXMzF4hEwAArGXuNSZnzXOi7YyfvtNZ7S1tPsnLG8krYAbxRvqtIAAAiM9UyDxznhNpZ/y0TPbM9pY4n+TljeB9ifRlWvVGXHoCAADi8+P2Ncs8J3e7P95ew87reHlb9wqYgbxR3zkFAADiMgyZV81zIsxX+r5f/H7QluaTvLy5vQJmIO/wRcqqmQAAYCkpZF45z8kdMueeQ40yr+PlbdUrYAb0WjILAADWkiNw5ZyrDF9XEnlex8vbmlfADOodVjNz37AAAEAZpDnElfOcnJVMAZOXN55XwAzuTTukqWYCAIAlpPnDlfOc0tra2nySl/dKr4BZkDf3sw4AAKAM7t364LV3npOjnXuWBeee1/Hy1uoVMAv0qmYCAIBn3Lt1IXPPJ+dO+AImL28sr4BZqFc1EwAAPCJtgrM0gO2d5+QKmcld8ryOl7cmr4BZuFc1EwAAzLFmp9Uj5jk5dsHfukz2iPbWMp/k5T3SK2BW4FXNBAAAcywNYEfMc3K8ak3A5OWN5RUwK/KqZgIAgCmWhLCj5jlXv2Zt6/swj2ovLy/v3x8BszKvaiYAAJji3j1+VvHIec7Vz2M+a1up8zpe3hK9AmalXtVMAAAw5t7NB7Gj5zlXhsxH7aphXsfLW5JXwKzYq5oJAACGPFpOesY856rnMbcskz2jvby8vH3/EunL8B7nTQ/Z971qJgAA+MOP29fL5zlnz0U+3l4vmV+1Np/k5d3iFTAb8d67TtAEAAD9r+8vk3OTs+c5Z7cpx/xqy4eXt3avgNmY17JZAADw6/u/U8Cz5zlnz0HWzrdqmNfx8kb0CpiNelUzAQBom/Gy0ivmOWfOP+aW/l45v+Ll5RUwm/aqZgIA0DbDUHbVPOeKtuScX/Hytu4VMHkFTQAAGubqec69605px9qNfmqd1/Hy5vYKmLy/HZbNAgDQJn3fr37Nx555zlm/3F7zqXlex8ub0ytg8v71+XH7KmgCANAYP25fLw2YfX/O85hrvksL8zpe3hxeAZN38mPZLAAAbbEnZG79nNGGpZ+W5nW8vFd6BUzeh17VTAAA2uHedZtC5tbP0b/QXvMcZovzOl7eK7wCJu/s5/b++fsmI2gCAFA/H2+vlwbMvj9+qezST2vzOl7eq7wCJu9Tbwqals0CAFA/W5bK7p1vHPn9185zWpvX8fKe7RUweRd7BU0AAOrn4+31933/ivnG0XOLpc9hRplf8fLW5hUweVd7LZsFAKBu1lYx93zSL7CPmlcImLy8eb0CJu8mr+czAQCom3S/v2K+kTxHfO+lG/1EnF/x8tbgfYn0ZXjL9gqaAADUQ44dWe/d/pC5dKOiPZ8W5nW8vFu9Aibv4V5BEwCAOsix3PSIecS9e1593fNpaV7Hy7vWK2DynuL9cfsqaAIAUAE55ht7v/O9EzB5eXN5BUzeU7ye0QQAoA6WVDGPnm/s3VV2ySZFez6tzet4edd4BUzeU72CJgAA5fNsXnDGfGPPvEHA5OXN5xUweS/xCpoAAJTLsw1/zppv7Pm+AiYvbx6vgMl7qVfQBACgTB7NDc6ab2xdKitg8vLm8wqYvFm8KWjaDAgAgHLIMd/YOk8QMHl583gFTN5s3hQyVTQBACiDuQ1/zp5vbPmuAiYvbx6vgMkbwjsMmnt3jgMAAOcw9yzm2fONLb+ETvOLCPMcXt6WvAImb1ivoAkAQDymqphXzDe2fE8Bk5f3eq+AyRve6zlNAABikWO+sfYXzwImL28er4DJW4z33nlOEwCACIyrmFfNN9bMA57tJLvnU9P8ipf3aK+AyVuk1/JZAADykmu+sfT7CZi8vHm8AiZv0V7LZwEAyMOwinnlfGPpfV/A5OXN451/oVGGL8PLu8brNScAAOTl6vlGuucv/X5HeVuaX/Hy7vUKmLxVeFPQ7HtVTQAAriJtpHPlff/2/rn4UZmj5xutza94ebd4BUzeqr2CJgAA55IjYN67ZVXMq+YbZ7aXl7c0r4DJ24RXVRMAgHOYei/m2ff9pVXMR3ODmuY5vLyRvAImb3NeQRMAgOP4eHu9/L6fHo15dk9/FH5rnefw8ub2Cpi8zXpVNQEAOIY9Vcyt9/wlS2UFTF7e670CJi9vL2wCALCHPVXMvff9R/dvAZOX93qvgMnL+/+f9JtQYRMAgPVsvQ8fcd+f+04CJi/v9V4Bk5d34B2/W1PYBABgGVurmEfc9+c2/Hn0nVqc5/DyXuEVMHl5Z7zCJgAA68h535/6PgImL+/1XgGTl3eBV9gEAOA5Wzb7Oeq+P1XFFDB5ea/3Cpi8vBu8wiYAAP+yZZnskff9Nd+nhPkGL2+JXgGTl3eHNwXN9Plx+7roxc8AANTK2irmkff98T1YwOTlvd4rYPLynuhV3QQAtMbaKubR99/x97nyvp+jvby80bwCJi/vRd4UNgVOAEDt5Lz/jquYue77vLytel8ifRle3lq9402C7p1nNwEA9fLj9vWve97V99/hd5n7Hmfe91ub5/DyDj8CJi9vBu8wcKaPCicAoCZyBczb++df91IBk5f3Wq+Aycsb1CtwAv+RzoMc5G47UDJLq5hn3X/T9xAweXmv9QqYvLyFeO+dZbWITxqfw3H68fb6e4flMc/Oo2G1/xF7Po9+7tx3SufjkKm2Ay3z8faaLWAOq5gCJi/vtV4Bk5e3UO+961Q5cRrDsJQC4jgoDsdx+t97z6NhsFu6vO7s83fuOy0Jtum7jYOocxatsORcPuP8vb1//t7sZ+47nOHNfb3i5Y3gFTB5eQv2Pto8yAQWY8YhZ+5ddeMxtaTCd0QlsbXzd/hznLeolSXLZM86f2/vn/2v7y/VXjd4eaN6BUxe3oq8cyFA5aQuxs8JPlt6umdcraki1nIeXel9FN6dt6iBJctkzzp/03lU23WDlze6V8Dk5W3AO1V1Gv73JrH5Jl5jhsdtbmJ09jOJ0cdzC95H1eIUPHOPX2ApaUyQ95KKAAAgAElEQVTnOH9zeVu6XvHyjj8CJi8v7+zHc2PPmdt99IiK4tSzfznfK8eb3zv1C4R7ZwMwxObZMtmrzyNeXt5zvQImLy/vLu/UTpqlvObhUTicattUP6ok8kbzprEb/fxDOzxbJhvxPOLl5d3uFTB5eXlXf4bVtLUMP3Ovrjiao19jkdpe6/HlrctrSS0i8Oi6WcJ5xMvLu9wrYPLy8hbj3RJoh8+cltZeXt6jvfdOdRN5eLRMtrTziJeX97FXwOTl5eXl5W3IO/zFi7CJq3i0TLbE84iXl3feK2Dy8vLy8vI26B1X+YVNnE0adzWdR7y8vP9+BExeXl5eXl7evyb+gibOYG6ZbE3nES8vb9+/RPoyvLy8vLy8vHG8qpo4ko+31ybPI17e1rwCJi8vLy8vL+9Tn51ocQQRxjMvL++5XgGTl5eXl5eXd9Hn9v6pqold/Lh9DTOeeXl5z/EKmLy8vLy8vLyLvWljIEETWxAweXnr9wqYvLy8vLy8vKu9wx1oBU0sZeo5zAjjmZeX9zivgMnLy8vLy8u72StoYi2RxzMvL+9+r4DJy8vLy8vLu9sraGIp42WyEcczLy/vdq+AycvLy8vLy3uYV9DEM8bLZCOPZ15e3vVeAZOXl5eXl5f3cK+giUeUNp55eXmXewVMXl5eXl5e3tO8giamKHU88/LyPvcKmLy8vLy8vLyXee9dlz3cID/D5zBLHs+8vLz//jwBk5eXl5eXl/dy74/b1+whB/kYPodZw3jm5eX9g4DJy8vLy1uNd8s/Dz9pOeft/bP/8u1n+PbW4LVstk0ETF7eer0CJi8vLy9vVm/67559huFvGALnePlfv5vb+2c1/RzZe+8sm22R4flf03jm5W3dK2Dy8vLy8p7iHf7v9M/pz+HGL2eFwz0sqV5G6eeavJbNtkV6DrPW8czL26r3JdKX4eXl5eWN603/37O/M64s5g6La3nWxlqPb26v3Wbb48ft69NVAqWOZ17elr0CJi8vLy/vP970Z5rwTy1HzR0Ez6hatnJ8I3tT0FTNbAMBk5e3Pq+AycvLy9uwt/RqY46qZUnHt2SvamYbCJi8vPV5BUxeXl7eQr3p70z93RQcW6g87mFL1bL2cRXJq5pZPy2NZ17eVrwCJi8vL29g75R/quooOK4nVU5aHFelelUz6yNt9NPieOblrdUrYPLy8vIG8D56/UbuIFYb4x1iax5XNXpVM+ti+D7MnOOKl5f3OK+AycvLy3uQd/h30z8/emdj7qDVIlPPe0UfV7z/eu+d92bWgoDJy1ufV8Dk5eXl3eEVGsvg0XstI44r3mVeS2brINq44uXl3ecVMHl5eTd70z+P/xz/c872Dr/b3OfR8lShsXye7VKZ+zzi3ee1ZLZ89oyt2sYzL28NXgGTl5d3k3cqeI2DWSK9buCq9k6FRGGxPR5VLbeMq5rO39q8986S2ZLZs9FPjeOZl7d0r4DJy8u7+iOoITpr3q3X2vlbs9eS2TIRMHl56/IKmLy8vIs/t/fP7MEBeMTSqmXO84j3XK8ls+WxZ6Of2sczL2+JXgGTl5d30Ue4RGS2BMsc5xHvNV4hszxKGFe8vLzLvAImLy/v048lsYjMnnB55XnEe703d2iCgMnL26JXwOTl5Z39pM1ycgcIYIov334WcR7x5vV6LrMMShtXvLy8895dLx+qpRN4eXn//bn3rsseIIA5xpv4RDyPePN70zgRMuPz4/b1rx3HI48rXl7ex14Bk5eX9x9ULRGVueWwEc8j3lhez2XGRsDk5a3HK2Dy8vL+/ln3TrhEXB69eiTKecQb2ytkxuXj7VXA5OWtxCtg8vLy/rkgBAgRwJgl77SMdB7xxvYKmXERMHl56/AKmLy8vKqWCMma3WEjnEe8ZXlzhykImLy8tXoFTF7exr3CJSKypGoZ6TziLdObO1Dhb+5dtzpkRhxXvLytewVMXt5Gvbf3z+whAhiz9Z2WrZ2/vMd5c4cq/GHLRj9RxxUvb8teAZOXt0GvqiWi8eXbz9VVy9znEW893tzBCgImL29NXgGTl7cxr3CJaHz59rO484i3Pm/ucIVtO8lGH1e8vC16BUxe3ka8lsQiGsNgWcp5xFu3N3fAah0VTF7eOrwCJi9vA17hEtEo8TzibcObO2S1jAomL28dXgGTl7dyryWxiESqWpZ2HvG25c0dtFqm5nHFy9uKV8Dk5a3Uq2qJSIyXw5ZyHvG2680dtFpFBZOXt3yvgMnLW6FX1RKRKPU84uXNHbZa4+Pttb93696FWeK44uWt3Stg8vJW5hUuEYUlVcuo5xEvb9/3/Y/b1+yhqzXunYDJy1u69yXSl+Hl5d3utSQWUfjy7Wex5xEv7/Ca2vdC5tXUPq54eVvwCpi8vBV4VS0RgS/ffv6elJd4HvHyznmFzOtYe7xLHle8vLV6BUxe3sK9uUMF8PK//veStlLPI17eZ96Pt9fs4asFWhtXvLw1egVMXt5CvaqWiMD4tSOlnUe8vGu8Qub5rD3eNYwrXt7avAImL2+BXuESuZnbwKek84iXd4s3dwCrnbXHu5Zxxctbk1fA5OUtyGsjH+RmXLEs8Tzi5d3rzR3Caubj7TX78eXl5d3nFTB5eQvxqloiN0teHRD9POLlPcJr0x8Bk5eXd94rYPLyBveqWiI3z6qWJZxHvLxHe4XMc/hx+xri+PLy8m73Cpi8vIG9wiVyMvecZWnnES/vWV6b/hyPCiYvb/leAZOXN6jXkljkYk3FMvp5xMt7tjd3IKsNFUxe3vK9AiYvbzCvqiVysuQ5yxLOI17eq7z3rsseympCBZOXt3yvgMnLG8iraolc3N4/qzmPeHmv9loqK2Dy8vL++QiYvLwBvKqWyMWXbz+rOY94eXN6hcxjsESWl7d8r4DJy5vZq2qJHEwFy5LPI17eCN7c4awGVDB5ecv3Cpi8vBm9uUMG2uPLt59/LYet4Tzi5Y3i9eoSAZOXl7fvXyJ9GV7eVryWxOJqUrCs6Tzi5Y3mvb1/Wip7QMBcs9lYC+OKl7c0r4DJy3ux15JYXE2N5xEvb2Rv7pBWMgImL2/5XgGTl/cir6olrmbr+ywjn0e8vNG9t/dPS2UFTF7epr0CJi/vBV5VS1xJmpxtHddRzyNe3hK86fyzVFbA5OVt1Stg8vKe6FW1xJUMd4at6Tzi5S3NmzbSyh3WSkTA5OUt3ytg8vKe5FW1xFV4lyUvb0yvpbICJi9vi14Bk5f3YK+qJa7Cuyx5eeN7cwe20hAweXnL9wqYvLwHelUtcQWPgmUN5xEvb01eVUwBk5e3Na+Ayct7gFfVElewJFiWfB7x8tbqteGPgMnL25JXwOTl3elVtcTZfPn28/emIbWeR7y8tXtzB7dSEDB5ecv3Cpi8vDu8uYMH6mZLsCzxPOLlbcGrirmMH7evAiYvb+FeAZOXd4NX1RJnsidYlnQe8fK25s0d3krg3nUCJi9v4V4Bk5d3oTf9ndzhA3VT+3nEy9uy14Y/AiYvbwteAZOXd6FX1RJnkSqWLZxHvLyte3MHuOjcOwGTl7d0r4DJy/vA2/dePYLz+PLtZxPnES8v75+PKqaAyctbu/cl0pfh5Y3mFS5xBkufsazlPOLl5f2PFJxyh7jIlHx8eXl5//sImLy8E17vtcQZrN28p/TziJeX919u75+qmDN8vL0Wf3x5eXl7AZOXd+xVtcTRfPn2s7nziJeXd/7n3t4/s4e5qNRwfHl5W/cKmLy8/4+qJY5ma7As+Tzi5eV97lXFnEYFk5e3Dq+AycvbefUIjmW4eU9L5xEvL+8yr2cxp/lx+1rF8eXlbd0rYPI27bUcFkcytStsC+cRLy/veq8q5r+oYPLy1uEVMHmb9eYOI6iHFCynxmDt5xEvL+92r2cx/0YFk5e3Dq+AyducV9USR/EoWNZ+HvHy1uB99r7Fs9t7e//sP95eswe7KGzp84jjipe3da+AyduEt+/tDotjSK8aSeOqpfOIl7cWb1qe+uP29WHIPLu9nsUUMHl5a/QKmLxNeIVL7GXq+crWziNe3lq8w2D3KGRe0V5VzD+c2c81j2de3mheAZO3Wm/fq1piP1uDZS3nES9vzd5h5WwqZF7RXpv9CJi8vLV5BUze6rzpz9zBBGUzfIdli+cRL2/t3mHlcK6KeVV7bfazbYOftf1c83jm5Y3kFTB5q/OqWmIPt/fPUOOZl5f3/IA5FzKvaq8qpoDJy1uTV8DkrcZ7e//MHk5QJmnjnkjjmZeX91zvONR9vL1mDZj3ru3Nfq7o55rHMy9vJK+AyVuFV9USW3gWLHONZ15e3vO9U1XDcRXzyva2vtnPVf1c63jm5Y3k3X5Gn/BleHnXegVLbGHtxj21n0e8vC17HwWdq9t779qtYj57J2lp44qXt2WvgMlbrDd3SEF5rHl/ZSvnES9v695x0Pl4e83a3harmFPLk0sfV7y8LXsFTN7ivKqWWENaBht1PPPy8ub1TgWenO1tcbOfR+8iLXVc8fK27BUwecN7078TLLGG4WtGIo1nXl7eWN6pimGqYuZqb+7AdzX3bvo9pCWPK17elr0CJm8R3txhBWXwaNOeSOOZl5c3jnduSeqeqtre9ra2TLbGccXL27JXwOQN7VW1xBLG1cqo45mXlzee91GYu3d5KmstLZPd8/xl5HHFy9uyV8DkDefte68dwXO+fPu5KFjmHs+8vLyxvY/CXM5nA3MHv6vIWSmucTzz8kbwCpi84bzCJR6x9N2VUcYzLy9vfO+jAHTvtlUx93xaeidmam+N44qXt1WvgMkbxitY4hFrqpURxjMvL2853jMqbHs+t/fPZpbJXnF85z68vLzneAVM3uze2/tn9vCCmIxfMVLCeObl5S3P+ywE3bv1Vcy97b29f2YPf2fz4/b1kuP7qJ95eXkFTN6KvLf3T1VLTPLl28/ixjMvL2+Z3nv3/HnHLVXMve1tYZmsgMnLW6dXwOTN4hUsMUWawM2Nv6jjmZeXt2zvkjB079ZVMfe2t4Vlslcd30f9zMvLK2DyFu61HBZj5qqVJYxn3v9r7+5y5Ma1dIF6kh5JD+HOpEbROQjPIZ8UgAdQQDuBzPvgw1OySorQP/cmlwCiDhoNr+AmIzK+IEVxuW24a1YKt65iHu1vsWqHwKvarx/fbxvfZ3XmcrkCJjepazusNm7jeyu3zLUo85nL5bblrg1Fj2H9KuYZ/W15m2zZHnvH+L6qM5fLPdcVMLmXu4KlVtqRo+ijzGcul9ueuzbEbVnFPKO/LQfMO8f3VZ25XO657rdIL4bblitYat/+3z9bYMu8yDqfuVxuu+7aUDTe1nlXf7e8vizt14/vTgjncht2BUzu6a77LLXp40Uyz2cul9uuWz6ntqwSjrd23tXf2oHw7DZdCb5qfHubz1xuFFfA5J7mus+y7/Y///t/qw7syTKfuVxuP+7W1be7+9vSNtlfP75/PYZBwORyG3YFTO4prmDZb9tyCmyW+czlcvtw96xgfr6tO77izP629LiS6fbYFucVl9u7K2ByD7mCZZ/t2RbYzPOZy+X26W4NSWu2yZ7d39rB8Kz2GP59Eu/V49vbfOZya7sCJneX6z7L/lrZAtvifOZyuX26e1cw16xint3fVrbJzv04edX49jafudworoDJ3eS6z7K/9v7zo9n5zOVyuY9h3ymtr1Yxz+5vCwFz6TEvV49vb/OZy63tCpjc1a5g2U8rW2Bbns9cLpd7ZAXz1WE/Z/e3hfswxzVveV5xub27Aib3pStY9tHK9tfW5zOXy+VO297AdHd/awfEI23ucJ/W5xWX26srYHIXm/ss22+vVipbms9cLpc7bUdWMD/fnm+TvaK/tUPikba0PbbFecXl9u4KmNzZVjv4aNeGyt7mM5fL5T5rR1bl7uxv5vswn508fvX4crnce10Bk/tHsx22zTb3WJEe5jOXy+U++3ePrmB+vi1vk72iv1nvw3y2etnivOJye3cFTO7XYxAsW2yvnlXZ8nzmcrncLe7R8HRnf2uHxT3tMcwf7tP6vOJye3UFzM5dwbKtVra/1p5XXC6Xm8E9YwVzaRXzqv7WDotb27PDfVqdV1xu766A2anrAJ922nilcstca2k+c7lc7hH3aIi6s7/Z7sN8tT225XnF5fbqPj9j++YXw73eFSzbaA7q4XK53PPco6FtbpXuiv6+//xIFTBfPSv0VX+zzysut1dXwOzEff/5YTts4vY///t/f2x/LfOi9rzicrncFtwzgtRdATPTQT/PHuOypr/Z5xWX26srYHbgCpY526tDemrPKy6Xy23FPWNV8DH8eZDNFf3NFjCP9jf7vOJye3UFzIZdwTJf23JIT2/zmcvlcq9yz1qtuzpgllY7OJ65ermmv1nnFZfbqytgNuSW/1/BMk9b2voaaV5xuVxu6+4ZgWq6Tfaq/r7//KgeHte0LTVodV5xub26AmZDrmCZo5Wtr2fMrTvmFZfL5bbsPobzVgTvCpjRD/pZe7jPmv5mnVdcbs+ugJnc/fpyj2X0VlYpp6Ey8rzicrncntwzV+3Gj426or8ZAuaW7bGv+pt5XnG5vboCZkJ3/H+rHZ605VC5FCijzisul8vt1T0zWN0RMKMf9HNmfzPPKy63V1fATOpatYzVSqBcGyqjzisul8vtzT0zrI3vw7yqv+Xfrx0iz1q9fNXfrPOKy+3ZFTATue8/P6oHKe2fQDk9nCfrvOJyudye3bO3m97R38gH/VzR34zzisvt2RUwk7i1A5X2/LmUWecVl8vl9u6evd30MQy7drNs6W/UgLn1cJ+1/c04r7jcnl0BM7hrK2zMQJl9XnG5XC7393X2Cma5D/PK/kY96Oeq/macV1xuz66AGdB9//khWFYIk+NAuXW8M8wrLpfL5f77Ojuolfswr+xvxIC5d/VyTX8zzisut2dXwAzmCpb3B8oe5hWXy+Vy568rgtYdATPaSbJHxrjFecXl9uwKmAFcK5Z1AmXr84rL5XK59wfMz7dv3QXMI6uXa/qbcV5xuT273yK9mB5dwfL6QDkev17mFZfL5XKfu1eGtPLvX9nfSAFz/PzPKOPL5XLruQLmzW7534Ll+YFy+sdt63hnnldcLpfL3eZeGTDvCFyPIcazMMvqZbTx5XK59VwB82ZXsDwnTC5td609vlwul8vN4V4ZMMt9mFf3t3a4LGE64vhyudx6roB5kytYnh8mI40vl8vlcnO5V57E2lPAjDq+XC63nitgXug6vOfaMFl7fLlcLpeb1736UR939Lf2o0rK6mXE8eVyufVcAfMiV7BcHyYzji+Xy+Vy87tXB8y9q5hrr9oBM/r4crncOq6AeaJrxXJbmFwaj6jjy+Vyudw23PL36OrVvZYD5nj1Mtr4crncuq6AeYIrWP4ZIuceDbKl9tHGl8vlcrltuQLmuauX0caXy+XWdQXMA+77z4/qwa52mGx5fLlcLpfbpnvlCbJ3Bsxaz8Kcrl5GG18ul1vXFTB3uD2sWJYQOV6V7GV8uVwul9u2e0fAPHKS7NqrVsCMPr5cLreuK2BuaK2tWI5DZKQ6c7lcLpd7pXv1CbItB8y51cto48vlcuu6AuYL5zEMaVcr51Yhx/2a9rO38eVyuVxun66Aee7qZbTx5XK5dV0B80mLGiznguOzbazR68zlcrlc7p3u+8+PW8JYsa7q790Bc2n1Mtr4crncuq6AudBKuLwqZI5D4rSVezzHK46t1pnL5XK53DvdO06QHQfMK/t7Vz9erV5GGl8ul1vfFTBfOD31l8vlcrnc1t07Dvi5awXz6+srxOrlXJ17m1dcLvef6/nPUTe/GC6Xy+Vyudyr3bueH3l1f+/a6rvmftIjVyvzisvl/m4CJpfL5XK53K7cuwLmq1W/o/29K2CueabnkauVecXlcn83AZPL5XK5XG5XbpRtpUf7e0fAXHsa7pGrlXnF5XJ/NwGTy+VyuVxuN+5juO9gnBYC5prVy0jjy+Vy67sCJpfL5XK53G7cOx/tkT1gbnmWZ5Tx5XK59V0Bk8vlcrlcbjfuXfdfthAwi5FpfLlcbn1XwORyuVwul9uNe1e4zB4wt6xeRhpfLpdb3xUwuVwul8vlduMKmOevXkYaXy6XW98VMLlcLpfL5Xbh3nn/ZeaAufZgn2jjy+VyY7gCJpfL5XK53C7cO++/zBowt26NjTS+XC43hitgcrlcLpfL7cK9M1xmDZh7Vi+jjC+Xy43hCphcLpfL5XKbdx/Dfc+/zBow965eRhhfLpcbxxUwuVwul8vlNu/eff9lxoD5/vNDwORyuYddAZPL5XK5XG7z7t33X2YLmHu3xkYZXy6XG8cVMLkp3aU/gq32l8vlcrnH3LvDZaaA+evH9/Tjy+Vy47jfIr0YLnetu/RHu9X+crlcLnff9f7zo8r22COrgluuM17nY/gdVo9cvc0rLpe77AqY3JRu+bIwDZqt9pfL5XK5+673nx9VtsdmCZjj13jk6m1ecbncZVfA5KZ1yxeGsrXn6+vL/SNcLpfL/eO64lEerQTM6amxR67e5hWXy112BUxuanf8q/Tf7399PYbl+zNb6C+Xy+Vyt121tsdmCJiPYRAwuVzu6a6AyU3vTrc+lV9kt/5Rz9JfLpfL5a6/agbMx7DvR88t11mrl1nHl8vlxnMFTG4T7rNfjtf+cc/UXy6Xy+Wuu2rdf1kC5tX93RsuH8O/w++Rq7d5xeVyl10Bk9uMu/RHdG3QzNZfLpfL5b6+aoXLyCuYS6/ryNXbvOJyucuugMltyn32B/VV0MzYXy6Xy+UuXzW3x96xgrmnf8/uCz1y9TSvuFzuc1fA5Dbnrv3jamsQl8vltu3W3B77+fbt8kPntgbMufsuM48vl8uN6QqY3Kbc8odzy6+4nv/F5XK5bbo1w+WrMHdGf7cGzMfwfMvukaunecXlcp+7Aia3OXdLyCxBM3N/uVwul/vvq/b22GgBc80jU45cvcwrLpf72hUwuU26W0Nm+eObtb9cLpfL/fOqvT02UsBc+1qOXL3MKy6X+9oVMLnNuntCZvlDnLG/XC6Xy/3Hqhku164YHu3v2hD9GNadZnvk6mFecbncda6AyW3a3RsyS9Bcu6oZpb9cLpfLrb89NlLA3PI6jlw9zCsul7vOFTC5zbtHQub4D3SW/nK5XG7vbu1wuWXV8Eh/XwXMrSH3yNXDvOJyuevcb5FeDJd7tXv0C0NZ1SynzzqBlsvlcuO47z8/Qqxefr4d+nq1uq/PAqbbPbhcbi1XwOR255715eHXj+9fj+H3H/nI/eVyudxe3Feh6662J9zt6e/ZATf6+HK53ByugMnt0j37i4QTaLlcLreue8btEFkC5qu+Xlnn3uYVl8vd7gqY3G7dK37l3hM2W68zl8udvxev5f7WcCNtj625gukHTy6XW9sVMLldu1dupSpbaCP1l8vlXu+O79EuwfLv97+a7W8U9/3nR/VgeUbIW9PfpTB9tdvjvOJyudtdAZPbvXv1/Tq/fnx/GjZ7qTOX26I7DZPjQFne++MfnLL3N6obafXy8+1blf7++vHdmQBcLjeEK2ByuV/3PjNtGjbHX0pbrzOX26I7DZNz73dbZK8PXLVD5bhdHfSmhxk5dI7L5UZyBUwu9z9XjV+/yz2bj2H41wpIq3XmcjO6j+F3kHwWJsdt7nFGmfqbyY10uE/5XL8zYBbPY7O4XG4UV8Dkcv9zRdhiNRc2nwXOjHXmcmu70/fX9BoHya3BYvzvR+lv626UR5NMf1y4us5z4bLF8eVyuflcAZPLHbmRfglfs7qZtc5c7l3usx9rtqxInhksW6xzzfF9DDE+s+8OmEvbr692e5hXXC73mCtgcrkTt/yxjvSL+DhwPlt5yVRnLvdM99lhO2eEyKUgUT4z9txHnbHO0dwIO0+mrbyuO+rs3l4ulxvRFTC53Bm3fGGMFjLHYXPtY1Ai15nLPcO9MkQu/dBTrr0HdGWsc0Q32uE+Zctqa3XmcrncLa6AyeUuuCVkRvt1/Fng3PIMtCh15vbrli/ir1bky0rhXSFy6T02V5sMdW7Vjfj5LGByuVyugMnlvnQjfolZ+0XnWeC08sK9w53buro092oGyKX26kebKHXuzY1472WZLwIml8vt3RUwudwVbtT7MveGzqXTap1+yT3qrrkPcvx4hdrviWfvk8h17t2N+sOf01y5XC53+PoW6cVwuRncqF+Kj7QSACLVmRsnJI7D4tJprCWUZX5/7DkNNuP4tuLWni9z86fFOnO5XO5WV8Dkcne4jyHe1qyzvyhNVzvHNdq64pltfHt2x/9GGf+51cdW2tzpzC2PbytuxNXL6Y90LdSZy+Vy97gCJpd7wG3ty/baL+TjL+bje46WVr48WmW/O7d6uLfO48A4Xm1sMThuCQPuR87n1p4/c63FOnO5XO4eV8Dkcg+6EX9Jr9nGK13TQJNxfI+4VwXqaV2nK4w9Bsa1c3NuK3i2edW7G/Ezd7o9toU6c7lc7l5XwORyT3AjfuGJ3uYC0VxwGo/NlhW8M1dOj7hzfXoVDAXEc9urHzd6+7zK7taeT0tzrLU6c7lc7l5XwORyT3BbOWU2e3sW1s5otfunbZsLa9/XvX1eZXaj/pg3V5vMdeZyudwjroDJ5Z7kjlesan/Z0bQe25bHi0T53OBuc2vPsaXWWp25XC73iCtgcrknu1YzNe3eNnf/W7bPDe5rN+qPd0s/amStM5fL5R51BUwu9wJ3/ID52l9+NK3FVlYry/uthc8N7nO39pxbakt1yVpnLpfLPeoKmFzuRe54y6zVTE073qahcvx4kVY+N466a15Ttv6+//wI/RnaSp25XC73LFfA5HIvdt2bqWnH2jRUzj23srXPjb3u59vyilrG/kb/7Hx2z2+mOnO5XO6ZroDJ5d7kujdT09a38hiXZ6Gyh8+NLW75bGmlv2XcI+jduegAABCOSURBVH9mPqtJljpzuVzu2a6AyeXe6FrN1LTlVh4tsjZU9vK5scYtnylrDjzK0t/on5Wvap2lzlwul3u2K2ByuRVchwBp2u82frTI1lDZ2+fGM3dczxb6W+ZB7fn5rL16JE6GOnO5XO4VroDJ5VZ0y+mXkbeAadrZbel5ldnev1HccW3XPAc0Q3+jb439fGtnKzKXy+We7b7+hLzxxXC5Pbq2zWo9tLkTYKerlRnfv7U/N6YhrNQ3e3+jfx7++vG9iTpzuVzuFa6AyeUGcW2b1Vpr5Z7KMr9fbYHN/P692136UWrNFuMM/Y2+ejn+zM5cZy6Xy73CFTC53EDu+Et49C9YmjZtv358d1DPTe5cuFyzqpahv9F/ZGulzlwul3uVK2ByuQHd8RdzQVOL3MZbX7++HNRzh/sY5g+/KY91yd7f2nP6VWulzlwul3uVK2ByuYFdQVOL2JYO6Yn6PmrNXRqXtcE+cn8zfM61UGcul8u90hUwudwErqCp1W7PQmWW91EL7rPxyR58om+N/Xxbv3oZuc5cLpd7tStgcrmJXEFTu6utDZQZ30dZ3WfjVT4fMve39pxf09xTzOVyua9dAZPLTegKmtoVbW+ozPo+yuS+GrfswSfD59iW1cuodeZyudw7XAGTy23AfQweb6Jtb0vPpqw9n7l/Xq/GMXvwyfLZtfXwqmh15nK53LtcAZPLbcz9+/2vFKsBWp329/tf/w0kS48SiTSfe3dfjefW1cuI/a39nlj7vsleZy6Xy73LFTC53EZdQVP7fFtepcw2n3t014xv9uCT5TOqvH+y1pnL5XLvdAVMLrcDN8sWNO1Y+/Xj+2KgzLyFskd37XjveeZolP5mCZfZ68zlcrl3uwIml9uRa1WzrTYOk9NrzxfibPO5VXft+O9ZvYzS38cwVH//rG1bf6CJVGcul8ut4QqYXG6nrlXNfO1ZoIwyr7jH3C1zYe+PCBH6W/u9tLbtDfFR6szlcrk1XAGTy+3UHf8qb2UzXithcm2gjDKvuPvcx7BtRe8xbL8nMEp/M33W2AnA5XK5291vkV4Ml8ut7wqbddrcMyj33D8ZdV5x5933nx+bdxP8+vE9ZX/39LVm80xYLpfL3ecKmFwud/ESNs9vW1YmW51X3N/X3sCV9VmlmcLlrx/f084rLpfLre0KmFwud/UlcO4Lk1nGl3uvu+e9VO4JzNjf2u/HXurM5XK5tV0Bk8vlbr7KyovA+c+jQcYrk+OtrRnHl3u9u+d9Mz7Yp4f+1nxPZ60zl8vlRnAFTC6Xu8uduz+w1dA5fb5k+e+0DnP3S2YdX+517t55WOZbtv5m+zwYnxybqc5cLpcbxRUwuVzuYXcuZE1PqS3BM9KXzfHq47N7I5/1rYfx5Z7jHrkHcfq4jAz9PdrnWp8JGevM5XK5kVwBk8vlXu4+2zL6GP4JoNMgeqRN/829j/vIVGduXPdI0Jp75mX0/pardmDc2srnVbY6c7lcbiRXwORyuWncZyulr1rG/nLbcI+s2s+Fy+j9LVftsLi1TVeJs9SZy+Vyo7kCJpfL5XK5F7lnr6hF72+5Im2Fbz3Ic7lcbjRXwORyuVwu92T3jHsP51bUovZ3fGULl5mDPJfL5UZ0BUwul8vlck90zwhYz8JltP6Or2yH+jxbvYxcZy6Xy43sCphcLpfL5Z7gPobh8sATqb9z/27tsLin1o9hfvUyap25XC43uitgcrlcLpd70D1r5a6Ey2wBM+PK5edb3pViLpfLjewKmFwul8vlbmzj04nPvOew/NvR+vvKrR0Uj4T5THXmcrncDK6AyeVyuVzuhlbC5dmH2ZR/O1p/X7kZD/XJulLM5XK5GdxvkV4Ml8vlcrnR3ccwXBIuo/Z3zi3BLGO4/Hz7vTU2Q525XC43oytgcrlcLpe78rriXsO1YadGf5fcK1Zwo4XLCHXmcrncjK6AyeVyuVzuin//ikC1J1ze0d+lq2wrzXqoz68f31PUmcvlcjO7AiaXy+VyuU+uq8LU3nB5dX+fXZlXLj/ftn/laXE+c7lc7tWugMnlcrlc7sK/eVWYOhIur+rvmivryuXemrc0n7lcLvcuV8DkcrlcLndyXblKV569GKm/a67M4XLr1tiadeZyudzsroDJ5XK5XO5/rqtDVAmXUfq7xasdEu8OlzXqzOVyuS24AiaXy+Vyu3XLSuJjuP6RG+NwmanOjyFvuPx82/4ImFp15nK53FZcAZPL5XK5Xbp3PstxGi6z1Pkx5A6XWe915XK53MyugMnlcrncrty7H7UxFy4z1Pkx5A6Xv358T3mvK5fL5WZ3BUwul8vlduGOg+Vdj9pYCpfR6/wY8ofLMuaR68zlcrktugIml8vlcpt2S7B8DPdsh10TLiPX+THkDpefb9/+O+6R68zlcrmtugIml8vlcpt0awXLacDJVOfHkD9cZj1MicvlcltxBUwul8vlNuWOg2WNZzeW15Ctzo+hvXAZsc5cLpfbuitgcrlcLrcJtwTLOw/wGbfxfX/Z6vwY8ofLcqhP5DpzuVxuD+63SC+Gy+Vyudwjbo1gWcJNxjrXCuN31j9CnblcLrcnV8Dkcrlcblq35oplaXuftVizzhHqdmaLWmcul8vt0RUwuVwul5vOjRKQjvS5Zp3ff37cfvBRjXBZu85cLpfboytgcrlcLjeFO73HsnZAylrnCMH8rLZm9TjqfOZyudxWXQGTy+VyuaHd2qfCTtv4MJ+Mda4dzM9qa+sQbT5zuVxu666AyeVyudyQbu1TYZdWzMaBN1udo9TxjHGIXGcul8vt2RUwuVwulxvKjRgsx+Eya51bWbncemJv7fnM5XK5vbkCJpfL5XJDuOOVwUhh6NnzLbPUOVI97wyXd9eZy+VyuQIml8vlcgO50YLQrx/f/wi+GescraZ3hss768zlcrnc35eAyeVyudyq7mOIFyw/3+a3xGaq82MYqtewdri8o85cLpfL/fMSMLlcLpdbxY10f+U0zDyG+S2xWer8GITLO+rM5XK53H9fAiaXy+Vyb3UjrlaWNj0lNmOdI9d3T7jM+jgYLpfL7dUVMLlcLpd7ufv3+1/hg89jWLdqGb3Otet4xZhEqzOXy+Vyl10Bk8vlcrmXuRkCz9/vf309hu3hMlKdv77aWrkch8todeZyuVzuc1fA5HK5XO5ht2wr/frKsVr5+fbnvZZ7wmWk8a1dy6vGJVqduVwul/va/RbpxXC5XC43r5thtXIcYsahOFOdi/v+8yNVzdeOS7Q6c7lcLnebK2ByuVwud7ebZbVy3B7Dn6uWGeo8vXoKlzXrzOVyudztroDJ5XK53M1uxnCzdK9l5DovXdlC/ZFwWbPOXC6Xy93uCphcLpfLXeVmDJUlvDx7/Ei0Or+6atfz7nBZq85cLpfL3ecKmFwul8v9b5vek5hxC+y4rXmuZY0673Efw1C9nleMT7Q6c7lcLveYK2ByuVxu524JYCWEZQ+Vn2/zJ5HWrvMRN+vq8Rnh8s46c7lcLve4K2ByuVxuh26LoXIcXLY8eiT6+LYyLnvD5V115nK5XO45roDJ5XK5nbgth8rPt22rllnGt6XxKS1inblcLpd7nitgcrlcbsNu66FyGiy3hsuo49viltg1h/ncXWcul8vlCphcLpfLXXGNw1ZrgXLcylbLPcEy6vgKl/fUmcvlcrnXuAIml8vlNua2uEr5KrC0Mr4tjlu5JzZSnblcLpd7nStgcrlcbnL3MbS59XUpWM7VJvv4trhqOQ6XUerM5XK53OtdAZPL5XKTuY+hn0A5bq9qknV8WwyXcwcu1a4zl8vlcu9xBUwul8sN5pb7J8f/RgmUvYXKz7d1j7TINL5ljL++2twSu3Sab406c7lcLvd+V8Dkcrnciu74lNfxF/IeVyjngkr28V0a7xZXLT/fnj+D9M46c7lcLree+y3Si+Fyudwe3b/f/xIoJ8HyMWx77Ejk8Z1eLY7zmh8DWn3/crlcLvfPS8DkcrncC9zpNtfxJUwuh5RnK2CRxneP+xiG6jW+oq3ZwnxnnblcLpdb1xUwuVwu96A73eZawtF4ZVKgfN7GdYw2vme4LW+JjVRnLpfL5dZ3BUwul8t9cc0FyHETJM8JKK3OqxbnxJb7Y++qM5fL5XJjuAIml8vlrnQFyfPa3MpX7fE927VqeU+duVwulxvLFTC5XO5t7tI9iWe4ZWvl+L/jtub6+/2vr8fQ9yNBaoaTbPP5mdvi3Nmzanl1nblcLpcbzxUwuVxuGndpi+qSVQJjccfBsdXVpaitxWdZzrmtzqty+FKUOnO5XC43ritgcrncW9zxik4JeHv+O25zK40trhxlbj0dAtPi3Bs/MiZKnblcLpcb2xUwuVzubW6LX8C1+VCy5z69bPO5rOi1vmo53iVQo85cLpfLzeUKmFwu9xZ3fOJq7S/O2jWtrHa1Pp/HoavFH01+/fi+uP38zjpzuVwuN6crYHK53Nvc8T1cLX4x77WVFcse7tEbP+O0dt2vGMfSx6V7m1sfXy6Xy+UedwVMLpdb1RU087ZyiNI4kESZV2e7ra9azm2Hjfy5weVyudy4roDJ5XKru+WwntpfsrXXraxWPob5la5I8+ost+Xt3eOxrF1nLpfL5bbhCphcLjeM2+IX+Fbas1AZfV7tdVsOlmu2w7Y+vlwul8u9xhUwuVxuONeKZow2vrdybRCJPK+2uK1uh90bLFsbXy6Xy+Ve536L9GK4XC53HGYEzToBZM8jRqLPq61ua6uW42AZqc5cLpfLbc8VMLlcbkh3umomaF4bPsZbYFueV2vcluba3IpllDpzuVwut01XwORyueHd8uX468v22TODx9J9lb3Mq6nb0qrls62wtevM5XK53LZdAZPL5aZ1hc1tgWPunsq5+/CijO/VbouH+HiWJZfL5XJruwIml8ttwhU258PGdJWyp4N6llqLW6+3HN7T+vhyuVwut64rYHK53ObcxzD8d8Wu9hf/GoHy6+vr5Spl5vE94pZatLBqueeU39bHl8vlcrn1XQGTy+U275bVzZYCZwkXSye+9jS+a9yWtsNOg2WkOnO5XC6XK2Byudwu3OmX8Uxbavc8OqS38V36N1sKluM5sCdYtji+XC6Xy43nCphcLrcrd7p1dBw8y4pgCXQlgF4RRMf/9riV15C9zrXdVu6zXPpxIUqduVwul8udNgGTy+Vyh+fBc+7fWvvfNW2te2Z/Wx3fVoLlqxXr2nXmcrlcLnfJFTC5XC73BreEnqX/ttbfGm7mA3zGJ/5GrzOXy+Vyuc9cAZPL5XK56d2s91luvbe2dp25XC6Xy33lCphcLpfLTe1mCpblXtuMdeZyuVwud40rYHK5XC43pZvlJODx9tfxfbZZ6szlcrlc7hZXwORyuVxuOjd6sCynAc8d3pSpzlwul8vlbnW/RXoxXC6Xy+VOW/STYcePl8lcZy6Xy+Vyz3AFTC6Xy+WGdKMGy60nvkavM5fL5XK5Z7oCJpfL5XJDuZGCZTmUZ+4eSvdRcrlcLpf770vA5HK5XG4It4S2GqfCToNkac/uocxaZy6Xy+Vyr3QFTC6Xy+WGcK8KliU8ju+VHN8vOQ2RJUjOBcoW6szlcrlc7pWugMnlcrncEG557MjaNg6Lxd960E7N/nK5XC6X26L7/wG8UX9iqw1vWgAAAABJRU5ErkJggg==;" parent="1" vertex="1">
          <mxGeometry x="580" y="150" width="150.84" height="151" as="geometry" />
        </mxCell>
        <mxCell id="bewlppvLgTkB77JRoysf-1529" value="" style="shape=image;verticalLabelPosition=bottom;labelBackgroundColor=#ffffff;verticalAlign=top;aspect=fixed;imageAspect=0;image=https://kide.app/content/images/themes/kide/application/default.jpg;" parent="1" vertex="1">
          <mxGeometry x="1390" y="1050.5" width="236.04" height="133" as="geometry" />
        </mxCell>
        <mxCell id="n7Z3c_HKe_n42f6zVLu--1517" value="" style="shape=image;verticalLabelPosition=bottom;labelBackgroundColor=#ffffff;verticalAlign=top;aspect=fixed;imageAspect=0;image=https://newberrygroup.com/wp-content/uploads/2017/01/24_7_support.png;" vertex="1" parent="1">
          <mxGeometry x="1390" y="120" width="141" height="141" as="geometry" />
        </mxCell>
        <mxCell id="n7Z3c_HKe_n42f6zVLu--1518" value="" style="shape=image;verticalLabelPosition=bottom;labelBackgroundColor=#ffffff;verticalAlign=top;aspect=fixed;imageAspect=0;image=https://image.flaticon.com/icons/png/512/21/21012.png;" vertex="1" parent="1">
          <mxGeometry x="1754" y="759.5" width="132" height="132" as="geometry" />
        </mxCell>
      </root>
    </mxGraphModel>
  </diagram>
</mxfile>
